font.ufo
<glyph name="exclam" format="1">
  <advance width="247"/>
  <unicode hex="0021"/>
  <outline>
    <contour>
      <point x="61" y="693" type="line"/>
      <point x="61" y="518" type="line"/>
      <point x="83" y="229" type="line"/>
      <point x="164" y="229" type="line"/>
      <point x="185" y="518" type="line"/>
      <point x="185" y="693" type="line"/>
    </contour>
    <contour>
      <point x="54" y="63" type="curve" smooth="yes"/>
      <point x="54" y="22"/>
      <point x="82" y="-8"/>
      <point x="121" y="-8" type="curve" smooth="yes"/>
      <point x="161" y="-8"/>
      <point x="189" y="22"/>
      <point x="189" y="63" type="curve" smooth="yes"/>
      <point x="189" y="104"/>
      <point x="161" y="133"/>
      <point x="121" y="133" type="curve" smooth="yes"/>
      <point x="82" y="133"/>
      <point x="54" y="104"/>
    </contour>
  </outline>
</glyph>
<glyph name="numbersign" format="1">
  <advance width="727"/>
  <unicode hex="0023"/>
  <outline>
    <contour>
      <point x="436.76462" y="264" type="line"/>
      <point x="269.38802" y="264" type="line"/>
      <point x="289.63053" y="429.0" type="line"/>
      <point x="457.24251" y="429.0" type="line"/>
    </contour>
    <contour>
      <point x="404.0" y="0" type="line"/>
      <point x="500.0" y="0" type="line"/>
      <point x="520.48787" y="167" type="line"/>
      <point x="661" y="167" type="line"/>
      <point x="670" y="264" type="line"/>
      <point x="532.38802" y="264" type="line"/>
      <point x="552.63053" y="429.0" type="line"/>
      <point x="694" y="429.0" type="line"/>
      <point x="703.0" y="526" type="line"/>
      <point x="564.53067" y="526" type="line"/>
      <point x="586" y="701.0" type="line"/>
      <point x="491.0" y="701.0" type="line"/>
      <point x="469.28103" y="526" type="line"/>
      <point x="301.53067" y="526" type="line"/>
      <point x="323" y="701.0" type="line"/>
      <point x="228.0" y="701.0" type="line"/>
      <point x="206.28103" y="526" type="line"/>
      <point x="67" y="526" type="line"/>
      <point x="57.0" y="429.0" type="line"/>
      <point x="194.24251" y="429.0" type="line"/>
      <point x="173.76462" y="264" type="line"/>
      <point x="34" y="264" type="line"/>
      <point x="24.0" y="167" type="line"/>
      <point x="161.72611" y="167" type="line"/>
      <point x="141" y="0" type="line"/>
      <point x="237.0" y="0" type="line"/>
      <point x="257.48787" y="167" type="line"/>
      <point x="424.72611" y="167" type="line"/>
    </contour>
  </outline>
</glyph>
<glyph name="ampersand" format="1">
  <advance width="669"/>
  <unicode hex="0026"/>
  <outline>
    <contour>
      <point x="595.0" y="-23.0" type="curve"/>
      <point x="662" y="45.0" type="line"/>
      <point x="621.729022977" y="83.8965409466"/>
      <point x="584.593909669" y="119.69499967"/>
      <point x="550.4934" y="152.76699" type="curve"/>
      <point x="577.523898684" y="190.548638782"/>
      <point x="601.286104005" y="234.262868235"/>
      <point x="621.0" y="283.0" type="curve"/>
      <point x="536" y="346" type="line"/>
      <point x="520.057588347" y="300.278366579"/>
      <point x="500.314984258" y="259.080771772"/>
      <point x="477.72477" y="223.83923" type="curve"/>
      <point x="422.342878397" y="278.465650113"/>
      <point x="377.362380213" y="324.498540421"/>
      <point x="342.11537" y="364.38941" type="curve"/>
      <point x="426.877067756" y="408.250107554"/>
      <point x="510.0" y="458.441923831"/>
      <point x="510.0" y="555.0" type="curve" smooth="yes"/>
      <point x="510" y="644"/>
      <point x="435" y="706"/>
      <point x="326" y="706" type="curve" smooth="yes"/>
      <point x="213" y="706"/>
      <point x="139" y="641"/>
      <point x="139" y="545" type="curve" smooth="yes"/>
      <point x="139.0" y="494.586506424"/>
      <point x="159.165871795" y="445.569111664"/>
      <point x="203.52993" y="385.05821" type="curve"/>
      <point x="126.084340863" y="342.954336997"/>
      <point x="56.0" y="290.103796114"/>
      <point x="56.0" y="193.0" type="curve" smooth="yes"/>
      <point x="56" y="77"/>
      <point x="153" y="-6"/>
      <point x="281" y="-6" type="curve" smooth="yes"/>
      <point x="356.602519073" y="-6.0"/>
      <point x="427.669635734" y="25.464354236"/>
      <point x="488.46643" y="81.76391" type="curve"/>
      <point x="521.362381437" y="49.3847947481"/>
      <point x="556.838281275" y="14.5764162907"/>
    </contour>
    <contour>
      <point x="242.0" y="545.0" type="curve" smooth="yes"/>
      <point x="242" y="591"/>
      <point x="275" y="626"/>
      <point x="327" y="626" type="curve" smooth="yes"/>
      <point x="375" y="626"/>
      <point x="406" y="597"/>
      <point x="406" y="555" type="curve" smooth="yes"/>
      <point x="406.0" y="497.432556565"/>
      <point x="353.754439427" y="462.703886752"/>
      <point x="289.63437" y="429.24694" type="curve"/>
      <point x="257.33278105" y="474.361903741"/>
      <point x="242.0" y="510.948622745"/>
    </contour>
    <contour>
      <point x="286.0" y="92.0" type="curve" smooth="yes"/>
      <point x="217" y="92"/>
      <point x="164" y="137"/>
      <point x="164" y="203" type="curve" smooth="yes"/>
      <point x="164.0" y="254.351161994"/>
      <point x="204.014993903" y="288.701734092"/>
      <point x="256.82887" y="319.41683" type="curve"/>
      <point x="298.408758008" y="271.994260671"/>
      <point x="351.807468626" y="217.248493619"/>
      <point x="418.29301" y="151.12313" type="curve"/>
      <point x="377.898404095" y="113.365086181"/>
      <point x="332.68231775" y="92.0"/>
    </contour>
  </outline>
</glyph>
<glyph name="quotesingle" format="1">
  <advance width="220"/>
  <unicode hex="0027"/>
  <outline>
    <contour>
      <point x="60" y="701" type="line"/>
      <point x="60" y="445" type="line"/>
      <point x="160" y="445" type="line"/>
      <point x="160" y="701" type="line"/>
    </contour>
  </outline>
</glyph>
<glyph name="parenleft" format="1">
  <advance width="326"/>
  <unicode hex="0028"/>
  <outline>
    <contour>
      <point x="196" y="742" type="line"/>
      <point x="117" y="627"/>
      <point x="73" y="474"/>
      <point x="73" y="309" type="curve" smooth="yes"/>
      <point x="73" y="144"/>
      <point x="117" y="-9"/>
      <point x="196" y="-124" type="curve"/>
      <point x="315" y="-124" type="line"/>
      <point x="242" y="-9"/>
      <point x="196" y="144"/>
      <point x="196" y="309" type="curve" smooth="yes"/>
      <point x="196" y="474"/>
      <point x="242" y="627"/>
      <point x="315" y="742" type="curve"/>
    </contour>
  </outline>
</glyph>
<glyph name="parenright" format="1">
  <advance width="313"/>
  <unicode hex="0029"/>
  <outline>
    <contour>
      <point x="39" y="742" type="line"/>
      <point x="112" y="627"/>
      <point x="158" y="474"/>
      <point x="158" y="309" type="curve" smooth="yes"/>
      <point x="158" y="144"/>
      <point x="112" y="-9"/>
      <point x="39" y="-124" type="curve"/>
      <point x="158" y="-124" type="line"/>
      <point x="237" y="-9"/>
      <point x="281" y="144"/>
      <point x="281" y="309" type="curve" smooth="yes"/>
      <point x="281" y="474"/>
      <point x="237" y="627"/>
      <point x="158" y="742" type="curve"/>
    </contour>
  </outline>
</glyph>
<glyph name="asterisk" format="1">
  <advance width="356"/>
  <unicode hex="002A"/>
  <outline>
    <contour>
      <point x="331" y="511" type="line"/>
      <point x="241" y="561" type="line"/>
      <point x="331" y="609" type="line"/>
      <point x="297" y="671" type="line"/>
      <point x="210" y="620" type="line"/>
      <point x="212" y="720" type="line"/>
      <point x="144" y="720" type="line"/>
      <point x="144" y="620" type="line"/>
      <point x="57" y="672" type="line"/>
      <point x="24" y="609" type="line"/>
      <point x="112" y="561" type="line"/>
      <point x="24" y="511" type="line"/>
      <point x="57" y="449" type="line"/>
      <point x="145" y="501" type="line"/>
      <point x="144" y="401" type="line"/>
      <point x="212" y="401" type="line"/>
      <point x="209" y="500" type="line"/>
      <point x="297" y="449" type="line"/>
    </contour>
  </outline>
</glyph>
<glyph name="plus" format="1">
  <advance width="502"/>
  <unicode hex="002B"/>
  <outline>
    <contour>
      <point x="467.0" y="280" type="line"/>
      <point x="467.0" y="370.0" type="line"/>
      <point x="293" y="370.0" type="line"/>
      <point x="293" y="543" type="line"/>
      <point x="208.0" y="543" type="line"/>
      <point x="208.0" y="370.0" type="line"/>
      <point x="35" y="370.0" type="line"/>
      <point x="35" y="280" type="line"/>
      <point x="208.0" y="280" type="line"/>
      <point x="208.0" y="108.0" type="line"/>
      <point x="293" y="108.0" type="line"/>
      <point x="293" y="280" type="line"/>
    </contour>
  </outline>
</glyph>
<glyph name="comma" format="1">
  <advance width="221"/>
  <unicode hex="002C"/>
  <outline>
    <contour>
      <point x="99.0" y="-87.0" type="line"/>
      <point x="160" y="6.0" type="line" smooth="yes"/>
      <point x="172" y="23"/>
      <point x="180" y="41"/>
      <point x="180" y="63" type="curve" smooth="yes"/>
      <point x="180" y="108"/>
      <point x="148" y="133"/>
      <point x="113" y="133" type="curve" smooth="yes"/>
      <point x="74" y="133"/>
      <point x="45" y="104"/>
      <point x="45" y="63" type="curve" smooth="yes"/>
      <point x="45.0" y="40.3930969675"/>
      <point x="53.8482005665" y="19.5558340483"/>
      <point x="73.01851" y="6.64442" type="curve"/>
      <point x="34" y="-87.0" type="line"/>
    </contour>
  </outline>
</glyph>
<glyph name="hyphen" format="1">
  <advance width="370"/>
  <unicode hex="002D"/>
  <outline>
    <contour>
      <point x="59" y="350" type="line"/>
      <point x="59" y="261" type="line"/>
      <point x="310" y="261" type="line"/>
      <point x="310" y="350" type="line"/>
    </contour>
  </outline>
</glyph>
<glyph name="period" format="1">
  <advance width="221"/>
  <unicode hex="002E"/>
  <outline>
    <contour>
      <point x="44" y="63" type="curve" smooth="yes"/>
      <point x="44" y="22"/>
      <point x="72" y="-8"/>
      <point x="111" y="-8" type="curve" smooth="yes"/>
      <point x="151" y="-8"/>
      <point x="179" y="22"/>
      <point x="179" y="63" type="curve" smooth="yes"/>
      <point x="179" y="104"/>
      <point x="151" y="133"/>
      <point x="111" y="133" type="curve" smooth="yes"/>
      <point x="72" y="133"/>
      <point x="44" y="104"/>
    </contour>
  </outline>
</glyph>
<glyph name="slash" format="1">
  <advance width="337"/>
  <unicode hex="002F"/>
  <outline>
    <contour>
      <point x="294" y="815" type="line"/>
      <point x="-24" y="-115" type="line"/>
      <point x="86" y="-115" type="line"/>
      <point x="405" y="815" type="line"/>
    </contour>
  </outline>
</glyph>
<glyph name="zero" format="1">
  <advance width="617"/>
  <unicode hex="0030"/>
  <note>
    zero
  </note>
  <outline>
    <contour>
      <point x="42" y="351" type="curve" smooth="yes"/>
      <point x="42" y="123"/>
      <point x="137" y="-4"/>
      <point x="309" y="-4" type="curve" smooth="yes"/>
      <point x="480" y="-4"/>
      <point x="575" y="123"/>
      <point x="575" y="351" type="curve" smooth="yes"/>
      <point x="575" y="579"/>
      <point x="480" y="705"/>
      <point x="309" y="705" type="curve" smooth="yes"/>
      <point x="137" y="705"/>
      <point x="42" y="579"/>
    </contour>
    <contour>
      <point x="443" y="351" type="curve" smooth="yes"/>
      <point x="443" y="178"/>
      <point x="399" y="99"/>
      <point x="309" y="99" type="curve" smooth="yes"/>
      <point x="218" y="99"/>
      <point x="174" y="178"/>
      <point x="174" y="351" type="curve" smooth="yes"/>
      <point x="174" y="524"/>
      <point x="218" y="602"/>
      <point x="309" y="602" type="curve" smooth="yes"/>
      <point x="399" y="602"/>
      <point x="443" y="524"/>
    </contour>
  </outline>
</glyph>
<glyph name="one" format="1">
  <advance width="617"/>
  <unicode hex="0031"/>
  <note>
    one
  </note>
  <outline>
    <contour>
      <point x="384" y="0" type="line"/>
      <point x="384" y="701" type="line"/>
      <point x="103" y="701" type="line"/>
      <point x="103" y="583" type="line"/>
      <point x="249" y="583" type="line"/>
      <point x="249" y="0" type="line"/>
    </contour>
  </outline>
</glyph>
<glyph name="two" format="1">
  <advance width="617"/>
  <unicode hex="0032"/>
  <note>
    two
  </note>
  <outline>
    <contour>
      <point x="36" y="605" type="curve"/>
      <point x="90" y="502" type="line"/>
      <point x="151" y="556"/>
      <point x="224" y="590"/>
      <point x="286" y="590" type="curve" smooth="yes"/>
      <point x="356" y="590"/>
      <point x="398" y="560"/>
      <point x="398" y="508" type="curve" smooth="yes"/>
      <point x="398" y="471"/>
      <point x="364" y="418"/>
      <point x="314" y="369" type="curve" smooth="yes"/>
      <point x="50" y="97" type="line"/>
      <point x="50" y="0" type="line"/>
      <point x="569" y="0" type="line"/>
      <point x="569" y="118" type="line"/>
      <point x="225" y="118" type="line"/>
      <point x="405" y="297" type="line" smooth="yes"/>
      <point x="483" y="377"/>
      <point x="538" y="456"/>
      <point x="538" y="528" type="curve" smooth="yes"/>
      <point x="538" y="637"/>
      <point x="443" y="707"/>
      <point x="305" y="707" type="curve" smooth="yes"/>
      <point x="210" y="707"/>
      <point x="117" y="669"/>
    </contour>
  </outline>
</glyph>
<glyph name="three" format="1">
  <advance width="544"/>
  <unicode hex="0033"/>
  <note>
    three
  </note>
  <outline>
    <contour>
      <point x="277" y="411" type="line"/>
      <point x="471" y="616" type="line"/>
      <point x="471" y="699" type="line"/>
      <point x="35" y="699" type="line"/>
      <point x="35" y="584" type="line"/>
      <point x="308" y="584" type="line"/>
      <point x="134" y="399" type="line"/>
      <point x="134" y="321" type="line"/>
      <point x="234" y="321" type="line" smooth="yes"/>
      <point x="322" y="321"/>
      <point x="372" y="286"/>
      <point x="372" y="216" type="curve" smooth="yes"/>
      <point x="372" y="148"/>
      <point x="322" y="105"/>
      <point x="235" y="105" type="curve" smooth="yes"/>
      <point x="172" y="105"/>
      <point x="108" y="132"/>
      <point x="57" y="182" type="curve"/>
      <point x="2" y="73" type="line"/>
      <point x="63" y="26"/>
      <point x="156" y="-6"/>
      <point x="246" y="-6" type="curve" smooth="yes"/>
      <point x="403" y="-6"/>
      <point x="503" y="86"/>
      <point x="503" y="218" type="curve" smooth="yes"/>
      <point x="503" y="328"/>
      <point x="425" y="395"/>
      <point x="313" y="407" type="curve" smooth="yes"/>
    </contour>
  </outline>
</glyph>
<glyph name="four" format="1">
  <advance width="617"/>
  <unicode hex="0034"/>
  <note>
    four
  </note>
  <outline>
    <contour>
      <point x="268" y="701" type="line"/>
      <point x="33" y="264" type="line"/>
      <point x="33" y="166" type="line"/>
      <point x="368" y="166" type="line"/>
      <point x="368" y="0" type="line"/>
      <point x="492" y="0" type="line"/>
      <point x="492" y="166" type="line"/>
      <point x="593" y="166" type="line"/>
      <point x="593" y="281" type="line"/>
      <point x="493" y="281" type="line"/>
      <point x="492" y="442" type="line"/>
      <point x="368" y="442" type="line"/>
      <point x="368" y="281" type="line"/>
      <point x="174" y="281" type="line"/>
      <point x="397" y="701" type="line"/>
    </contour>
  </outline>
</glyph>
<glyph name="five" format="1">
  <advance width="617"/>
  <unicode hex="0035"/>
  <note>
    five
  </note>
  <outline>
    <contour>
      <point x="87" y="701" type="line"/>
      <point x="87" y="322" type="line"/>
      <point x="136" y="327"/>
      <point x="238" y="330"/>
      <point x="281" y="330" type="curve" smooth="yes"/>
      <point x="370" y="330"/>
      <point x="424" y="290"/>
      <point x="424" y="224" type="curve" smooth="yes"/>
      <point x="424" y="152"/>
      <point x="370" y="109"/>
      <point x="279" y="109" type="curve" smooth="yes"/>
      <point x="213" y="109"/>
      <point x="143" y="136"/>
      <point x="85" y="186" type="curve"/>
      <point x="31" y="78" type="line"/>
      <point x="103" y="28"/>
      <point x="206" y="-5"/>
      <point x="294" y="-5" type="curve" smooth="yes"/>
      <point x="461" y="-5"/>
      <point x="568" y="89"/>
      <point x="568" y="233" type="curve" smooth="yes"/>
      <point x="568" y="356"/>
      <point x="465" y="445"/>
      <point x="304" y="445" type="curve" smooth="yes"/>
      <point x="211" y="445" type="line"/>
      <point x="211" y="583" type="line"/>
      <point x="538" y="583" type="line"/>
      <point x="538" y="701" type="line"/>
    </contour>
  </outline>
</glyph>
<glyph name="six" format="1">
  <advance width="620"/>
  <unicode hex="0036"/>
  <note>
    six
  </note>
  <outline>
    <contour>
      <point x="46" y="338" type="curve" smooth="yes"/>
      <point x="46" y="123"/>
      <point x="156" y="-6"/>
      <point x="336" y="-6" type="curve" smooth="yes"/>
      <point x="487" y="-6"/>
      <point x="586" y="85"/>
      <point x="586" y="232" type="curve" smooth="yes"/>
      <point x="586" y="367"/>
      <point x="500" y="456"/>
      <point x="361" y="456" type="curve" smooth="yes"/>
      <point x="276" y="456"/>
      <point x="212" y="423"/>
      <point x="176" y="364" type="curve"/>
      <point x="173" y="503"/>
      <point x="233" y="595"/>
      <point x="363" y="595" type="curve" smooth="yes"/>
      <point x="416" y="595"/>
      <point x="473" y="579"/>
      <point x="516" y="550" type="curve"/>
      <point x="568" y="651" type="line"/>
      <point x="510" y="685"/>
      <point x="425" y="706"/>
      <point x="354" y="706" type="curve" smooth="yes"/>
      <point x="166" y="706"/>
      <point x="46" y="561"/>
    </contour>
    <contour>
      <point x="461" y="233" type="curve" smooth="yes"/>
      <point x="461" y="154"/>
      <point x="409" y="109"/>
      <point x="330" y="109" type="curve" smooth="yes"/>
      <point x="236" y="109"/>
      <point x="195" y="171"/>
      <point x="195" y="228" type="curve" smooth="yes"/>
      <point x="195" y="295"/>
      <point x="246" y="350"/>
      <point x="334" y="350" type="curve" smooth="yes"/>
      <point x="413" y="350"/>
      <point x="461" y="306"/>
    </contour>
  </outline>
</glyph>
<glyph name="seven" format="1">
  <advance width="617"/>
  <unicode hex="0037"/>
  <note>
    seven
  </note>
  <outline>
    <contour>
      <point x="45" y="701" type="line"/>
      <point x="45" y="485" type="line"/>
      <point x="164" y="485" type="line"/>
      <point x="165" y="583" type="line"/>
      <point x="436" y="583" type="line"/>
      <point x="155" y="0" type="line"/>
      <point x="298" y="0" type="line"/>
      <point x="585" y="601" type="line"/>
      <point x="585" y="701" type="line"/>
    </contour>
  </outline>
</glyph>
<glyph name="eight" format="1">
  <advance width="617"/>
  <unicode hex="0038"/>
  <note>
    eight
  </note>
  <outline>
    <contour>
      <point x="73" y="528" type="curve" smooth="yes"/>
      <point x="73" y="462"/>
      <point x="112" y="407"/>
      <point x="177" y="375" type="curve"/>
      <point x="92" y="345"/>
      <point x="38" y="279"/>
      <point x="38" y="195" type="curve" smooth="yes"/>
      <point x="38" y="71"/>
      <point x="143" y="-6"/>
      <point x="309" y="-6" type="curve" smooth="yes"/>
      <point x="475" y="-6"/>
      <point x="580" y="72"/>
      <point x="580" y="197" type="curve" smooth="yes"/>
      <point x="580" y="280"/>
      <point x="528" y="345"/>
      <point x="447" y="375" type="curve"/>
      <point x="507" y="404"/>
      <point x="544" y="458"/>
      <point x="544" y="523" type="curve" smooth="yes"/>
      <point x="544" y="637"/>
      <point x="454" y="707"/>
      <point x="308" y="707" type="curve" smooth="yes"/>
      <point x="164" y="707"/>
      <point x="73" y="638"/>
    </contour>
    <contour>
      <point x="431" y="516" type="curve" smooth="yes"/>
      <point x="431" y="456"/>
      <point x="387" y="421"/>
      <point x="309" y="421" type="curve" smooth="yes"/>
      <point x="231" y="421"/>
      <point x="186" y="456"/>
      <point x="186" y="516" type="curve" smooth="yes"/>
      <point x="186" y="576"/>
      <point x="231" y="611"/>
      <point x="309" y="611" type="curve" smooth="yes"/>
      <point x="387" y="611"/>
      <point x="431" y="576"/>
    </contour>
    <contour>
      <point x="454" y="209" type="curve" smooth="yes"/>
      <point x="454" y="139"/>
      <point x="400" y="99"/>
      <point x="309" y="99" type="curve" smooth="yes"/>
      <point x="217" y="99"/>
      <point x="164" y="139"/>
      <point x="164" y="210" type="curve" smooth="yes"/>
      <point x="164" y="278"/>
      <point x="217" y="317"/>
      <point x="308" y="317" type="curve" smooth="yes"/>
      <point x="400" y="317"/>
      <point x="454" y="277"/>
    </contour>
  </outline>
</glyph>
<glyph name="nine" format="1">
  <advance width="617"/>
  <unicode hex="0039"/>
  <note>
    nine
  </note>
  <outline>
    <contour>
      <point x="161" y="469" type="curve" smooth="yes"/>
      <point x="161" y="548"/>
      <point x="213" y="594"/>
      <point x="291" y="594" type="curve" smooth="yes"/>
      <point x="385" y="594"/>
      <point x="426" y="531"/>
      <point x="425" y="473" type="curve" smooth="yes"/>
      <point x="426" y="405"/>
      <point x="375" y="349"/>
      <point x="287" y="349" type="curve" smooth="yes"/>
      <point x="209" y="349"/>
      <point x="161" y="395"/>
    </contour>
    <contour>
      <point x="573" y="364" type="curve" smooth="yes"/>
      <point x="573" y="579"/>
      <point x="463" y="707"/>
      <point x="285" y="707" type="curve" smooth="yes"/>
      <point x="136" y="707"/>
      <point x="37" y="616"/>
      <point x="37" y="470" type="curve" smooth="yes"/>
      <point x="37" y="333"/>
      <point x="123" y="245"/>
      <point x="261" y="245" type="curve" smooth="yes"/>
      <point x="346" y="245"/>
      <point x="408" y="278"/>
      <point x="444" y="338" type="curve"/>
      <point x="447" y="197"/>
      <point x="387" y="104"/>
      <point x="258" y="104" type="curve" smooth="yes"/>
      <point x="205" y="104"/>
      <point x="149" y="120"/>
      <point x="107" y="148" type="curve"/>
      <point x="56" y="49" type="line"/>
      <point x="113" y="16"/>
      <point x="196" y="-6"/>
      <point x="267" y="-6" type="curve" smooth="yes"/>
      <point x="454" y="-6"/>
      <point x="573" y="140"/>
    </contour>
  </outline>
</glyph>
<glyph name="less" format="1">
  <advance width="502"/>
  <unicode hex="003C"/>
  <outline>
    <contour>
      <point x="35" y="382" type="line"/>
      <point x="35" y="268" type="line"/>
      <point x="467" y="83" type="line"/>
      <point x="467" y="182" type="line"/>
      <point x="121" y="325" type="line"/>
      <point x="467" y="468" type="line"/>
      <point x="467" y="568" type="line"/>
    </contour>
  </outline>
</glyph>
<glyph name="equal" format="1">
  <advance width="502"/>
  <unicode hex="003D"/>
  <outline>
    <contour>
      <point x="35" y="476" type="line"/>
      <point x="35" y="386" type="line"/>
      <point x="467" y="386" type="line"/>
      <point x="467" y="476" type="line"/>
    </contour>
    <contour>
      <point x="35" y="264" type="line"/>
      <point x="35" y="175" type="line"/>
      <point x="467" y="175" type="line"/>
      <point x="467" y="264" type="line"/>
    </contour>
  </outline>
</glyph>
<glyph name="greater" format="1">
  <advance width="502"/>
  <unicode hex="003E"/>
  <outline>
    <contour>
      <point x="467" y="274" type="line"/>
      <point x="467" y="388" type="line"/>
      <point x="35" y="573" type="line"/>
      <point x="35" y="474" type="line"/>
      <point x="381" y="331" type="line"/>
      <point x="35" y="188" type="line"/>
      <point x="35" y="88" type="line"/>
    </contour>
  </outline>
</glyph>
<glyph name="question" format="1">
  <advance width="450"/>
  <unicode hex="003F"/>
  <outline>
    <contour>
      <point x="106" y="488" type="line"/>
      <point x="108" y="554"/>
      <point x="145" y="587"/>
      <point x="206" y="587" type="curve" smooth="yes"/>
      <point x="263" y="587"/>
      <point x="300" y="561"/>
      <point x="300" y="508" type="curve" smooth="yes"/>
      <point x="300" y="394"/>
      <point x="166" y="391"/>
      <point x="166" y="232" type="curve"/>
      <point x="265" y="232" type="line"/>
      <point x="265" y="362"/>
      <point x="421" y="373"/>
      <point x="421" y="529" type="curve" smooth="yes"/>
      <point x="421" y="639"/>
      <point x="340" y="698"/>
      <point x="217" y="698" type="curve" smooth="yes"/>
      <point x="88" y="698"/>
      <point x="8" y="621"/>
      <point x="4" y="489" type="curve"/>
    </contour>
    <contour>
      <point x="145" y="63" type="curve" smooth="yes"/>
      <point x="145" y="22"/>
      <point x="173" y="-8"/>
      <point x="212" y="-8" type="curve" smooth="yes"/>
      <point x="252" y="-8"/>
      <point x="280" y="22"/>
      <point x="280" y="63" type="curve" smooth="yes"/>
      <point x="280" y="104"/>
      <point x="252" y="133"/>
      <point x="212" y="133" type="curve" smooth="yes"/>
      <point x="173" y="133"/>
      <point x="145" y="104"/>
    </contour>
  </outline>
</glyph>
<glyph name="at" format="1">
  <advance width="959"/>
  <unicode hex="0040"/>
  <outline>
    <contour>
      <point x="31" y="267" type="curve" smooth="yes"/>
      <point x="31" y="27"/>
      <point x="221" y="-152"/>
      <point x="472" y="-152" type="curve" smooth="yes"/>
      <point x="548" y="-152"/>
      <point x="647" y="-125"/>
      <point x="706" y="-81" type="curve"/>
      <point x="664" y="-6" type="line"/>
      <point x="608" y="-47"/>
      <point x="531" y="-66"/>
      <point x="472" y="-66" type="curve" smooth="yes"/>
      <point x="273" y="-66"/>
      <point x="120" y="75"/>
      <point x="120" y="267" type="curve" smooth="yes"/>
      <point x="120" y="462"/>
      <point x="282" y="618"/>
      <point x="485" y="618" type="curve" smooth="yes"/>
      <point x="703" y="618"/>
      <point x="838" y="466"/>
      <point x="838" y="270" type="curve" smooth="yes"/>
      <point x="838" y="169"/>
      <point x="794" y="99"/>
      <point x="747" y="99" type="curve" smooth="yes"/>
      <point x="721" y="99"/>
      <point x="703" y="114"/>
      <point x="703" y="152" type="curve" smooth="yes"/>
      <point x="703" y="496" type="line"/>
      <point x="591" y="496" type="line"/>
      <point x="591" y="436" type="line"/>
      <point x="583" y="453"/>
      <point x="525" y="507"/>
      <point x="440" y="507" type="curve" smooth="yes"/>
      <point x="309" y="507"/>
      <point x="224" y="400"/>
      <point x="224" y="269" type="curve" smooth="yes"/>
      <point x="224" y="130"/>
      <point x="332" y="36"/>
      <point x="451" y="36" type="curve" smooth="yes"/>
      <point x="517" y="36"/>
      <point x="577" y="64"/>
      <point x="617" y="123" type="curve"/>
      <point x="619" y="105" type="line" smooth="yes"/>
      <point x="631" y="50"/>
      <point x="675" y="24"/>
      <point x="736" y="24" type="curve" smooth="yes"/>
      <point x="848" y="24"/>
      <point x="927" y="122"/>
      <point x="927" y="273" type="curve" smooth="yes"/>
      <point x="927" y="521"/>
      <point x="739" y="701"/>
      <point x="485" y="701" type="curve" smooth="yes"/>
      <point x="230" y="701"/>
      <point x="31" y="512"/>
    </contour>
    <contour>
      <point x="584" y="273" type="curve" smooth="yes"/>
      <point x="584" y="199"/>
      <point x="538" y="138"/>
      <point x="463" y="138" type="curve" smooth="yes"/>
      <point x="392" y="138"/>
      <point x="345" y="201"/>
      <point x="345" y="274" type="curve" smooth="yes"/>
      <point x="345" y="345"/>
      <point x="392" y="403"/>
      <point x="462" y="403" type="curve" smooth="yes"/>
      <point x="536" y="403"/>
      <point x="584" y="345"/>
    </contour>
  </outline>
</glyph>
<glyph name="A" format="1">
  <advance width="747"/>
  <unicode hex="0041"/>
  <outline>
    <contour>
      <point x="774" y="10" type="move" name="ogonek"/>
    </contour>
    <contour>
      <point x="374" y="700" type="move" name="abvm"/>
    </contour>
    <contour>
      <point x="372.0" y="557" type="line"/>
      <point x="494.45601" y="263" type="line"/>
      <point x="249.01616" y="263" type="line"/>
    </contour>
    <contour>
      <point x="604" y="0" type="line"/>
      <point x="748.0" y="0" type="line"/>
      <point x="445.0" y="700.0" type="line"/>
      <point x="307" y="700.0" type="line"/>
      <point x="-1" y="0" type="line"/>
      <point x="139" y="0" type="line"/>
      <point x="200.91023" y="148" type="line"/>
      <point x="542.35548" y="148" type="line"/>
    </contour>
  </outline>
</glyph>
<glyph name="B" format="1">
  <advance width="709"/>
  <unicode hex="0042"/>
  <outline>
    <contour>
      <point x="86" y="700" type="line"/>
      <point x="86" y="0" type="line"/>
      <point x="406" y="0" type="line" smooth="yes"/>
      <point x="566" y="0"/>
      <point x="665" y="73"/>
      <point x="665" y="193" type="curve" smooth="yes"/>
      <point x="665" y="286"/>
      <point x="608" y="353"/>
      <point x="516" y="370" type="curve"/>
      <point x="592" y="389"/>
      <point x="638" y="448"/>
      <point x="638" y="525" type="curve" smooth="yes"/>
      <point x="638" y="633"/>
      <point x="546" y="700"/>
      <point x="397" y="700" type="curve" smooth="yes"/>
    </contour>
    <contour>
      <point x="501" y="501" type="curve" smooth="yes"/>
      <point x="501" y="446"/>
      <point x="459" y="414"/>
      <point x="391" y="414" type="curve" smooth="yes"/>
      <point x="220" y="414" type="line"/>
      <point x="220" y="584" type="line"/>
      <point x="391" y="584" type="line" smooth="yes"/>
      <point x="459" y="584"/>
      <point x="501" y="554"/>
    </contour>
    <contour>
      <point x="526" y="210" type="curve" smooth="yes"/>
      <point x="526" y="150"/>
      <point x="476" y="116"/>
      <point x="391" y="116" type="curve" smooth="yes"/>
      <point x="220" y="116" type="line"/>
      <point x="220" y="302" type="line"/>
      <point x="391" y="302" type="line" smooth="yes"/>
      <point x="476" y="302"/>
      <point x="526" y="267"/>
    </contour>
  </outline>
</glyph>
<glyph name="C" format="1">
  <advance width="696"/>
  <unicode hex="0043"/>
  <outline>
    <contour>
      <point x="381" y="0" type="move" name="blwm"/>
    </contour>
    <contour>
      <point x="375" y="700" type="move" name="abvm"/>
    </contour>
    <contour>
      <point x="31" y="351" type="curve" smooth="yes"/>
      <point x="31" y="149"/>
      <point x="190" y="-6"/>
      <point x="396" y="-6" type="curve" smooth="yes"/>
      <point x="496" y="-6"/>
      <point x="600" y="41"/>
      <point x="672" y="114" type="curve"/>
      <point x="593" y="202" type="line"/>
      <point x="541" y="151"/>
      <point x="470" y="120"/>
      <point x="403" y="120" type="curve" smooth="yes"/>
      <point x="271" y="120"/>
      <point x="168" y="222"/>
      <point x="168" y="353" type="curve" smooth="yes"/>
      <point x="168" y="483"/>
      <point x="271" y="585"/>
      <point x="403" y="585" type="curve" smooth="yes"/>
      <point x="471" y="585"/>
      <point x="543" y="550"/>
      <point x="593" y="494" type="curve"/>
      <point x="671" y="592" type="line"/>
      <point x="602" y="661"/>
      <point x="501" y="704"/>
      <point x="401" y="704" type="curve" smooth="yes"/>
      <point x="192" y="704"/>
      <point x="31" y="551"/>
    </contour>
  </outline>
</glyph>
<glyph name="D" format="1">
  <advance width="773"/>
  <unicode hex="0044"/>
  <outline>
    <contour>
      <point x="383" y="350" type="move" name="center"/>
    </contour>
    <contour>
      <point x="363" y="700" type="move" name="abvm"/>
    </contour>
    <contour>
      <point x="86" y="700" type="line"/>
      <point x="86" y="0" type="line"/>
      <point x="372" y="0" type="line" smooth="yes"/>
      <point x="588" y="0"/>
      <point x="742" y="146"/>
      <point x="742" y="350" type="curve" smooth="yes"/>
      <point x="742" y="555"/>
      <point x="589" y="700"/>
      <point x="377" y="700" type="curve" smooth="yes"/>
    </contour>
    <contour>
      <point x="605" y="349" type="curve" smooth="yes"/>
      <point x="605" y="213"/>
      <point x="509" y="118"/>
      <point x="380" y="118" type="curve" smooth="yes"/>
      <point x="220" y="118" type="line"/>
      <point x="220" y="582" type="line"/>
      <point x="375" y="582" type="line" smooth="yes"/>
      <point x="506" y="582"/>
      <point x="605" y="486"/>
    </contour>
  </outline>
</glyph>
<glyph name="E" format="1">
  <advance width="661"/>
  <unicode hex="0045"/>
  <outline>
    <contour>
      <point x="334" y="0" type="move" name="blwm"/>
    </contour>
    <contour>
      <point x="606" y="10" type="move" name="ogonek"/>
    </contour>
    <contour>
      <point x="345" y="700" type="move" name="abvm"/>
    </contour>
    <contour>
      <point x="86" y="700" type="line"/>
      <point x="86" y="0" type="line"/>
      <point x="611" y="0" type="line"/>
      <point x="611" y="117" type="line"/>
      <point x="220" y="117" type="line"/>
      <point x="220" y="293" type="line"/>
      <point x="560" y="293" type="line"/>
      <point x="560" y="410" type="line"/>
      <point x="220" y="410" type="line"/>
      <point x="220" y="583" type="line"/>
      <point x="599" y="583" type="line"/>
      <point x="599" y="700" type="line"/>
    </contour>
  </outline>
</glyph>
<glyph name="F" format="1">
  <advance width="583"/>
  <unicode hex="0046"/>
  <outline>
    <contour>
      <point x="86" y="700" type="line"/>
      <point x="86" y="0" type="line"/>
      <point x="220" y="0" type="line"/>
      <point x="220" y="277" type="line"/>
      <point x="537" y="277" type="line"/>
      <point x="537" y="394" type="line"/>
      <point x="220" y="394" type="line"/>
      <point x="220" y="583" type="line"/>
      <point x="568" y="583" type="line"/>
      <point x="569" y="700" type="line"/>
    </contour>
  </outline>
</glyph>
<glyph name="G" format="1">
  <advance width="747"/>
  <unicode hex="0047"/>
  <outline>
    <contour>
      <point x="388" y="0" type="move" name="blwm"/>
    </contour>
    <contour>
      <point x="388" y="700" type="move" name="abvm"/>
    </contour>
    <contour>
      <point x="678" y="85" type="curve"/>
      <point x="678" y="348.0" type="line"/>
      <point x="561" y="348.0" type="line"/>
      <point x="561" y="158.04592" type="line"/>
      <point x="512.495042934" y="130.859324882"/>
      <point x="457.333749619" y="114.0"/>
      <point x="410.0" y="114.0" type="curve" smooth="yes"/>
      <point x="274" y="114"/>
      <point x="168" y="217"/>
      <point x="168" y="350" type="curve" smooth="yes"/>
      <point x="168" y="482"/>
      <point x="273" y="585"/>
      <point x="409" y="585" type="curve" smooth="yes"/>
      <point x="480" y="585"/>
      <point x="554" y="555"/>
      <point x="607" y="506" type="curve"/>
      <point x="683" y="604" type="line"/>
      <point x="613" y="665"/>
      <point x="510" y="704"/>
      <point x="409" y="704" type="curve" smooth="yes"/>
      <point x="194" y="704"/>
      <point x="31" y="551"/>
      <point x="31" y="350" type="curve" smooth="yes"/>
      <point x="31" y="149"/>
      <point x="192" y="-6"/>
      <point x="401" y="-6" type="curve" smooth="yes"/>
      <point x="497" y="-6"/>
      <point x="606" y="31"/>
    </contour>
  </outline>
</glyph>
<glyph name="H" format="1">
  <advance width="790"/>
  <unicode hex="0048"/>
  <outline>
    <contour>
      <point x="395" y="351" type="move" name="center"/>
    </contour>
    <contour>
      <point x="401" y="700" type="move" name="abvm"/>
    </contour>
    <contour>
      <point x="569" y="700" type="line"/>
      <point x="569" y="401" type="line"/>
      <point x="220" y="401" type="line"/>
      <point x="220" y="700" type="line"/>
      <point x="86" y="700" type="line"/>
      <point x="86" y="0" type="line"/>
      <point x="220" y="0" type="line"/>
      <point x="220" y="284" type="line"/>
      <point x="569" y="284" type="line"/>
      <point x="569" y="0" type="line"/>
      <point x="703" y="0" type="line"/>
      <point x="703" y="700" type="line"/>
    </contour>
  </outline>
</glyph>
<glyph name="I" format="1">
  <advance width="306"/>
  <unicode hex="0049"/>
  <outline>
    <contour>
      <point x="256" y="10" type="move" name="ogonek"/>
    </contour>
    <contour>
      <point x="153" y="700" type="move" name="abvm"/>
    </contour>
    <contour>
      <point x="86" y="700" type="line"/>
      <point x="86" y="0" type="line"/>
      <point x="220" y="0" type="line"/>
      <point x="220" y="700" type="line"/>
    </contour>
  </outline>
</glyph>
<glyph name="J" format="1">
  <advance width="509"/>
  <unicode hex="004A"/>
  <outline>
    <contour>
      <point x="246" y="700" type="move" name="abvm"/>
    </contour>
    <contour>
      <point x="61" y="700" type="line"/>
      <point x="61" y="581" type="line"/>
      <point x="302" y="581" type="line"/>
      <point x="302" y="223" type="line" smooth="yes"/>
      <point x="302" y="157"/>
      <point x="267" y="121"/>
      <point x="209" y="121" type="curve" smooth="yes"/>
      <point x="163" y="121"/>
      <point x="108" y="148"/>
      <point x="60" y="199" type="curve"/>
      <point x="-3" y="99" type="line"/>
      <point x="52" y="32"/>
      <point x="125" y="-6"/>
      <point x="213" y="-6" type="curve" smooth="yes"/>
      <point x="352" y="-6"/>
      <point x="437" y="76"/>
      <point x="437" y="220" type="curve" smooth="yes"/>
      <point x="437" y="700" type="line"/>
    </contour>
  </outline>
</glyph>
<glyph name="K" format="1">
  <advance width="726"/>
  <unicode hex="004B"/>
  <outline>
    <contour>
      <point x="355" y="0" type="move" name="blwm"/>
    </contour>
    <contour>
      <point x="355" y="700" type="move" name="abvm"/>
    </contour>
    <contour>
      <point x="220.0" y="176.0" type="line"/>
      <point x="331.57671" y="299.60717" type="line"/>
      <point x="550" y="0" type="line"/>
      <point x="712.0" y="0" type="line"/>
      <point x="426.15749" y="404.38589" type="line"/>
      <point x="693" y="700.0" type="line"/>
      <point x="537" y="700.0" type="line"/>
      <point x="220.0" y="358.0" type="line"/>
      <point x="220.0" y="700.0" type="line"/>
      <point x="86" y="700.0" type="line"/>
      <point x="86" y="0" type="line"/>
      <point x="220.0" y="0" type="line"/>
    </contour>
  </outline>
</glyph>
<glyph name="L" format="1">
  <advance width="541"/>
  <unicode hex="004C"/>
  <outline>
    <contour>
      <point x="290" y="0" type="move" name="blwm"/>
    </contour>
    <contour>
      <point x="154" y="700" type="move" name="abvm"/>
    </contour>
    <contour>
      <point x="86" y="700" type="line"/>
      <point x="86" y="0" type="line"/>
      <point x="522" y="0" type="line"/>
      <point x="522" y="121" type="line"/>
      <point x="220" y="121" type="line"/>
      <point x="220" y="700" type="line"/>
    </contour>
  </outline>
</glyph>
<glyph name="M" format="1">
  <advance width="921"/>
  <unicode hex="004D"/>
  <outline>
    <contour>
      <point x="680" y="700" type="line"/>
      <point x="461" y="251" type="line"/>
      <point x="241" y="700" type="line"/>
      <point x="86" y="700" type="line"/>
      <point x="86" y="0" type="line"/>
      <point x="210" y="0" type="line"/>
      <point x="210" y="500" type="line"/>
      <point x="417" y="72" type="line"/>
      <point x="504" y="72" type="line"/>
      <point x="711" y="500" type="line"/>
      <point x="712" y="0" type="line"/>
      <point x="834" y="0" type="line"/>
      <point x="834" y="700" type="line"/>
    </contour>
  </outline>
</glyph>
<glyph name="N" format="1">
  <advance width="790"/>
  <unicode hex="004E"/>
  <outline>
    <contour>
      <point x="395" y="0" type="move" name="blwm"/>
    </contour>
    <contour>
      <point x="395" y="700" type="move" name="abvm"/>
    </contour>
    <contour>
      <point x="574" y="700" type="line"/>
      <point x="574" y="221" type="line"/>
      <point x="213" y="700" type="line"/>
      <point x="86" y="700" type="line"/>
      <point x="86" y="0" type="line"/>
      <point x="217" y="0" type="line"/>
      <point x="217" y="478" type="line"/>
      <point x="577" y="0" type="line"/>
      <point x="704" y="0" type="line"/>
      <point x="704" y="700" type="line"/>
    </contour>
  </outline>
</glyph>
<glyph name="O" format="1">
  <advance width="809"/>
  <unicode hex="004F"/>
  <outline>
    <contour>
      <point x="399" y="700" type="move" name="abvm"/>
    </contour>
    <contour>
      <point x="31" y="350" type="curve" smooth="yes"/>
      <point x="31" y="149"/>
      <point x="193" y="-6"/>
      <point x="404" y="-6" type="curve" smooth="yes"/>
      <point x="615" y="-6"/>
      <point x="777" y="149"/>
      <point x="777" y="350" type="curve" smooth="yes"/>
      <point x="777" y="551"/>
      <point x="615" y="704"/>
      <point x="404" y="704" type="curve" smooth="yes"/>
      <point x="193" y="704"/>
      <point x="31" y="552"/>
    </contour>
    <contour>
      <point x="639" y="350" type="curve" smooth="yes"/>
      <point x="639" y="218"/>
      <point x="534" y="114"/>
      <point x="405" y="114" type="curve" smooth="yes"/>
      <point x="277" y="114"/>
      <point x="168" y="218"/>
      <point x="168" y="350" type="curve" smooth="yes"/>
      <point x="168" y="482"/>
      <point x="276" y="584"/>
      <point x="405" y="584" type="curve" smooth="yes"/>
      <point x="534" y="584"/>
      <point x="639" y="482"/>
    </contour>
  </outline>
</glyph>
<glyph name="P" format="1">
  <advance width="675"/>
  <unicode hex="0050"/>
  <outline>
    <contour>
      <point x="86" y="700" type="line"/>
      <point x="86" y="0" type="line"/>
      <point x="220" y="0" type="line"/>
      <point x="220" y="206" type="line"/>
      <point x="373" y="206" type="line" smooth="yes"/>
      <point x="549" y="206"/>
      <point x="650" y="299"/>
      <point x="650" y="459" type="curve" smooth="yes"/>
      <point x="650" y="613"/>
      <point x="549" y="700"/>
      <point x="373" y="700" type="curve" smooth="yes"/>
    </contour>
    <contour>
      <point x="523" y="455" type="curve" smooth="yes"/>
      <point x="523" y="367"/>
      <point x="466" y="324"/>
      <point x="366" y="324" type="curve" smooth="yes"/>
      <point x="220" y="324" type="line"/>
      <point x="220" y="583" type="line"/>
      <point x="366" y="583" type="line" smooth="yes"/>
      <point x="466" y="583"/>
      <point x="523" y="541"/>
    </contour>
  </outline>
</glyph>
<glyph name="Q" format="1">
  <advance width="821"/>
  <unicode hex="0051"/>
  <outline>
    <contour>
      <point x="624.0" y="-157.0" type="curve" smooth="yes"/>
      <point x="690" y="-157"/>
      <point x="763" y="-129"/>
      <point x="817" y="-80" type="curve"/>
      <point x="766.0" y="11.0" type="line"/>
      <point x="721" y="-24"/>
      <point x="675" y="-45"/>
      <point x="639" y="-45" type="curve" smooth="yes"/>
      <point x="601.302928247" y="-45.0"/>
      <point x="565.620604914" y="-22.8377673823"/>
      <point x="531.95303" y="14.34419" type="curve"/>
      <point x="677.068789309" y="62.6431511501"/>
      <point x="777.0" y="192.133811094"/>
      <point x="777.0" y="350.0" type="curve" smooth="yes"/>
      <point x="777" y="551"/>
      <point x="615" y="704"/>
      <point x="404" y="704" type="curve" smooth="yes"/>
      <point x="193" y="704"/>
      <point x="31" y="552"/>
      <point x="31" y="350" type="curve" smooth="yes"/>
      <point x="31.0" y="150.187434847"/>
      <point x="191.091579745" y="-4.16702741576"/>
      <point x="400.26562" y="-5.97538" type="curve"/>
      <point x="453.29698538" y="-101.333304931"/>
      <point x="532.889869062" y="-157.0"/>
    </contour>
    <contour>
      <point x="639" y="350" type="curve" smooth="yes"/>
      <point x="639" y="218"/>
      <point x="534" y="114"/>
      <point x="405" y="114" type="curve" smooth="yes"/>
      <point x="277" y="114"/>
      <point x="168" y="218"/>
      <point x="168" y="350" type="curve" smooth="yes"/>
      <point x="168" y="482"/>
      <point x="276" y="584"/>
      <point x="405" y="584" type="curve" smooth="yes"/>
      <point x="534" y="584"/>
      <point x="639" y="482"/>
    </contour>
  </outline>
</glyph>
<glyph name="R" format="1">
  <advance width="723"/>
  <unicode hex="0052"/>
  <outline>
    <contour>
      <point x="360" y="0" type="move" name="blwm"/>
    </contour>
    <contour>
      <point x="358" y="700" type="move" name="abvm"/>
    </contour>
    <contour>
      <point x="535" y="455" type="curve" smooth="yes"/>
      <point x="535" y="367"/>
      <point x="478" y="324"/>
      <point x="378" y="324" type="curve" smooth="yes"/>
      <point x="220" y="324" type="line"/>
      <point x="220" y="583" type="line"/>
      <point x="378" y="583" type="line" smooth="yes"/>
      <point x="478" y="583"/>
      <point x="535" y="541"/>
    </contour>
    <contour>
      <point x="220.0" y="206.0" type="line"/>
      <point x="378.0" y="206.0" type="line" smooth="yes"/>
      <point x="386.576543869" y="206.0"/>
      <point x="394.977957119" y="206.208809583"/>
      <point x="403.20158" y="206.62888" type="curve"/>
      <point x="524" y="0" type="line"/>
      <point x="676" y="0" type="line"/>
      <point x="522.62568" y="231.84491" type="line"/>
      <point x="612.789921368" y="269.824052079"/>
      <point x="662.0" y="348.40680629"/>
      <point x="662.0" y="459.0" type="curve" smooth="yes"/>
      <point x="662" y="613"/>
      <point x="559" y="700"/>
      <point x="378" y="700" type="curve" smooth="yes"/>
      <point x="86" y="700.0" type="line"/>
      <point x="86" y="0" type="line"/>
      <point x="220.0" y="0" type="line"/>
    </contour>
  </outline>
</glyph>
<glyph name="S" format="1">
  <advance width="628"/>
  <unicode hex="0053"/>
  <outline>
    <contour>
      <point x="320" y="0" type="move" name="blwm"/>
    </contour>
    <contour>
      <point x="325" y="700" type="move" name="abvm"/>
    </contour>
    <contour>
      <point x="65" y="506" type="curve" smooth="yes"/>
      <point x="65" y="257"/>
      <point x="441" y="340"/>
      <point x="441" y="194" type="curve" smooth="yes"/>
      <point x="441" y="145"/>
      <point x="395" y="117"/>
      <point x="320" y="117" type="curve" smooth="yes"/>
      <point x="246" y="117"/>
      <point x="151" y="156"/>
      <point x="79" y="220" type="curve"/>
      <point x="23" y="107" type="line"/>
      <point x="98" y="40"/>
      <point x="207" y="-5"/>
      <point x="318" y="-5" type="curve" smooth="yes"/>
      <point x="473" y="-5"/>
      <point x="587" y="71"/>
      <point x="587" y="202" type="curve" smooth="yes"/>
      <point x="588" y="453"/>
      <point x="212" y="376"/>
      <point x="212" y="518" type="curve" smooth="yes"/>
      <point x="212" y="561"/>
      <point x="253" y="584"/>
      <point x="316" y="584" type="curve" smooth="yes"/>
      <point x="370" y="584"/>
      <point x="450" y="561"/>
      <point x="526" y="516" type="curve"/>
      <point x="580" y="632" type="line"/>
      <point x="513" y="676"/>
      <point x="420" y="706"/>
      <point x="326" y="706" type="curve" smooth="yes"/>
      <point x="170" y="706"/>
      <point x="65" y="628"/>
    </contour>
  </outline>
</glyph>
<glyph name="T" format="1">
  <advance width="588"/>
  <unicode hex="0054"/>
  <outline>
    <contour>
      <point x="281" y="0" type="move" name="blwm"/>
    </contour>
    <contour>
      <point x="286" y="350" type="move" name="center"/>
    </contour>
    <contour>
      <point x="303" y="700" type="move" name="abvm"/>
    </contour>
    <contour>
      <point x="8" y="700" type="line"/>
      <point x="8" y="581" type="line"/>
      <point x="226" y="581" type="line"/>
      <point x="226" y="0" type="line"/>
      <point x="360" y="0" type="line"/>
      <point x="360" y="581" type="line"/>
      <point x="579" y="581" type="line"/>
      <point x="579" y="700" type="line"/>
    </contour>
  </outline>
</glyph>
<glyph name="U" format="1">
  <advance width="762"/>
  <unicode hex="0055"/>
  <outline>
    <contour>
      <point x="549" y="10" type="move" name="ogonek"/>
    </contour>
    <contour>
      <point x="382" y="700" type="move" name="abvm"/>
    </contour>
    <contour>
      <point x="556" y="700" type="line"/>
      <point x="556" y="292" type="line" smooth="yes"/>
      <point x="556" y="180"/>
      <point x="489" y="114"/>
      <point x="383" y="114" type="curve" smooth="yes"/>
      <point x="276" y="114"/>
      <point x="206" y="181"/>
      <point x="206" y="292" type="curve" smooth="yes"/>
      <point x="206" y="700" type="line"/>
      <point x="72" y="700" type="line"/>
      <point x="72" y="292" type="line" smooth="yes"/>
      <point x="72" y="108"/>
      <point x="191" y="-6"/>
      <point x="382" y="-6" type="curve" smooth="yes"/>
      <point x="573" y="-6"/>
      <point x="690" y="108"/>
      <point x="690" y="292" type="curve" smooth="yes"/>
      <point x="690" y="700" type="line"/>
    </contour>
  </outline>
</glyph>
<glyph name="V" format="1">
  <advance width="701"/>
  <unicode hex="0056"/>
  <outline>
    <contour>
      <point x="560" y="700" type="line"/>
      <point x="352" y="149" type="line"/>
      <point x="146" y="700" type="line"/>
      <point x="2" y="700" type="line"/>
      <point x="279" y="0" type="line"/>
      <point x="418" y="0" type="line"/>
      <point x="698" y="700" type="line"/>
    </contour>
  </outline>
</glyph>
<glyph name="W" format="1">
  <advance width="1048"/>
  <unicode hex="0057"/>
  <outline>
    <contour>
      <point x="530" y="700" type="move" name="abvm"/>
    </contour>
    <contour>
      <point x="919" y="700" type="line"/>
      <point x="760" y="149" type="line"/>
      <point x="599" y="700" type="line"/>
      <point x="466" y="700" type="line"/>
      <point x="307" y="149" type="line"/>
      <point x="146" y="700" type="line"/>
      <point x="2" y="700" type="line"/>
      <point x="234" y="0" type="line"/>
      <point x="372" y="0" type="line"/>
      <point x="530" y="525" type="line"/>
      <point x="686" y="0" type="line"/>
      <point x="825" y="0" type="line"/>
      <point x="1057" y="700" type="line"/>
    </contour>
  </outline>
</glyph>
<glyph name="X" format="1">
  <advance width="704"/>
  <unicode hex="0058"/>
  <outline>
    <contour>
      <point x="509" y="700" type="line"/>
      <point x="347" y="470" type="line"/>
      <point x="186" y="700" type="line"/>
      <point x="30" y="700" type="line"/>
      <point x="266" y="359" type="line"/>
      <point x="13" y="0" type="line"/>
      <point x="170" y="0" type="line"/>
      <point x="347" y="250" type="line"/>
      <point x="526" y="0" type="line"/>
      <point x="687" y="0" type="line"/>
      <point x="433" y="365" type="line"/>
      <point x="667" y="700" type="line"/>
    </contour>
  </outline>
</glyph>
<glyph name="Y" format="1">
  <advance width="649"/>
  <unicode hex="0059"/>
  <outline>
    <contour>
      <point x="324" y="700" type="move" name="abvm"/>
    </contour>
    <contour>
      <point x="394.0" y="0" type="line"/>
      <point x="394.0" y="228.98089" type="line"/>
      <point x="649" y="700.0" type="line"/>
      <point x="514" y="700.0" type="line"/>
      <point x="326" y="371.0" type="line"/>
      <point x="135" y="700.0" type="line"/>
      <point x="-1" y="700.0" type="line"/>
      <point x="260" y="223.96226" type="line"/>
      <point x="260" y="0" type="line"/>
    </contour>
  </outline>
</glyph>
<glyph name="Z" format="1">
  <advance width="668"/>
  <unicode hex="005A"/>
  <outline>
    <contour>
      <point x="345" y="700" type="move" name="abvm"/>
    </contour>
    <contour>
      <point x="48" y="700" type="line"/>
      <point x="48" y="583" type="line"/>
      <point x="448" y="583" type="line"/>
      <point x="35" y="95" type="line"/>
      <point x="35" y="0" type="line"/>
      <point x="633" y="0" type="line"/>
      <point x="634" y="117" type="line"/>
      <point x="216" y="117" type="line"/>
      <point x="628" y="606" type="line"/>
      <point x="628" y="700" type="line"/>
    </contour>
  </outline>
</glyph>
<glyph name="backslash" format="1">
  <advance width="337"/>
  <unicode hex="005C"/>
  <outline>
    <contour>
      <point x="-68" y="815" type="line"/>
      <point x="251" y="-115" type="line"/>
      <point x="361" y="-115" type="line"/>
      <point x="43" y="815" type="line"/>
    </contour>
  </outline>
</glyph>
<glyph name="bracketright" format="1">
  <advance width="401"/>
  <unicode hex="005D"/>
  <outline>
    <contour>
      <point x="76" y="742" type="line"/>
      <point x="76" y="638" type="line"/>
      <point x="198" y="638" type="line"/>
      <point x="198" y="-20" type="line"/>
      <point x="76" y="-20" type="line"/>
      <point x="76" y="-124" type="line"/>
      <point x="315" y="-124" type="line"/>
      <point x="315" y="742" type="line"/>
    </contour>
  </outline>
</glyph>
<glyph name="asciicircum" format="1">
  <advance width="555"/>
  <unicode hex="005E"/>
  <outline>
    <contour>
      <point x="334" y="525" type="line"/>
      <point x="220" y="525" type="line"/>
      <point x="35" y="133" type="line"/>
      <point x="134" y="133" type="line"/>
      <point x="277" y="447" type="line"/>
      <point x="420" y="133" type="line"/>
      <point x="520" y="133" type="line"/>
    </contour>
  </outline>
</glyph>
<glyph name="underscore" format="1">
  <advance width="571"/>
  <unicode hex="005F"/>
  <outline>
    <contour>
      <point x="0" y="-125.993" type="line"/>
      <point x="0" y="-204" type="line"/>
      <point x="571" y="-204" type="line"/>
      <point x="571" y="-126" type="line"/>
    </contour>
  </outline>
</glyph>
<glyph name="grave" format="1">
  <advance width="350"/>
  <unicode hex="0060"/>
  <outline>
    <contour>
      <point x="218" y="534" type="move" name="_abvm"/>
    </contour>
    <contour>
      <point x="52" y="709" type="line"/>
      <point x="176" y="606" type="line"/>
      <point x="286" y="606" type="line"/>
      <point x="180" y="760" type="line"/>
    </contour>
  </outline>
</glyph>
<glyph name="a" format="1">
  <advance width="590"/>
  <unicode hex="0061"/>
  <outline>
    <contour>
      <point x="553" y="10" type="move" name="ogonek"/>
    </contour>
    <contour>
      <point x="293" y="535" type="move" name="abvm"/>
    </contour>
    <contour>
      <point x="255" y="94" type="curve" smooth="yes"/>
      <point x="196" y="94"/>
      <point x="160" y="123"/>
      <point x="160" y="168" type="curve" smooth="yes"/>
      <point x="160" y="215"/>
      <point x="192" y="234"/>
      <point x="261" y="234" type="curve" smooth="yes"/>
      <point x="396.30149" y="234.0" type="line"/>
      <point x="396.43493" y="189.2981" type="line"/>
      <point x="396.0" y="191.0" type="line"/>
      <point x="392" y="136"/>
      <point x="332" y="94"/>
    </contour>
    <contour>
      <point x="397.0" y="0" type="line"/>
      <point x="525" y="0" type="line"/>
      <point x="524" y="350.0" type="line" smooth="yes"/>
      <point x="523" y="469"/>
      <point x="444" y="540"/>
      <point x="304" y="540" type="curve" smooth="yes"/>
      <point x="206" y="540"/>
      <point x="146" y="517"/>
      <point x="69" y="474" type="curve"/>
      <point x="116.0" y="384.0" type="line"/>
      <point x="171" y="417"/>
      <point x="225" y="434"/>
      <point x="275" y="434" type="curve" smooth="yes"/>
      <point x="355" y="434"/>
      <point x="396" y="397"/>
      <point x="396" y="335" type="curve"/>
      <point x="396.04179" y="321" type="line"/>
      <point x="240.0" y="321" type="line" smooth="yes"/>
      <point x="110" y="320"/>
      <point x="37" y="259"/>
      <point x="37" y="160" type="curve" smooth="yes"/>
      <point x="37" y="65"/>
      <point x="108" y="-6"/>
      <point x="223" y="-6" type="curve" smooth="yes"/>
      <point x="299.935120226" y="-6.0"/>
      <point x="359.818237036" y="18.2663125534"/>
      <point x="396.80689" y="64.69232" type="curve"/>
    </contour>
  </outline>
</glyph>
<glyph name="b" format="1">
  <advance width="681"/>
  <unicode hex="0062"/>
  <outline>
    <contour>
      <point x="398.0" y="-5.0" type="curve" smooth="yes"/>
      <point x="550" y="-5"/>
      <point x="649" y="104"/>
      <point x="649" y="265" type="curve" smooth="yes"/>
      <point x="649" y="429"/>
      <point x="547" y="539"/>
      <point x="396" y="539" type="curve" smooth="yes"/>
      <point x="316.989973106" y="539.0"/>
      <point x="255.56380636" y="506.972254732"/>
      <point x="217.0" y="448.70125" type="curve"/>
      <point x="217.0" y="742.0" type="line"/>
      <point x="86" y="742.0" type="line"/>
      <point x="86" y="0" type="line"/>
      <point x="217.0" y="0" type="line"/>
      <point x="217.0" y="85.60334" type="line"/>
      <point x="255.769355748" y="27.4363867601"/>
      <point x="317.752102961" y="-5.0"/>
    </contour>
    <contour>
      <point x="366" y="107" type="curve" smooth="yes"/>
      <point x="284.499089847" y="107.0"/>
      <point x="225.299620455" y="163.611349623"/>
      <point x="217.0" y="248.41142" type="curve"/>
      <point x="217.0" y="289.15992" type="line"/>
      <point x="225.299620455" y="372.530902655"/>
      <point x="284.499089847" y="430.0"/>
      <point x="366.0" y="430.0" type="curve" smooth="yes"/>
      <point x="455" y="430"/>
      <point x="517" y="363"/>
      <point x="517" y="269" type="curve" smooth="yes"/>
      <point x="517" y="174"/>
      <point x="455" y="107"/>
    </contour>
  </outline>
</glyph>
<glyph name="c" format="1">
  <advance width="564"/>
  <unicode hex="0063"/>
  <outline>
    <contour>
      <point x="290" y="0" type="move" name="blwm"/>
    </contour>
    <contour>
      <point x="289" y="534" type="move" name="abvm"/>
    </contour>
    <contour>
      <point x="32" y="266" type="curve" smooth="yes"/>
      <point x="32" y="105"/>
      <point x="142" y="-5"/>
      <point x="302" y="-5" type="curve" smooth="yes"/>
      <point x="407" y="-5"/>
      <point x="487" y="35"/>
      <point x="534" y="103" type="curve"/>
      <point x="453" y="170" type="line"/>
      <point x="421" y="128"/>
      <point x="371" y="107"/>
      <point x="309" y="107" type="curve" smooth="yes"/>
      <point x="223" y="107"/>
      <point x="163" y="171"/>
      <point x="163" y="267" type="curve" smooth="yes"/>
      <point x="163" y="361"/>
      <point x="223" y="425"/>
      <point x="309" y="425" type="curve" smooth="yes"/>
      <point x="368" y="425"/>
      <point x="415" y="403"/>
      <point x="449" y="366" type="curve"/>
      <point x="528" y="441" type="line"/>
      <point x="480" y="503"/>
      <point x="402" y="539"/>
      <point x="303" y="539" type="curve" smooth="yes"/>
      <point x="143" y="539"/>
      <point x="32" y="429"/>
    </contour>
  </outline>
</glyph>
<glyph name="e" format="1">
  <advance width="592"/>
  <unicode hex="0065"/>
  <outline>
    <contour>
      <point x="301" y="0" type="move" name="blwm"/>
    </contour>
    <contour>
      <point x="532" y="10" type="move" name="ogonek"/>
    </contour>
    <contour>
      <point x="299" y="534" type="move" name="abvm"/>
    </contour>
    <contour>
      <point x="305.0" y="438.0" type="curve" smooth="yes"/>
      <point x="386" y="438"/>
      <point x="438" y="388"/>
      <point x="441" y="309" type="curve"/>
      <point x="161.7462" y="309" type="line"/>
      <point x="174.207525089" y="387.691706619"/>
      <point x="228.170059503" y="438.0"/>
    </contour>
    <contour>
      <point x="532" y="87" type="curve"/>
      <point x="462.0" y="160" type="line"/>
      <point x="424" y="121"/>
      <point x="373" y="100"/>
      <point x="318" y="100" type="curve" smooth="yes"/>
      <point x="240.162443292" y="100.0"/>
      <point x="182.209661571" y="145.940687042"/>
      <point x="164.58192" y="222.0" type="curve"/>
      <point x="560" y="222.0" type="line"/>
      <point x="573" y="416"/>
      <point x="492" y="539"/>
      <point x="304" y="539" type="curve" smooth="yes"/>
      <point x="144" y="539"/>
      <point x="32" y="429"/>
      <point x="32" y="266" type="curve" smooth="yes"/>
      <point x="32" y="105"/>
      <point x="141" y="-5"/>
      <point x="307" y="-5" type="curve" smooth="yes"/>
      <point x="401" y="-5"/>
      <point x="479" y="29"/>
    </contour>
  </outline>
</glyph>
<glyph name="f" format="1">
  <advance width="355"/>
  <unicode hex="0066"/>
  <outline>
    <contour>
      <point x="370.0" y="418.0" type="line"/>
      <point x="370.0" y="513" type="line"/>
      <point x="235.0" y="513" type="line"/>
      <point x="235.0" y="568" type="line"/>
      <point x="235" y="615"/>
      <point x="266" y="636"/>
      <point x="304" y="636" type="curve"/>
      <point x="327" y="636"/>
      <point x="353" y="627"/>
      <point x="374" y="612" type="curve"/>
      <point x="423.0" y="711.0" type="line"/>
      <point x="387" y="735"/>
      <point x="340" y="748"/>
      <point x="294" y="748" type="curve"/>
      <point x="196" y="748"/>
      <point x="105" y="687"/>
      <point x="105" y="564" type="curve" smooth="yes"/>
      <point x="105.0" y="513" type="line"/>
      <point x="35" y="513" type="line"/>
      <point x="35" y="418.0" type="line"/>
      <point x="105.0" y="418.0" type="line"/>
      <point x="105.0" y="0" type="line"/>
      <point x="235.0" y="0" type="line"/>
      <point x="235.0" y="418.0" type="line"/>
    </contour>
  </outline>
</glyph>
<glyph name="g" format="1">
  <advance width="642"/>
  <unicode hex="0067"/>
  <outline>
    <contour>
      <point x="321" y="535" type="move" name="abvm"/>
    </contour>
    <contour>
      <point x="441" y="282" type="curve" smooth="yes"/>
      <point x="441" y="192"/>
      <point x="382" y="129"/>
      <point x="299" y="129" type="curve" smooth="yes"/>
      <point x="213" y="129"/>
      <point x="156" y="192"/>
      <point x="155" y="282" type="curve" smooth="yes"/>
      <point x="156" y="371"/>
      <point x="214" y="435"/>
      <point x="299" y="435" type="curve" smooth="yes"/>
      <point x="382" y="435"/>
      <point x="441" y="372"/>
    </contour>
    <contour>
      <point x="290" y="-199" type="curve" smooth="yes"/>
      <point x="459" y="-199"/>
      <point x="571" y="-102"/>
      <point x="571" y="51" type="curve" smooth="yes"/>
      <point x="571" y="535" type="line"/>
      <point x="441.0" y="535" type="line"/>
      <point x="441.0" y="452.42209" type="line"/>
      <point x="404.07313744" y="508.509830066"/>
      <point x="344.395382106" y="539.568082479"/>
      <point x="266.0" y="539.0" type="curve" smooth="yes"/>
      <point x="127" y="539"/>
      <point x="32" y="436"/>
      <point x="32" y="285" type="curve" smooth="yes"/>
      <point x="32" y="131"/>
      <point x="128" y="27"/>
      <point x="270" y="27" type="curve" smooth="yes"/>
      <point x="346.580453784" y="27.0"/>
      <point x="404.770724701" y="57.7559954836"/>
      <point x="441.0" y="113.21513" type="curve"/>
      <point x="441.0" y="48.0" type="line" smooth="yes"/>
      <point x="441" y="-37"/>
      <point x="379" y="-90"/>
      <point x="283" y="-90" type="curve" smooth="yes"/>
      <point x="220" y="-90"/>
      <point x="166" y="-70"/>
      <point x="116" y="-34" type="curve"/>
      <point x="64" y="-128" type="line"/>
      <point x="128" y="-171"/>
      <point x="204" y="-199"/>
    </contour>
  </outline>
</glyph>
<glyph name="h" format="1">
  <advance width="672"/>
  <unicode hex="0068"/>
  <outline>
    <contour>
      <point x="629" y="0" type="move" name="blwm"/>
    </contour>
    <contour>
      <point x="336" y="268" type="move" name="center"/>
    </contour>
    <contour>
      <point x="149" y="742" type="move" name="abvm"/>
    </contour>
    <contour>
      <point x="269" y="537" type="move" name="topright"/>
    </contour>
    <contour>
      <point x="217.0" y="263" type="line"/>
      <point x="217" y="351"/>
      <point x="269" y="416"/>
      <point x="357" y="417" type="curve" smooth="yes"/>
      <point x="431" y="417"/>
      <point x="476" y="371"/>
      <point x="476" y="296" type="curve" smooth="yes"/>
      <point x="476.0" y="0" type="line"/>
      <point x="607" y="0" type="line"/>
      <point x="607" y="334" type="line" smooth="yes"/>
      <point x="607" y="461"/>
      <point x="532" y="540"/>
      <point x="409" y="540" type="curve" smooth="yes"/>
      <point x="321.569294667" y="539.375494962"/>
      <point x="254.808936092" y="506.380446888"/>
      <point x="217.0" y="434.92013" type="curve"/>
      <point x="217.0" y="742.0" type="line"/>
      <point x="86" y="742.0" type="line"/>
      <point x="86" y="0" type="line"/>
      <point x="217.0" y="0" type="line"/>
    </contour>
  </outline>
</glyph>
<glyph name="i" format="1">
  <advance width="291"/>
  <unicode hex="0069"/>
  <outline>
    <contour>
      <point x="146" y="535" type="move" name="_abvm"/>
    </contour>
    <contour>
      <point x="255" y="10" type="move" name="ogonek"/>
    </contour>
    <contour>
      <point x="146" y="535" type="move" name="abvm"/>
    </contour>
    <contour>
      <point x="73" y="688" type="curve" smooth="yes"/>
      <point x="73" y="644"/>
      <point x="104" y="611"/>
      <point x="146" y="611" type="curve" smooth="yes"/>
      <point x="189" y="611"/>
      <point x="220" y="644"/>
      <point x="220" y="688" type="curve" smooth="yes"/>
      <point x="220" y="733"/>
      <point x="189" y="765"/>
      <point x="146" y="765" type="curve" smooth="yes"/>
      <point x="104" y="765"/>
      <point x="73" y="733"/>
    </contour>
    <contour>
      <point x="81" y="535" type="line"/>
      <point x="81" y="0" type="line"/>
      <point x="211" y="0" type="line"/>
      <point x="211" y="535" type="line"/>
    </contour>
  </outline>
</glyph>
<glyph name="j" format="1">
  <advance width="296"/>
  <unicode hex="006A"/>
  <outline>
    <contour>
      <point x="68" y="687" type="curve" smooth="yes"/>
      <point x="68" y="643"/>
      <point x="101" y="610"/>
      <point x="146" y="610" type="curve" smooth="yes"/>
      <point x="192" y="610"/>
      <point x="224" y="643"/>
      <point x="224" y="687" type="curve" smooth="yes"/>
      <point x="224" y="733"/>
      <point x="192" y="765"/>
      <point x="146" y="765" type="curve" smooth="yes"/>
      <point x="101" y="765"/>
      <point x="68" y="733"/>
    </contour>
    <contour>
      <point x="81" y="535" type="line"/>
      <point x="81" y="-19" type="line"/>
      <point x="81" y="-66"/>
      <point x="55" y="-87"/>
      <point x="21" y="-87" type="curve"/>
      <point x="-1" y="-87"/>
      <point x="-25" y="-79"/>
      <point x="-45" y="-64" type="curve"/>
      <point x="-85" y="-164" type="line"/>
      <point x="-52" y="-187"/>
      <point x="-10" y="-200"/>
      <point x="32" y="-200" type="curve"/>
      <point x="124" y="-200"/>
      <point x="211" y="-140"/>
      <point x="211" y="-15" type="curve"/>
      <point x="211" y="535" type="line"/>
    </contour>
  </outline>
</glyph>
<glyph name="k" format="1">
  <advance width="605"/>
  <unicode hex="006B"/>
  <outline>
    <contour>
      <point x="126" y="0" type="move" name="blwm"/>
    </contour>
    <contour>
      <point x="152" y="742" type="move" name="abvm"/>
    </contour>
    <contour>
      <point x="273" y="535" type="move" name="topright"/>
    </contour>
    <contour>
      <point x="443.0" y="0" type="line"/>
      <point x="598" y="0" type="line"/>
      <point x="388.43604" y="328.09561" type="line"/>
      <point x="586" y="534" type="line"/>
      <point x="436.0" y="534" type="line"/>
      <point x="217.0" y="313.08734" type="line"/>
      <point x="217.0" y="742.0" type="line"/>
      <point x="86" y="742.0" type="line"/>
      <point x="86" y="0" type="line"/>
      <point x="217.0" y="0" type="line"/>
      <point x="217.0" y="149.42216" type="line"/>
      <point x="297.7078" y="233.53715" type="line"/>
    </contour>
  </outline>
</glyph>
<glyph name="l" format="1">
  <advance width="302"/>
  <unicode hex="006C"/>
  <outline>
    <contour>
      <point x="152" y="0" type="move" name="blwm"/>
    </contour>
    <contour>
      <point x="152" y="742" type="move" name="abvm"/>
    </contour>
    <contour>
      <point x="273" y="535" type="move" name="topright"/>
    </contour>
    <contour>
      <point x="86" y="742" type="line"/>
      <point x="86" y="0" type="line"/>
      <point x="217" y="0" type="line"/>
      <point x="217" y="742" type="line"/>
    </contour>
  </outline>
</glyph>
<glyph name="m" format="1">
  <advance width="1041"/>
  <unicode hex="006D"/>
  <outline>
    <contour>
      <point x="211.0" y="264" type="line"/>
      <point x="211" y="351"/>
      <point x="262" y="415"/>
      <point x="347" y="418" type="curve" smooth="yes"/>
      <point x="419" y="418"/>
      <point x="463" y="372"/>
      <point x="463" y="296" type="curve" smooth="yes"/>
      <point x="463.0" y="0" type="line"/>
      <point x="594" y="0" type="line"/>
      <point x="594" y="264" type="line"/>
      <point x="594" y="351"/>
      <point x="645" y="415"/>
      <point x="729" y="418" type="curve" smooth="yes"/>
      <point x="802" y="418"/>
      <point x="846" y="372"/>
      <point x="846" y="296" type="curve" smooth="yes"/>
      <point x="846.0" y="0" type="line"/>
      <point x="977.0" y="0" type="line"/>
      <point x="977.0" y="334" type="line" smooth="yes"/>
      <point x="977" y="461"/>
      <point x="903" y="540"/>
      <point x="782" y="540" type="curve" smooth="yes"/>
      <point x="687.722463687" y="539.311842801"/>
      <point x="617.596504257" y="499.318178125"/>
      <point x="583.02806" y="412.16155" type="curve"/>
      <point x="558.248753612" y="492.602633281"/>
      <point x="492.723593488" y="540.0"/>
      <point x="399.0" y="540.0" type="curve" smooth="yes"/>
      <point x="313.805995968" y="539.378145956"/>
      <point x="248.333816992" y="506.65998839"/>
      <point x="211.0" y="436.04599" type="curve"/>
      <point x="211.0" y="535" type="line"/>
      <point x="81" y="535" type="line"/>
      <point x="81" y="0" type="line"/>
      <point x="211.0" y="0" type="line"/>
    </contour>
  </outline>
</glyph>
<glyph name="n" format="1">
  <advance width="666"/>
  <unicode hex="006E"/>
  <outline>
    <contour>
      <point x="338" y="0" type="move" name="blwm"/>
    </contour>
    <contour>
      <point x="348" y="535" type="move" name="abvm"/>
    </contour>
    <contour>
      <point x="351.0" y="417.0" type="curve" smooth="yes"/>
      <point x="425" y="417"/>
      <point x="470" y="371"/>
      <point x="470" y="296" type="curve" smooth="yes"/>
      <point x="470.0" y="0" type="line"/>
      <point x="601" y="0" type="line"/>
      <point x="601" y="334" type="line" smooth="yes"/>
      <point x="601" y="461"/>
      <point x="526" y="540"/>
      <point x="403" y="540" type="curve" smooth="yes"/>
      <point x="316.334975994" y="539.380964114"/>
      <point x="249.979839664" y="506.955877716"/>
      <point x="212.0" y="436.76657" type="curve"/>
      <point x="212.0" y="535" type="line"/>
      <point x="81" y="535" type="line"/>
      <point x="81" y="0" type="line"/>
      <point x="212.0" y="0" type="line"/>
      <point x="212.0" y="283.54699" type="line"/>
      <point x="219.593895561" y="361.037842134"/>
      <point x="270.074868003" y="416.080396227"/>
    </contour>
  </outline>
</glyph>
<glyph name="o" format="1">
  <advance width="629"/>
  <unicode hex="006F"/>
  <outline>
    <contour>
      <point x="314" y="534" type="move" name="abvm"/>
    </contour>
    <contour>
      <point x="32" y="268" type="curve" smooth="yes"/>
      <point x="32" y="105"/>
      <point x="147" y="-5"/>
      <point x="314" y="-5" type="curve" smooth="yes"/>
      <point x="482" y="-5"/>
      <point x="596" y="105"/>
      <point x="596" y="268" type="curve" smooth="yes"/>
      <point x="596" y="430"/>
      <point x="482" y="539"/>
      <point x="314" y="539" type="curve" smooth="yes"/>
      <point x="147" y="539"/>
      <point x="32" y="430"/>
    </contour>
    <contour>
      <point x="466" y="266" type="curve" smooth="yes"/>
      <point x="466" y="170"/>
      <point x="404" y="104"/>
      <point x="315" y="104" type="curve" smooth="yes"/>
      <point x="226" y="104"/>
      <point x="164" y="170"/>
      <point x="164" y="266" type="curve" smooth="yes"/>
      <point x="164" y="362"/>
      <point x="226" y="427"/>
      <point x="315" y="427" type="curve" smooth="yes"/>
      <point x="404" y="427"/>
      <point x="466" y="362"/>
    </contour>
  </outline>
</glyph>
<glyph name="r" format="1">
  <advance width="403"/>
  <unicode hex="0072"/>
  <outline>
    <contour>
      <point x="143" y="0" type="move" name="blwm"/>
    </contour>
    <contour>
      <point x="209" y="535" type="move" name="abvm"/>
    </contour>
    <contour>
      <point x="393.0" y="414.0" type="curve"/>
      <point x="393.0" y="540" type="line"/>
      <point x="310.879001636" y="539.391696308"/>
      <point x="248.369772475" y="502.52012126"/>
      <point x="212.0" y="433.85902" type="curve"/>
      <point x="212.0" y="535" type="line"/>
      <point x="81" y="535" type="line"/>
      <point x="81" y="0" type="line"/>
      <point x="212.0" y="0" type="line"/>
      <point x="212.0" y="277.65185" type="line"/>
      <point x="220.846716359" y="363.857895953"/>
      <point x="287.887358137" y="420.511402593"/>
    </contour>
  </outline>
</glyph>
<glyph name="s" format="1">
  <advance width="482"/>
  <unicode hex="0073"/>
  <outline>
    <contour>
      <point x="240" y="0" type="move" name="blwm"/>
    </contour>
    <contour>
      <point x="248" y="535" type="move" name="abvm"/>
    </contour>
    <contour>
      <point x="47" y="380" type="curve" smooth="yes"/>
      <point x="46" y="190"/>
      <point x="326" y="244"/>
      <point x="326" y="145" type="curve" smooth="yes"/>
      <point x="326" y="110"/>
      <point x="291" y="95"/>
      <point x="246" y="95" type="curve" smooth="yes"/>
      <point x="188" y="95"/>
      <point x="115" y="119"/>
      <point x="65" y="161" type="curve"/>
      <point x="20" y="70" type="line"/>
      <point x="76" y="21"/>
      <point x="160" y="-5"/>
      <point x="242" y="-5" type="curve" smooth="yes"/>
      <point x="355" y="-5"/>
      <point x="452" y="48"/>
      <point x="452" y="157" type="curve" smooth="yes"/>
      <point x="453" y="349"/>
      <point x="170" y="302"/>
      <point x="170" y="392" type="curve" smooth="yes"/>
      <point x="170" y="425"/>
      <point x="200" y="439"/>
      <point x="241" y="439" type="curve" smooth="yes"/>
      <point x="287" y="439"/>
      <point x="347" y="421"/>
      <point x="398" y="390" type="curve"/>
      <point x="445" y="484" type="line"/>
      <point x="392" y="520"/>
      <point x="319" y="541"/>
      <point x="249" y="541" type="curve" smooth="yes"/>
      <point x="141" y="541"/>
      <point x="47" y="490"/>
    </contour>
  </outline>
</glyph>
<glyph name="t" format="1">
  <advance width="415"/>
  <unicode hex="0074"/>
  <outline>
    <contour>
      <point x="249" y="0" type="move" name="blwm"/>
    </contour>
    <contour>
      <point x="207" y="268" type="move" name="center"/>
    </contour>
    <contour>
      <point x="395" y="33" type="curve"/>
      <point x="364.0" y="131" type="line"/>
      <point x="335" y="117"/>
      <point x="310" y="109"/>
      <point x="288" y="109" type="curve"/>
      <point x="253" y="109"/>
      <point x="233" y="126"/>
      <point x="233" y="177" type="curve"/>
      <point x="233.0" y="418.0" type="line"/>
      <point x="385.0" y="418.0" type="line"/>
      <point x="385.0" y="513" type="line"/>
      <point x="233.0" y="513" type="line"/>
      <point x="233.0" y="660" type="line"/>
      <point x="103.0" y="660" type="line"/>
      <point x="103.0" y="513" type="line"/>
      <point x="27.0" y="513" type="line"/>
      <point x="27.0" y="418.0" type="line"/>
      <point x="103.0" y="418.0" type="line"/>
      <point x="103.0" y="154" type="line"/>
      <point x="103" y="44"/>
      <point x="174" y="-6"/>
      <point x="260" y="-6" type="curve"/>
      <point x="307" y="-6"/>
      <point x="354" y="8"/>
    </contour>
  </outline>
</glyph>
<glyph name="u" format="1">
  <advance width="656"/>
  <unicode hex="0075"/>
  <outline>
    <contour>
      <point x="599" y="10" type="move" name="ogonek"/>
    </contour>
    <contour>
      <point x="324" y="535" type="move" name="abvm"/>
    </contour>
    <contour>
      <point x="444.0" y="0" type="line"/>
      <point x="575" y="0" type="line"/>
      <point x="575" y="535" type="line"/>
      <point x="444.0" y="535" type="line"/>
      <point x="444.0" y="271" type="line"/>
      <point x="444" y="185"/>
      <point x="394" y="119"/>
      <point x="310" y="118" type="curve" smooth="yes"/>
      <point x="238" y="118"/>
      <point x="195" y="163"/>
      <point x="195" y="238" type="curve" smooth="yes"/>
      <point x="195.0" y="535" type="line"/>
      <point x="64" y="535" type="line"/>
      <point x="64" y="200.0" type="line" smooth="yes"/>
      <point x="64" y="74"/>
      <point x="138" y="-5"/>
      <point x="258" y="-5" type="curve" smooth="yes"/>
      <point x="342.806606207" y="-5.0"/>
      <point x="407.393038121" y="28.0522079795"/>
      <point x="444.0" y="99.27405" type="curve"/>
    </contour>
  </outline>
</glyph>
<glyph name="v" format="1">
  <advance width="537"/>
  <unicode hex="0076"/>
  <outline>
    <contour>
      <point x="413" y="535" type="line"/>
      <point x="275" y="128" type="line"/>
      <point x="136" y="535" type="line"/>
      <point x="-1" y="534" type="line"/>
      <point x="205" y="0" type="line"/>
      <point x="339" y="0" type="line"/>
      <point x="543" y="535" type="line"/>
    </contour>
  </outline>
</glyph>
<glyph name="w" format="1">
  <advance width="905"/>
  <unicode hex="0077"/>
  <outline>
    <contour>
      <point x="453" y="535" type="move" name="abvm"/>
    </contour>
    <contour>
      <point x="780" y="535" type="line"/>
      <point x="651" y="131" type="line"/>
      <point x="523" y="535" type="line"/>
      <point x="391" y="535" type="line"/>
      <point x="264" y="131" type="line"/>
      <point x="134" y="535" type="line"/>
      <point x="-1" y="534" type="line"/>
      <point x="196" y="0" type="line"/>
      <point x="329" y="0" type="line"/>
      <point x="455" y="377" type="line"/>
      <point x="583" y="0" type="line"/>
      <point x="716" y="0" type="line"/>
      <point x="911" y="535" type="line"/>
    </contour>
  </outline>
</glyph>
<glyph name="x" format="1">
  <advance width="568"/>
  <unicode hex="0078"/>
  <outline>
    <contour>
      <point x="24" y="535" type="line"/>
      <point x="198" y="274" type="line"/>
      <point x="11" y="0" type="line"/>
      <point x="156" y="0" type="line"/>
      <point x="285" y="187" type="line"/>
      <point x="404" y="0" type="line"/>
      <point x="554" y="0" type="line"/>
      <point x="371" y="274" type="line"/>
      <point x="542" y="535" type="line"/>
      <point x="399" y="535" type="line"/>
      <point x="285" y="361" type="line"/>
      <point x="174" y="535" type="line"/>
    </contour>
  </outline>
</glyph>
<glyph name="y" format="1">
  <advance width="544"/>
  <unicode hex="0079"/>
  <outline>
    <contour>
      <point x="273" y="535" type="move" name="abvm"/>
    </contour>
    <contour>
      <point x="420" y="535" type="line"/>
      <point x="280" y="146" type="line"/>
      <point x="128" y="535" type="line"/>
      <point x="-7" y="535" type="line"/>
      <point x="214" y="9" type="line"/>
      <point x="198" y="-26" type="line" smooth="yes"/>
      <point x="181" y="-63"/>
      <point x="154" y="-80"/>
      <point x="121" y="-80" type="curve" smooth="yes"/>
      <point x="96" y="-80"/>
      <point x="76" y="-72"/>
      <point x="51" y="-53" type="curve"/>
      <point x="-4" y="-152" type="line"/>
      <point x="36" y="-185"/>
      <point x="77" y="-200"/>
      <point x="128" y="-200" type="curve" smooth="yes"/>
      <point x="213" y="-200"/>
      <point x="276" y="-156"/>
      <point x="311" y="-67" type="curve" smooth="yes"/>
      <point x="550" y="535" type="line"/>
    </contour>
  </outline>
</glyph>
<glyph name="z" format="1">
  <advance width="541"/>
  <unicode hex="007A"/>
  <outline>
    <contour>
      <point x="271" y="534" type="move" name="abvm"/>
    </contour>
    <contour>
      <point x="52" y="534" type="line"/>
      <point x="52" y="429" type="line"/>
      <point x="336" y="428" type="line"/>
      <point x="42" y="86" type="line"/>
      <point x="42" y="0" type="line"/>
      <point x="506" y="-1" type="line"/>
      <point x="506" y="105" type="line"/>
      <point x="204" y="106" type="line"/>
      <point x="498" y="448" type="line"/>
      <point x="498" y="534" type="line"/>
    </contour>
  </outline>
</glyph>
<glyph name="braceleft" format="1">
  <advance width="337"/>
  <unicode hex="007B"/>
  <outline>
    <contour>
      <point x="317" y="-126.0" type="line"/>
      <point x="317" y="-22.0" type="line"/>
      <point x="248" y="-22"/>
      <point x="224" y="-2"/>
      <point x="224" y="47" type="curve" smooth="yes"/>
      <point x="224.0" y="197.0" type="line" smooth="yes"/>
      <point x="224.0" y="262.967671324"/>
      <point x="204.916668046" y="295.172524575"/>
      <point x="151.6585" y="308.68136" type="curve"/>
      <point x="204.916668046" y="322.827475425"/>
      <point x="224.0" y="355.032328676"/>
      <point x="224.0" y="421.0" type="curve" smooth="yes"/>
      <point x="224.0" y="571" type="line" smooth="yes"/>
      <point x="224" y="619"/>
      <point x="248" y="639"/>
      <point x="317" y="639" type="curve"/>
      <point x="317" y="744.0" type="line"/>
      <point x="268" y="744.0" type="line" smooth="yes"/>
      <point x="151" y="744"/>
      <point x="107" y="708"/>
      <point x="107" y="611" type="curve" smooth="yes"/>
      <point x="107.0" y="412.0" type="line" smooth="yes"/>
      <point x="107" y="376"/>
      <point x="94" y="362"/>
      <point x="65" y="362" type="curve" smooth="yes"/>
      <point x="32" y="362.0" type="line"/>
      <point x="32" y="255.0" type="line"/>
      <point x="65" y="255.0" type="line" smooth="yes"/>
      <point x="94" y="255"/>
      <point x="107" y="241"/>
      <point x="107" y="205" type="curve" smooth="yes"/>
      <point x="107.0" y="5" type="line" smooth="yes"/>
      <point x="107" y="-90"/>
      <point x="151" y="-126"/>
      <point x="268" y="-126" type="curve" smooth="yes"/>
    </contour>
  </outline>
</glyph>
<glyph name="bar" format="1">
  <advance width="277"/>
  <unicode hex="007C"/>
  <outline>
    <contour>
      <point x="89" y="808" type="line"/>
      <point x="89" y="-114" type="line"/>
      <point x="188" y="-114" type="line"/>
      <point x="188" y="808" type="line"/>
    </contour>
  </outline>
</glyph>
<glyph name="asciitilde" format="1">
  <advance width="502"/>
  <unicode hex="007E"/>
  <outline>
    <contour>
      <point x="64" y="250" type="curve"/>
      <point x="153" y="250" type="line"/>
      <point x="153" y="283"/>
      <point x="166" y="299"/>
      <point x="191" y="299" type="curve"/>
      <point x="229" y="299"/>
      <point x="270" y="245"/>
      <point x="338" y="245" type="curve"/>
      <point x="405" y="245"/>
      <point x="439" y="294"/>
      <point x="439" y="395" type="curve"/>
      <point x="350" y="395" type="line"/>
      <point x="350" y="362"/>
      <point x="337" y="346"/>
      <point x="313" y="346" type="curve"/>
      <point x="274" y="346"/>
      <point x="230" y="401"/>
      <point x="165" y="401" type="curve"/>
      <point x="98" y="401"/>
      <point x="64" y="351"/>
    </contour>
  </outline>
</glyph>
<glyph name="exclamdown" format="1">
  <advance width="247"/>
  <unicode hex="00A1"/>
  <outline>
    <contour>
      <point x="189" y="471" type="curve" smooth="yes"/>
      <point x="189" y="512"/>
      <point x="161" y="542"/>
      <point x="122" y="542" type="curve" smooth="yes"/>
      <point x="82" y="542"/>
      <point x="54" y="512"/>
      <point x="54" y="471" type="curve" smooth="yes"/>
      <point x="54" y="430"/>
      <point x="82" y="401"/>
      <point x="122" y="401" type="curve" smooth="yes"/>
      <point x="161" y="401"/>
      <point x="189" y="430"/>
    </contour>
    <contour>
      <point x="182" y="-159" type="line"/>
      <point x="182" y="16" type="line"/>
      <point x="160" y="305" type="line"/>
      <point x="79" y="305" type="line"/>
      <point x="58" y="16" type="line"/>
      <point x="58" y="-159" type="line"/>
    </contour>
  </outline>
</glyph>
<glyph name="cent" format="1">
  <advance width="558"/>
  <unicode hex="00A2"/>
  <note>
    cent
  </note>
  <outline>
    <contour>
      <point x="453" y="170" type="line"/>
      <point x="421" y="128"/>
      <point x="371" y="107"/>
      <point x="309" y="107" type="curve" smooth="yes"/>
      <point x="223" y="107"/>
      <point x="163" y="171"/>
      <point x="163" y="267" type="curve" smooth="yes"/>
      <point x="163" y="361"/>
      <point x="223" y="425"/>
      <point x="309" y="425" type="curve" smooth="yes"/>
      <point x="368" y="425"/>
      <point x="415" y="403"/>
      <point x="449" y="366" type="curve"/>
      <point x="528" y="441" type="line"/>
      <point x="490" y="490"/>
      <point x="433" y="523"/>
      <point x="363" y="535" type="curve"/>
      <point x="363" y="690" type="line"/>
      <point x="254" y="690" type="line"/>
      <point x="254" y="535" type="line"/>
      <point x="120" y="515"/>
      <point x="32" y="411"/>
      <point x="32" y="266" type="curve" smooth="yes"/>
      <point x="32" y="121"/>
      <point x="120" y="19"/>
      <point x="254" y="-1" type="curve"/>
      <point x="254" y="-146" type="line"/>
      <point x="363" y="-146" type="line"/>
      <point x="363" y="0" type="line"/>
      <point x="438" y="12"/>
      <point x="496" y="48"/>
      <point x="534" y="103" type="curve"/>
    </contour>
  </outline>
</glyph>
<glyph name="sterling" format="1">
  <advance width="550"/>
  <unicode hex="00A3"/>
  <note>
    sterling
  </note>
  <outline>
    <contour>
      <point x="524" y="109.0" type="line"/>
      <point x="250.0" y="109.0" type="line"/>
      <point x="250.0" y="292" type="line"/>
      <point x="424.0" y="292" type="line"/>
      <point x="424.0" y="388.0" type="line"/>
      <point x="250.0" y="388.0" type="line"/>
      <point x="250.0" y="477.0" type="line" smooth="yes"/>
      <point x="250" y="549"/>
      <point x="285" y="586"/>
      <point x="349" y="586" type="curve" smooth="yes"/>
      <point x="396" y="586"/>
      <point x="443" y="560"/>
      <point x="485" y="513" type="curve"/>
      <point x="537" y="617" type="line"/>
      <point x="485" y="674"/>
      <point x="413" y="706"/>
      <point x="336" y="706" type="curve" smooth="yes"/>
      <point x="195" y="706"/>
      <point x="116" y="624"/>
      <point x="116" y="480" type="curve" smooth="yes"/>
      <point x="116.0" y="388.0" type="line"/>
      <point x="35" y="388.0" type="line"/>
      <point x="35" y="292" type="line"/>
      <point x="116.0" y="292" type="line"/>
      <point x="116.0" y="109.0" type="line"/>
      <point x="35" y="109.0" type="line"/>
      <point x="35" y="0" type="line"/>
      <point x="524" y="0" type="line"/>
    </contour>
  </outline>
</glyph>
<glyph name="currency" format="1">
  <advance width="708"/>
  <unicode hex="00A4"/>
  <note>
    currency
  </note>
  <outline>
    <contour>
      <point x="577" y="464" type="curve"/>
      <point x="676" y="562" type="line"/>
      <point x="602" y="641" type="line"/>
      <point x="500" y="539" type="line"/>
      <point x="458" y="566"/>
      <point x="408" y="582"/>
      <point x="354" y="582" type="curve" smooth="yes"/>
      <point x="300" y="582"/>
      <point x="250" y="566"/>
      <point x="208" y="539" type="curve"/>
      <point x="106" y="641" type="line"/>
      <point x="32" y="562" type="line"/>
      <point x="131" y="463" type="line"/>
      <point x="104" y="422"/>
      <point x="88" y="373"/>
      <point x="88" y="320" type="curve" smooth="yes"/>
      <point x="88" y="266"/>
      <point x="105" y="216"/>
      <point x="134" y="174" type="curve"/>
      <point x="32" y="73" type="line"/>
      <point x="106" y="-5" type="line"/>
      <point x="212" y="100" type="line"/>
      <point x="253" y="74"/>
      <point x="302" y="59"/>
      <point x="354" y="59" type="curve" smooth="yes"/>
      <point x="406" y="59"/>
      <point x="455" y="74"/>
      <point x="497" y="100" type="curve"/>
      <point x="602" y="-5" type="line"/>
      <point x="676" y="73" type="line"/>
      <point x="575" y="174" type="line"/>
      <point x="604" y="216"/>
      <point x="621" y="266"/>
      <point x="621" y="320" type="curve" smooth="yes"/>
      <point x="621" y="373"/>
      <point x="605" y="422"/>
    </contour>
    <contour>
      <point x="191" y="320" type="curve" smooth="yes"/>
      <point x="191" y="404"/>
      <point x="264" y="473"/>
      <point x="354" y="473" type="curve" smooth="yes"/>
      <point x="444" y="473"/>
      <point x="518" y="404"/>
      <point x="518" y="320" type="curve" smooth="yes"/>
      <point x="518" y="237"/>
      <point x="444" y="169"/>
      <point x="354" y="169" type="curve" smooth="yes"/>
      <point x="264" y="169"/>
      <point x="191" y="237"/>
    </contour>
  </outline>
</glyph>
<glyph name="yen" format="1">
  <advance width="638"/>
  <unicode hex="00A5"/>
  <note>
    yen
  </note>
  <outline>
    <contour>
      <point x="649" y="700" type="line"/>
      <point x="513" y="700" type="line"/>
      <point x="326" y="371" type="line"/>
      <point x="134" y="700" type="line"/>
      <point x="-1" y="700" type="line"/>
      <point x="203" y="328" type="line"/>
      <point x="73" y="328" type="line"/>
      <point x="73" y="273" type="line"/>
      <point x="233" y="273" type="line"/>
      <point x="260" y="225" type="line"/>
      <point x="260" y="196" type="line"/>
      <point x="73" y="196" type="line"/>
      <point x="73" y="140" type="line"/>
      <point x="260" y="140" type="line"/>
      <point x="260" y="0" type="line"/>
      <point x="394" y="0" type="line"/>
      <point x="394" y="140" type="line"/>
      <point x="584" y="140" type="line"/>
      <point x="584" y="196" type="line"/>
      <point x="394" y="196" type="line"/>
      <point x="394" y="229" type="line"/>
      <point x="418" y="273" type="line"/>
      <point x="584" y="273" type="line"/>
      <point x="584" y="328" type="line"/>
      <point x="448" y="328" type="line"/>
    </contour>
  </outline>
</glyph>
<glyph name="brokenbar" format="1">
  <advance width="277"/>
  <unicode hex="00A6"/>
  <outline>
    <contour>
      <point x="89" y="808" type="line"/>
      <point x="89" y="463" type="line"/>
      <point x="188" y="463" type="line"/>
      <point x="188" y="808" type="line"/>
    </contour>
    <contour>
      <point x="89" y="231" type="line"/>
      <point x="89" y="-114" type="line"/>
      <point x="188" y="-114" type="line"/>
      <point x="188" y="231" type="line"/>
    </contour>
  </outline>
</glyph>
<glyph name="section" format="1">
  <advance width="512"/>
  <unicode hex="00A7"/>
  <outline>
    <contour>
      <point x="365" y="299" type="curve" smooth="yes"/>
      <point x="365" y="265"/>
      <point x="334" y="242"/>
      <point x="274" y="242" type="curve" smooth="yes"/>
      <point x="207" y="242"/>
      <point x="154" y="271"/>
      <point x="154" y="313" type="curve" smooth="yes"/>
      <point x="154" y="347"/>
      <point x="187" y="368"/>
      <point x="247" y="368" type="curve" smooth="yes"/>
      <point x="314" y="368"/>
      <point x="365" y="340"/>
    </contour>
    <contour>
      <point x="64" y="545" type="curve" smooth="yes"/>
      <point x="64" y="495"/>
      <point x="86" y="464"/>
      <point x="157" y="433" type="curve"/>
      <point x="84" y="413"/>
      <point x="39" y="367"/>
      <point x="39" y="305" type="curve" smooth="yes"/>
      <point x="39" y="123"/>
      <point x="340" y="164"/>
      <point x="340" y="63" type="curve" smooth="yes"/>
      <point x="340" y="32"/>
      <point x="301" y="7"/>
      <point x="244" y="7" type="curve" smooth="yes"/>
      <point x="184" y="7"/>
      <point x="118" y="31"/>
      <point x="59" y="75" type="curve"/>
      <point x="20" y="-10" type="line"/>
      <point x="83" y="-59"/>
      <point x="165" y="-86"/>
      <point x="247" y="-86" type="curve" smooth="yes"/>
      <point x="375" y="-86"/>
      <point x="458" y="-22"/>
      <point x="458" y="66" type="curve" smooth="yes"/>
      <point x="458" y="122"/>
      <point x="433" y="150"/>
      <point x="377" y="176" type="curve"/>
      <point x="437" y="196"/>
      <point x="482" y="248"/>
      <point x="482" y="306" type="curve" smooth="yes"/>
      <point x="482" y="491"/>
      <point x="179" y="447"/>
      <point x="179" y="550" type="curve" smooth="yes"/>
      <point x="179" y="581"/>
      <point x="213" y="602"/>
      <point x="267" y="602" type="curve" smooth="yes"/>
      <point x="311" y="602"/>
      <point x="365" y="586"/>
      <point x="423" y="554" type="curve"/>
      <point x="464" y="638" type="line"/>
      <point x="400" y="676"/>
      <point x="333" y="694"/>
      <point x="266" y="694" type="curve" smooth="yes"/>
      <point x="143" y="694"/>
      <point x="64" y="632"/>
    </contour>
  </outline>
</glyph>
<glyph name="dieresis" format="1">
  <advance width="383"/>
  <unicode hex="00A8"/>
  <outline>
    <contour>
      <point x="175" y="534" type="move" name="_abvm"/>
    </contour>
    <contour>
      <point x="19.086" y="692.491" type="curve" smooth="yes"/>
      <point x="19.086" y="653.199"/>
      <point x="46.769" y="623.73"/>
      <point x="84.275" y="623.73" type="curve" smooth="yes"/>
      <point x="122.674" y="623.73"/>
      <point x="150.357" y="653.199"/>
      <point x="150.357" y="692.491" type="curve" smooth="yes"/>
      <point x="150.357" y="732.676"/>
      <point x="122.674" y="761.252"/>
      <point x="84.275" y="761.252" type="curve" smooth="yes"/>
      <point x="46.769" y="761.252"/>
      <point x="19.086" y="732.676"/>
    </contour>
    <contour>
      <point x="201.086" y="692.491" type="curve" smooth="yes"/>
      <point x="201.086" y="653.199"/>
      <point x="228.769" y="623.73"/>
      <point x="266.275" y="623.73" type="curve" smooth="yes"/>
      <point x="304.674" y="623.73"/>
      <point x="332.357" y="653.199"/>
      <point x="332.357" y="692.491" type="curve" smooth="yes"/>
      <point x="332.357" y="732.676"/>
      <point x="304.674" y="761.252"/>
      <point x="266.275" y="761.252" type="curve" smooth="yes"/>
      <point x="228.769" y="761.252"/>
      <point x="201.086" y="732.676"/>
    </contour>
  </outline>
</glyph>
<glyph name="copyright" format="1">
  <advance width="740"/>
  <unicode hex="00A9"/>
  <outline>
    <contour>
      <point x="31" y="348" type="curve" smooth="yes"/>
      <point x="31" y="163"/>
      <point x="178" y="9"/>
      <point x="368" y="9" type="curve" smooth="yes"/>
      <point x="559" y="9"/>
      <point x="708" y="165"/>
      <point x="708" y="350" type="curve" smooth="yes"/>
      <point x="708" y="536"/>
      <point x="560" y="689"/>
      <point x="370" y="689" type="curve" smooth="yes"/>
      <point x="179" y="689"/>
      <point x="31" y="533"/>
    </contour>
    <contour>
      <point x="645" y="350" type="curve" smooth="yes"/>
      <point x="645" y="200"/>
      <point x="524" y="75"/>
      <point x="368" y="75" type="curve" smooth="yes"/>
      <point x="212" y="75"/>
      <point x="94" y="198"/>
      <point x="94" y="348" type="curve" smooth="yes"/>
      <point x="94" y="498"/>
      <point x="213" y="623"/>
      <point x="370" y="623" type="curve" smooth="yes"/>
      <point x="525" y="623"/>
      <point x="645" y="500"/>
    </contour>
    <contour>
      <point x="197" y="349" type="curve" smooth="yes"/>
      <point x="197" y="252"/>
      <point x="274" y="178"/>
      <point x="373" y="178" type="curve" smooth="yes"/>
      <point x="422" y="178"/>
      <point x="472" y="200"/>
      <point x="507" y="235" type="curve"/>
      <point x="468" y="278" type="line"/>
      <point x="443" y="254"/>
      <point x="408" y="239"/>
      <point x="377" y="239" type="curve" smooth="yes"/>
      <point x="313" y="239"/>
      <point x="264" y="288"/>
      <point x="264" y="350" type="curve" smooth="yes"/>
      <point x="264" y="412"/>
      <point x="313" y="460"/>
      <point x="377" y="460" type="curve" smooth="yes"/>
      <point x="410" y="460"/>
      <point x="443" y="443"/>
      <point x="468" y="417" type="curve"/>
      <point x="507" y="464" type="line"/>
      <point x="473" y="498"/>
      <point x="424" y="519"/>
      <point x="376" y="519" type="curve" smooth="yes"/>
      <point x="275" y="519"/>
      <point x="197" y="445"/>
    </contour>
  </outline>
</glyph>
<glyph name="ordfeminine" format="1">
  <advance width="387"/>
  <unicode hex="00AA"/>
  <outline>
    <contour>
      <point x="169" y="515" type="curve"/>
      <point x="136" y="515"/>
      <point x="115" y="532"/>
      <point x="115" y="559" type="curve"/>
      <point x="115" y="584"/>
      <point x="137" y="598"/>
      <point x="174" y="598" type="curve"/>
      <point x="251.0" y="598" type="line"/>
      <point x="251.0" y="560" type="line"/>
      <point x="234" y="528"/>
      <point x="205" y="515"/>
    </contour>
    <contour>
      <point x="251.0" y="458.0" type="line"/>
      <point x="340" y="458.0" type="line"/>
      <point x="340" y="666" type="line"/>
      <point x="341" y="737"/>
      <point x="288" y="780"/>
      <point x="199" y="780" type="curve"/>
      <point x="151" y="780"/>
      <point x="99" y="766"/>
      <point x="49" y="744" type="curve"/>
      <point x="71" y="681" type="line"/>
      <point x="109" y="699"/>
      <point x="146" y="709"/>
      <point x="178" y="709" type="curve"/>
      <point x="226" y="709"/>
      <point x="250" y="689"/>
      <point x="251" y="655" type="curve"/>
      <point x="251.0" y="644" type="line"/>
      <point x="156" y="644" type="line"/>
      <point x="75" y="643"/>
      <point x="29" y="611"/>
      <point x="29" y="551" type="curve"/>
      <point x="29" y="493"/>
      <point x="71" y="454"/>
      <point x="139" y="454" type="curve"/>
      <point x="189.455232073" y="454.0"/>
      <point x="227.3275093" y="471.881041097"/>
      <point x="251.0" y="506.06571" type="curve"/>
    </contour>
  </outline>
</glyph>
<glyph name="logicalnot" format="1">
  <advance width="565"/>
  <unicode hex="00AC"/>
  <outline>
    <contour>
      <point x="494.0" y="322" type="line"/>
      <point x="494.0" y="412.0" type="line"/>
      <point x="35" y="412.0" type="line"/>
      <point x="35" y="322" type="line"/>
      <point x="398.0" y="322" type="line"/>
      <point x="398.0" y="142" type="line"/>
      <point x="493.0" y="142" type="line"/>
      <point x="493.0" y="322" type="line"/>
    </contour>
  </outline>
</glyph>
<glyph name="registered" format="1">
  <advance width="740"/>
  <unicode hex="00AE"/>
  <outline>
    <contour>
      <point x="31" y="348" type="curve" smooth="yes"/>
      <point x="31" y="163"/>
      <point x="178" y="9"/>
      <point x="368" y="9" type="curve" smooth="yes"/>
      <point x="559" y="9"/>
      <point x="708" y="165"/>
      <point x="708" y="350" type="curve" smooth="yes"/>
      <point x="708" y="536"/>
      <point x="560" y="689"/>
      <point x="370" y="689" type="curve" smooth="yes"/>
      <point x="179" y="689"/>
      <point x="31" y="533"/>
    </contour>
    <contour>
      <point x="645" y="350" type="curve" smooth="yes"/>
      <point x="645" y="200"/>
      <point x="524" y="75"/>
      <point x="368" y="75" type="curve" smooth="yes"/>
      <point x="212" y="75"/>
      <point x="94" y="198"/>
      <point x="94" y="348" type="curve" smooth="yes"/>
      <point x="94" y="498"/>
      <point x="213" y="623"/>
      <point x="370" y="623" type="curve" smooth="yes"/>
      <point x="525" y="623"/>
      <point x="645" y="500"/>
    </contour>
    <contour>
      <point x="454" y="410" type="curve" smooth="yes"/>
      <point x="454" y="368"/>
      <point x="425" y="344"/>
      <point x="378" y="344" type="curve" smooth="yes"/>
      <point x="304" y="344" type="line"/>
      <point x="304" y="473" type="line"/>
      <point x="378" y="473" type="line" smooth="yes"/>
      <point x="425" y="473"/>
      <point x="454" y="451"/>
    </contour>
    <contour>
      <point x="304" y="291" type="line"/>
      <point x="378.0" y="291" type="line" smooth="yes"/>
      <point x="382.034776209" y="291.0"/>
      <point x="385.987821949" y="291.096786082"/>
      <point x="389.85804" y="291.30353" type="curve"/>
      <point x="449.0" y="193.0" type="line"/>
      <point x="521" y="193.0" type="line"/>
      <point x="446.67557" y="303.14343" type="line"/>
      <point x="490.327262595" y="321.233575411"/>
      <point x="514.0" y="358.870031357"/>
      <point x="514.0" y="411.0" type="curve" smooth="yes"/>
      <point x="514" y="484"/>
      <point x="465" y="525"/>
      <point x="378" y="525" type="curve" smooth="yes"/>
      <point x="241.0" y="525" type="line"/>
      <point x="241.0" y="193.0" type="line"/>
      <point x="304" y="193.0" type="line"/>
    </contour>
  </outline>
</glyph>
<glyph name="macron" format="1">
  <advance width="350"/>
  <unicode hex="00AF"/>
  <outline>
    <contour>
      <point x="175" y="534" type="move" name="_abvm"/>
    </contour>
    <contour>
      <point x="44" y="732" type="line"/>
      <point x="44" y="638" type="line"/>
      <point x="306" y="638" type="line"/>
      <point x="306" y="732" type="line"/>
    </contour>
  </outline>
</glyph>
<glyph name="degree" format="1">
  <advance width="354"/>
  <unicode hex="00B0"/>
  <outline>
    <contour>
      <point x="81" y="696" type="curve" smooth="yes"/>
      <point x="81" y="633"/>
      <point x="134" y="581"/>
      <point x="198" y="581" type="curve" smooth="yes"/>
      <point x="262" y="581"/>
      <point x="315" y="633"/>
      <point x="315" y="696" type="curve" smooth="yes"/>
      <point x="315" y="760"/>
      <point x="262" y="812"/>
      <point x="198" y="812" type="curve" smooth="yes"/>
      <point x="134" y="812"/>
      <point x="81" y="760"/>
    </contour>
    <contour>
      <point x="261" y="696" type="curve" smooth="yes"/>
      <point x="261" y="664"/>
      <point x="233" y="637"/>
      <point x="198" y="637" type="curve" smooth="yes"/>
      <point x="164" y="637"/>
      <point x="135" y="664"/>
      <point x="135" y="696" type="curve" smooth="yes"/>
      <point x="135" y="729"/>
      <point x="164" y="756"/>
      <point x="198" y="756" type="curve" smooth="yes"/>
      <point x="233" y="756"/>
      <point x="261" y="729"/>
    </contour>
  </outline>
</glyph>
<glyph name="threesuperior" format="1">
  <advance width="357"/>
  <unicode hex="00B3"/>
  <outline>
    <contour>
      <point x="191" y="531" type="line"/>
      <point x="306" y="644" type="line"/>
      <point x="306" y="699" type="line"/>
      <point x="30" y="699" type="line"/>
      <point x="30" y="628" type="line"/>
      <point x="199" y="628" type="line"/>
      <point x="91" y="522" type="line"/>
      <point x="91" y="471" type="line"/>
      <point x="156" y="471" type="line" smooth="yes"/>
      <point x="205" y="471"/>
      <point x="234" y="451"/>
      <point x="234" y="414" type="curve" smooth="yes"/>
      <point x="234" y="377"/>
      <point x="206" y="353"/>
      <point x="157" y="353" type="curve" smooth="yes"/>
      <point x="118" y="353"/>
      <point x="80" y="370"/>
      <point x="48" y="403" type="curve"/>
      <point x="10" y="330" type="line"/>
      <point x="48" y="301"/>
      <point x="107" y="281"/>
      <point x="164" y="281" type="curve" smooth="yes"/>
      <point x="263" y="281"/>
      <point x="326" y="337"/>
      <point x="326" y="415" type="curve" smooth="yes"/>
      <point x="326" y="480"/>
      <point x="279" y="520"/>
      <point x="213" y="528" type="curve" smooth="yes"/>
    </contour>
  </outline>
</glyph>
<glyph name="acute" format="1">
  <advance width="350"/>
  <unicode hex="00B4"/>
  <outline>
    <contour>
      <point x="130" y="534" type="move" name="_abvm"/>
    </contour>
    <contour>
      <point x="57" y="605" type="line"/>
      <point x="167" y="605" type="line"/>
      <point x="291" y="708" type="line"/>
      <point x="163" y="760" type="line"/>
    </contour>
  </outline>
</glyph>
<glyph name="mu" format="1">
  <advance width="678"/>
  <unicode hex="00B5"/>
  <outline>
    <contour>
      <point x="280.0" y="-5.0" type="curve" smooth="yes"/>
      <point x="364.806606207" y="-5.0"/>
      <point x="429.393038121" y="28.0522079795"/>
      <point x="466.0" y="99.27405" type="curve"/>
      <point x="466.0" y="0" type="line"/>
      <point x="597" y="0" type="line"/>
      <point x="597" y="535" type="line"/>
      <point x="466.0" y="535" type="line"/>
      <point x="466.0" y="271" type="line"/>
      <point x="466" y="185"/>
      <point x="416" y="119"/>
      <point x="332" y="118" type="curve" smooth="yes"/>
      <point x="260" y="118"/>
      <point x="217" y="163"/>
      <point x="217" y="238" type="curve" smooth="yes"/>
      <point x="217.0" y="535" type="line"/>
      <point x="86" y="535" type="line"/>
      <point x="86" y="-194.0" type="line"/>
      <point x="217.0" y="-194.0" type="line"/>
      <point x="217.0" y="3.28459" type="line"/>
      <point x="236.225810956" y="-2.17034152713"/>
      <point x="257.289080859" y="-5.0"/>
    </contour>
  </outline>
</glyph>
<glyph name="paragraph" format="1">
  <advance width="625"/>
  <unicode hex="00B6"/>
  <outline>
    <contour>
      <point x="227" y="742" type="line" smooth="yes"/>
      <point x="62" y="742"/>
      <point x="-3" y="642"/>
      <point x="-3" y="540" type="curve" smooth="yes"/>
      <point x="-3" y="464"/>
      <point x="36" y="345"/>
      <point x="189" y="345" type="curve" smooth="yes"/>
      <point x="198" y="345"/>
      <point x="208" y="345"/>
      <point x="218" y="346" type="curve"/>
      <point x="218" y="-108" type="line"/>
      <point x="317" y="-108" type="line"/>
      <point x="317" y="662" type="line"/>
      <point x="439" y="662" type="line"/>
      <point x="439" y="-108" type="line"/>
      <point x="538" y="-108" type="line"/>
      <point x="538" y="742" type="line"/>
    </contour>
  </outline>
</glyph>
<glyph name="cedilla" format="1">
  <advance width="350"/>
  <unicode hex="00B8"/>
  <outline>
    <contour>
      <point x="175" y="0" type="move" name="_blwm"/>
    </contour>
    <contour>
      <point x="236" y="12" type="line"/>
      <point x="160" y="12" type="line"/>
      <point x="117" y="-86" type="line"/>
      <point x="128" y="-84"/>
      <point x="141" y="-82"/>
      <point x="152" y="-82" type="curve" smooth="yes"/>
      <point x="184" y="-82"/>
      <point x="199" y="-100"/>
      <point x="199" y="-119" type="curve" smooth="yes"/>
      <point x="199" y="-139"/>
      <point x="183" y="-159"/>
      <point x="154" y="-159" type="curve" smooth="yes"/>
      <point x="135" y="-159"/>
      <point x="115" y="-151"/>
      <point x="99" y="-139" type="curve"/>
      <point x="74" y="-199" type="line"/>
      <point x="98" y="-216"/>
      <point x="132" y="-227"/>
      <point x="164" y="-227" type="curve" smooth="yes"/>
      <point x="227" y="-227"/>
      <point x="275" y="-190"/>
      <point x="275" y="-130" type="curve" smooth="yes"/>
      <point x="275" y="-87"/>
      <point x="247" y="-60"/>
      <point x="206" y="-50" type="curve"/>
    </contour>
  </outline>
</glyph>
<glyph name="onesuperior" format="1">
  <advance width="265"/>
  <unicode hex="00B9"/>
  <outline>
    <contour>
      <point x="191" y="700" type="line"/>
      <point x="15" y="700" type="line"/>
      <point x="15" y="623" type="line"/>
      <point x="97" y="623" type="line"/>
      <point x="97" y="285" type="line"/>
      <point x="191" y="285" type="line"/>
    </contour>
  </outline>
</glyph>
<glyph name="ordmasculine" format="1">
  <advance width="408"/>
  <unicode hex="00BA"/>
  <outline>
    <contour>
      <point x="27" y="617" type="curve" smooth="yes"/>
      <point x="27" y="520"/>
      <point x="98" y="455"/>
      <point x="204" y="455" type="curve" smooth="yes"/>
      <point x="309" y="455"/>
      <point x="381" y="520"/>
      <point x="381" y="617" type="curve" smooth="yes"/>
      <point x="381" y="714"/>
      <point x="309" y="779"/>
      <point x="204" y="779" type="curve" smooth="yes"/>
      <point x="98" y="779"/>
      <point x="27" y="714"/>
    </contour>
    <contour>
      <point x="289" y="616" type="curve" smooth="yes"/>
      <point x="289" y="563"/>
      <point x="254" y="528"/>
      <point x="204" y="528" type="curve" smooth="yes"/>
      <point x="154" y="528"/>
      <point x="119" y="563"/>
      <point x="119" y="616" type="curve" smooth="yes"/>
      <point x="119" y="669"/>
      <point x="154" y="704"/>
      <point x="204" y="704" type="curve" smooth="yes"/>
      <point x="254" y="704"/>
      <point x="289" y="669"/>
    </contour>
  </outline>
</glyph>
<glyph name="questiondown" format="1">
  <advance width="451"/>
  <unicode hex="00BF"/>
  <outline>
    <contour>
      <point x="306" y="471" type="curve" smooth="yes"/>
      <point x="306" y="512"/>
      <point x="278" y="542"/>
      <point x="239" y="542" type="curve" smooth="yes"/>
      <point x="199" y="542"/>
      <point x="171" y="512"/>
      <point x="171" y="471" type="curve" smooth="yes"/>
      <point x="171" y="430"/>
      <point x="199" y="401"/>
      <point x="239" y="401" type="curve" smooth="yes"/>
      <point x="278" y="401"/>
      <point x="306" y="430"/>
    </contour>
    <contour>
      <point x="345" y="46" type="line"/>
      <point x="343" y="-20"/>
      <point x="306" y="-53"/>
      <point x="245" y="-53" type="curve" smooth="yes"/>
      <point x="188" y="-53"/>
      <point x="151" y="-27"/>
      <point x="151" y="26" type="curve" smooth="yes"/>
      <point x="151" y="140"/>
      <point x="285" y="143"/>
      <point x="285" y="302" type="curve"/>
      <point x="186" y="302" type="line"/>
      <point x="186" y="172"/>
      <point x="30" y="161"/>
      <point x="30" y="5" type="curve" smooth="yes"/>
      <point x="30" y="-105"/>
      <point x="111" y="-164"/>
      <point x="234" y="-164" type="curve" smooth="yes"/>
      <point x="363" y="-164"/>
      <point x="443" y="-87"/>
      <point x="447" y="45" type="curve"/>
    </contour>
  </outline>
</glyph>
<glyph name="Aring" format="1">
  <advance width="747"/>
  <unicode hex="00C5"/>
  <outline>
    <contour>
      <point x="442" y="772" type="curve" smooth="yes"/>
      <point x="442" y="738"/>
      <point x="412" y="711"/>
      <point x="376" y="711" type="curve" smooth="yes"/>
      <point x="340" y="711"/>
      <point x="311" y="738"/>
      <point x="311" y="772" type="curve" smooth="yes"/>
      <point x="311" y="806"/>
      <point x="340" y="834"/>
      <point x="376" y="834" type="curve" smooth="yes"/>
      <point x="412" y="834"/>
      <point x="442" y="806"/>
    </contour>
    <contour>
      <point x="372.0" y="557" type="line"/>
      <point x="494.45601" y="263" type="line"/>
      <point x="249.01616" y="263" type="line"/>
    </contour>
    <contour>
      <point x="604" y="0" type="line"/>
      <point x="748.0" y="0" type="line"/>
      <point x="454.85982" y="677.22154" type="line"/>
      <point x="482.360390969" y="699.765944432"/>
      <point x="500.0" y="733.835517596"/>
      <point x="500.0" y="772.0" type="curve" smooth="yes"/>
      <point x="500" y="840"/>
      <point x="444" y="895"/>
      <point x="376" y="895" type="curve" smooth="yes"/>
      <point x="307" y="895"/>
      <point x="252" y="840"/>
      <point x="252" y="772" type="curve" smooth="yes"/>
      <point x="252.0" y="733.745329019"/>
      <point x="269.406594259" y="699.604943953"/>
      <point x="296.91999" y="677.09089" type="curve"/>
      <point x="-1" y="0" type="line"/>
      <point x="139" y="0" type="line"/>
      <point x="200.91023" y="148" type="line"/>
      <point x="542.35548" y="148" type="line"/>
    </contour>
  </outline>
</glyph>
<glyph name="AE" format="1">
  <advance width="1065"/>
  <unicode hex="00C6"/>
  <outline>
    <contour>
      <point x="739" y="0" type="move" name="blwm"/>
    </contour>
    <contour>
      <point x="1011" y="10" type="move" name="ogonek"/>
    </contour>
    <contour>
      <point x="630" y="700" type="move" name="abvm"/>
    </contour>
    <contour>
      <point x="468.0" y="590" type="line"/>
      <point x="491.0" y="590" type="line"/>
      <point x="491.0" y="269" type="line"/>
      <point x="289.54576" y="269" type="line"/>
    </contour>
    <contour>
      <point x="491.0" y="0" type="line"/>
      <point x="1015.0" y="0" type="line"/>
      <point x="1015.0" y="117.0" type="line"/>
      <point x="624" y="117.0" type="line"/>
      <point x="624" y="293" type="line"/>
      <point x="965.0" y="293" type="line"/>
      <point x="965.0" y="410.0" type="line"/>
      <point x="624" y="410.0" type="line"/>
      <point x="624" y="583" type="line"/>
      <point x="1003.0" y="583" type="line"/>
      <point x="1003.0" y="700.0" type="line"/>
      <point x="404.0" y="700.0" type="line"/>
      <point x="-1" y="0" type="line"/>
      <point x="140" y="0" type="line"/>
      <point x="231.17288" y="164" type="line"/>
      <point x="491.0" y="164" type="line"/>
    </contour>
  </outline>
</glyph>
<glyph name="Eth" format="1">
  <advance width="796"/>
  <unicode hex="00D0"/>
  <outline>
    <contour>
      <point x="395.0" y="0" type="line" smooth="yes"/>
      <point x="611" y="0"/>
      <point x="765" y="146"/>
      <point x="765" y="350" type="curve" smooth="yes"/>
      <point x="765" y="555"/>
      <point x="612" y="700"/>
      <point x="400" y="700" type="curve" smooth="yes"/>
      <point x="109.0" y="700.0" type="line"/>
      <point x="109.0" y="390.0" type="line"/>
      <point x="0" y="390.0" type="line"/>
      <point x="0" y="312" type="line"/>
      <point x="109.0" y="312" type="line"/>
      <point x="109.0" y="0" type="line"/>
    </contour>
    <contour>
      <point x="243.0" y="118.0" type="line"/>
      <point x="243.0" y="312" type="line"/>
      <point x="430.0" y="312" type="line"/>
      <point x="430.0" y="390.0" type="line"/>
      <point x="243.0" y="390.0" type="line"/>
      <point x="243.0" y="582" type="line"/>
      <point x="398.0" y="582" type="line" smooth="yes"/>
      <point x="529" y="582"/>
      <point x="628" y="486"/>
      <point x="628" y="349" type="curve" smooth="yes"/>
      <point x="628" y="213"/>
      <point x="532" y="118"/>
      <point x="403" y="118" type="curve" smooth="yes"/>
    </contour>
  </outline>
</glyph>
<glyph name="multiply" format="1">
  <advance width="502"/>
  <unicode hex="00D7"/>
  <outline>
    <contour>
      <point x="373.0" y="140" type="line"/>
      <point x="433.0" y="203.0" type="line"/>
      <point x="311.79479" y="325" type="line"/>
      <point x="433.0" y="447.0" type="line"/>
      <point x="373.0" y="510.0" type="line"/>
      <point x="250.5" y="386.69672" type="line"/>
      <point x="128" y="510.0" type="line"/>
      <point x="68" y="447.0" type="line"/>
      <point x="189.20521" y="325" type="line"/>
      <point x="68" y="203.0" type="line"/>
      <point x="128" y="140" type="line"/>
      <point x="250.5" y="263.30328" type="line"/>
    </contour>
  </outline>
</glyph>
<glyph name="Oslash" format="1">
  <advance width="809"/>
  <unicode hex="00D8"/>
  <outline>
    <contour>
      <point x="394" y="700" type="move" name="abvm"/>
    </contour>
    <contour>
      <point x="168.0" y="350.0" type="curve" smooth="yes"/>
      <point x="168" y="482"/>
      <point x="276" y="584"/>
      <point x="405" y="584" type="curve" smooth="yes"/>
      <point x="415.491581722" y="584.0"/>
      <point x="425.824413435" y="583.325312465"/>
      <point x="435.95492" y="582.00037" type="curve"/>
      <point x="286.66501" y="145.86727" type="line"/>
      <point x="216.443682519" y="186.445632774"/>
      <point x="168.0" y="262.000692027"/>
    </contour>
    <contour>
      <point x="405" y="114" type="curve" smooth="yes"/>
      <point x="387.877219207" y="114.0"/>
      <point x="371.094441027" y="115.861066937"/>
      <point x="354.86711" y="119.4155" type="curve"/>
      <point x="506.58955" y="561.2655" type="line"/>
      <point x="584.868949747" y="524.087789499"/>
      <point x="639.0" y="444.776901929"/>
      <point x="639.0" y="350.0" type="curve" smooth="yes"/>
      <point x="639" y="218"/>
      <point x="534" y="114"/>
    </contour>
    <contour>
      <point x="404.0" y="-6.0" type="curve" smooth="yes"/>
      <point x="615" y="-6"/>
      <point x="777" y="149"/>
      <point x="777" y="350" type="curve" smooth="yes"/>
      <point x="777.0" y="502.388852997"/>
      <point x="683.882930426" y="627.187463157"/>
      <point x="546.8924" y="678.63649" type="curve"/>
      <point x="592" y="810.0" type="line"/>
      <point x="514" y="810.0" type="line"/>
      <point x="475.63319" y="697.91584" type="line"/>
      <point x="452.541138945" y="701.919694963"/>
      <point x="428.603690214" y="704.0"/>
      <point x="404.0" y="704.0" type="curve" smooth="yes"/>
      <point x="193" y="704"/>
      <point x="31" y="552"/>
      <point x="31" y="350" type="curve" smooth="yes"/>
      <point x="31.0" y="203.429364814"/>
      <point x="117.142374645" y="81.3189100819"/>
      <point x="245.61128" y="25.93358" type="curve"/>
      <point x="196.0" y="-119.0" type="line"/>
      <point x="273" y="-119.0" type="line"/>
      <point x="315.0906" y="3.57732" type="line"/>
      <point x="343.448905298" y="-2.69784275302"/>
      <point x="373.202498762" y="-6.0"/>
    </contour>
  </outline>
</glyph>
<glyph name="Thorn" format="1">
  <advance width="681"/>
  <unicode hex="00DE"/>
  <outline>
    <contour>
      <point x="355.0" y="493.0" type="line" smooth="yes"/>
      <point x="463" y="493"/>
      <point x="519" y="447"/>
      <point x="519" y="363" type="curve" smooth="yes"/>
      <point x="519" y="276"/>
      <point x="463" y="229"/>
      <point x="355" y="229" type="curve" smooth="yes"/>
      <point x="220.0" y="229.0" type="line"/>
      <point x="220.0" y="493.0" type="line"/>
    </contour>
    <contour>
      <point x="360.0" y="119.0" type="line" smooth="yes"/>
      <point x="549" y="119"/>
      <point x="656" y="210"/>
      <point x="656" y="367" type="curve" smooth="yes"/>
      <point x="656" y="517"/>
      <point x="549" y="603"/>
      <point x="360" y="603" type="curve" smooth="yes"/>
      <point x="220.0" y="603" type="line"/>
      <point x="220.0" y="700.0" type="line"/>
      <point x="86" y="700.0" type="line"/>
      <point x="86" y="0" type="line"/>
      <point x="220.0" y="0" type="line"/>
      <point x="220.0" y="119.0" type="line"/>
    </contour>
  </outline>
</glyph>
<glyph name="germandbls" format="1">
  <advance width="656"/>
  <unicode hex="00DF"/>
  <outline>
    <contour>
      <point x="72" y="489" type="curve" smooth="yes"/>
      <point x="72" y="0" type="line"/>
      <point x="202" y="0" type="line"/>
      <point x="202" y="499" type="line" smooth="yes"/>
      <point x="202" y="588"/>
      <point x="250" y="643"/>
      <point x="330" y="643" type="curve" smooth="yes"/>
      <point x="399" y="643"/>
      <point x="445" y="601"/>
      <point x="445" y="533" type="curve" smooth="yes"/>
      <point x="445" y="461"/>
      <point x="394" y="418"/>
      <point x="313" y="418" type="curve"/>
      <point x="313" y="318" type="line"/>
      <point x="328" y="318" type="line" smooth="yes"/>
      <point x="424" y="318"/>
      <point x="485" y="279"/>
      <point x="485" y="210" type="curve" smooth="yes"/>
      <point x="485" y="144"/>
      <point x="432" y="100"/>
      <point x="349" y="100" type="curve" smooth="yes"/>
      <point x="294" y="100" type="line"/>
      <point x="294" y="0" type="line"/>
      <point x="345" y="0" type="line" smooth="yes"/>
      <point x="507" y="0"/>
      <point x="612" y="87"/>
      <point x="612" y="212" type="curve" smooth="yes"/>
      <point x="612" y="304"/>
      <point x="548" y="362"/>
      <point x="461" y="382" type="curve"/>
      <point x="528" y="410"/>
      <point x="571" y="477"/>
      <point x="571" y="552" type="curve" smooth="yes"/>
      <point x="571" y="671"/>
      <point x="473" y="748"/>
      <point x="331" y="748" type="curve" smooth="yes"/>
      <point x="170" y="748"/>
      <point x="72" y="647"/>
    </contour>
  </outline>
</glyph>
<glyph name="ae" format="1">
  <advance width="972"/>
  <unicode hex="00E6"/>
  <outline>
    <contour>
      <point x="487" y="535" type="move" name="abvm"/>
    </contour>
    <contour>
      <point x="674.0" y="444.0" type="curve" smooth="yes"/>
      <point x="754" y="444"/>
      <point x="808" y="387"/>
      <point x="810" y="307" type="curve"/>
      <point x="529.35741" y="307" type="line"/>
      <point x="541.14856372" y="387.806923628"/>
      <point x="596.257620646" y="444.0"/>
    </contour>
    <contour>
      <point x="256" y="85" type="curve" smooth="yes"/>
      <point x="198" y="85"/>
      <point x="160" y="118"/>
      <point x="160" y="168" type="curve" smooth="yes"/>
      <point x="160" y="215"/>
      <point x="198" y="241"/>
      <point x="266" y="241" type="curve" smooth="yes"/>
      <point x="398.64828" y="241.0" type="line"/>
      <point x="399.0" y="190.0" type="line"/>
      <point x="426.52352" y="183.54917" type="line"/>
      <point x="428.185718875" y="176.731928377"/>
      <point x="430.060183361" y="170.111011895"/>
      <point x="432.14271" y="163.67358" type="curve"/>
      <point x="405.0" y="185.0" type="line"/>
      <point x="374" y="113"/>
      <point x="321" y="85"/>
    </contour>
    <contour>
      <point x="676.0" y="-5.0" type="curve" smooth="yes"/>
      <point x="771" y="-5"/>
      <point x="848" y="29"/>
      <point x="901" y="87" type="curve"/>
      <point x="832.0" y="160" type="line"/>
      <point x="793" y="121"/>
      <point x="742" y="100"/>
      <point x="687" y="100" type="curve" smooth="yes"/>
      <point x="604.072519942" y="100.0"/>
      <point x="542.937148821" y="152.145403527"/>
      <point x="529.68517" y="238.0" type="curve"/>
      <point x="941.0" y="238.0" type="line"/>
      <point x="948" y="418"/>
      <point x="843" y="539"/>
      <point x="673" y="539" type="curve" smooth="yes"/>
      <point x="597.006672265" y="539.0"/>
      <point x="533.993541677" y="512.558857664"/>
      <point x="489.49958" y="466.38978" type="curve"/>
      <point x="452.917658326" y="513.749218574"/>
      <point x="389.735573297" y="540.0"/>
      <point x="304.0" y="540.0" type="curve" smooth="yes"/>
      <point x="226" y="540"/>
      <point x="147" y="517"/>
      <point x="69" y="477" type="curve"/>
      <point x="101.0" y="384.0" type="line"/>
      <point x="160" y="416"/>
      <point x="221" y="434"/>
      <point x="276" y="434" type="curve" smooth="yes"/>
      <point x="356" y="434"/>
      <point x="398" y="397"/>
      <point x="398" y="335" type="curve"/>
      <point x="398.17931" y="309" type="line"/>
      <point x="241.0" y="309" type="line" smooth="yes"/>
      <point x="112" y="308"/>
      <point x="37" y="254"/>
      <point x="37" y="157" type="curve" smooth="yes"/>
      <point x="37" y="60"/>
      <point x="110" y="-6"/>
      <point x="226" y="-6" type="curve" smooth="yes"/>
      <point x="331.069435069" y="-6.0"/>
      <point x="408.956140225" y="36.473015488"/>
      <point x="451.04805" y="119.10149" type="curve"/>
      <point x="492.893801546" y="41.5717242361"/>
      <point x="571.415363257" y="-5.0"/>
    </contour>
  </outline>
</glyph>
<glyph name="eth" format="1">
  <advance width="595"/>
  <unicode hex="00F0"/>
  <outline>
    <contour>
      <point x="283" y="-6" type="curve" smooth="yes"/>
      <point x="453" y="-6"/>
      <point x="563" y="103"/>
      <point x="563" y="271" type="curve" smooth="yes"/>
      <point x="563.0" y="390.009852559"/>
      <point x="510.481087552" y="506.039908666"/>
      <point x="420.21931" y="599.98634" type="curve"/>
      <point x="516" y="632" type="line"/>
      <point x="496.0" y="699.0" type="line"/>
      <point x="361.39694" y="653.76753" type="line"/>
      <point x="315.514280222" y="690.678438389"/>
      <point x="262.96892077" y="722.621901045"/>
      <point x="205.0" y="748.0" type="curve"/>
      <point x="118.0" y="689" type="line"/>
      <point x="162.127738029" y="667.807073183"/>
      <point x="203.895572865" y="642.231469008"/>
      <point x="241.90881" y="613.61434" type="curve"/>
      <point x="127.0" y="575" type="line"/>
      <point x="148" y="509.0" type="line"/>
      <point x="303.90359" y="561.10908" type="line"/>
      <point x="365.829348555" y="502.019857047"/>
      <point x="411.879261685" y="435.070001909"/>
      <point x="433.0" y="369.0" type="curve"/>
      <point x="401" y="415"/>
      <point x="333" y="444"/>
      <point x="260" y="444" type="curve" smooth="yes"/>
      <point x="122" y="444"/>
      <point x="33" y="358"/>
      <point x="33" y="225" type="curve" smooth="yes"/>
      <point x="33" y="85"/>
      <point x="131" y="-6"/>
    </contour>
    <contour>
      <point x="424" y="228" type="curve" smooth="yes"/>
      <point x="424" y="156"/>
      <point x="371" y="109"/>
      <point x="290" y="109" type="curve" smooth="yes"/>
      <point x="210" y="109"/>
      <point x="158" y="157"/>
      <point x="158" y="232" type="curve" smooth="yes"/>
      <point x="158" y="304"/>
      <point x="209" y="350"/>
      <point x="290" y="350" type="curve" smooth="yes"/>
      <point x="371" y="350"/>
      <point x="424" y="302"/>
    </contour>
  </outline>
</glyph>
<glyph name="divide" format="1">
  <advance width="502"/>
  <unicode hex="00F7"/>
  <outline>
    <contour>
      <point x="179.086" y="510.491" type="curve" smooth="yes"/>
      <point x="179.086" y="471.199"/>
      <point x="206.769" y="441.73"/>
      <point x="244.275" y="441.73" type="curve" smooth="yes"/>
      <point x="282.674" y="441.73"/>
      <point x="310.357" y="471.199"/>
      <point x="310.357" y="510.491" type="curve" smooth="yes"/>
      <point x="310.357" y="550.676"/>
      <point x="282.674" y="579.252"/>
      <point x="244.275" y="579.252" type="curve" smooth="yes"/>
      <point x="206.769" y="579.252"/>
      <point x="179.086" y="550.676"/>
    </contour>
    <contour>
      <point x="35" y="370" type="line"/>
      <point x="35" y="280" type="line"/>
      <point x="467" y="280" type="line"/>
      <point x="467" y="370" type="line"/>
    </contour>
    <contour>
      <point x="179.086" y="154.491" type="curve" smooth="yes"/>
      <point x="179.086" y="115.199"/>
      <point x="206.769" y="85.73"/>
      <point x="244.275" y="85.73" type="curve" smooth="yes"/>
      <point x="282.674" y="85.73"/>
      <point x="310.357" y="115.199"/>
      <point x="310.357" y="154.491" type="curve" smooth="yes"/>
      <point x="310.357" y="194.676"/>
      <point x="282.674" y="223.252"/>
      <point x="244.275" y="223.252" type="curve" smooth="yes"/>
      <point x="206.769" y="223.252"/>
      <point x="179.086" y="194.676"/>
    </contour>
  </outline>
</glyph>
<glyph name="oslash" format="1">
  <advance width="629"/>
  <unicode hex="00F8"/>
  <outline>
    <contour>
      <point x="314" y="534" type="move" name="abvm"/>
    </contour>
    <contour>
      <point x="155.0" y="266.0" type="curve" smooth="yes"/>
      <point x="155" y="369"/>
      <point x="220" y="438"/>
      <point x="314" y="438" type="curve" smooth="yes"/>
      <point x="323.065567493" y="438.0"/>
      <point x="331.874575629" y="437.34434831"/>
      <point x="340.3909" y="436.05352" type="curve"/>
      <point x="235.77797" y="112.23257" type="line"/>
      <point x="185.849596475" y="139.744820525"/>
      <point x="155.0" y="195.04135885"/>
    </contour>
    <contour>
      <point x="314" y="93" type="curve" smooth="yes"/>
      <point x="304.779361993" y="93.0"/>
      <point x="295.837762554" y="93.6735413726"/>
      <point x="287.20918" y="94.99484" type="curve"/>
      <point x="391.86569" y="418.95068" type="line"/>
      <point x="441.712029676" y="391.717129437"/>
      <point x="473.0" y="336.917587378"/>
      <point x="473.0" y="266.0" type="curve" smooth="yes"/>
      <point x="473" y="163"/>
      <point x="407" y="93"/>
    </contour>
    <contour>
      <point x="314.0" y="-5.0" type="curve" smooth="yes"/>
      <point x="482" y="-5"/>
      <point x="596" y="105"/>
      <point x="596" y="268" type="curve" smooth="yes"/>
      <point x="596.0" y="391.115002088"/>
      <point x="530.158945806" y="483.619689507"/>
      <point x="424.81219" y="520.93393" type="curve"/>
      <point x="472.0" y="667" type="line"/>
      <point x="415.0" y="667" type="line"/>
      <point x="372.15198" y="534.3674" type="line"/>
      <point x="353.618154996" y="537.424259073"/>
      <point x="334.199398645" y="539.0"/>
      <point x="314.0" y="539.0" type="curve" smooth="yes"/>
      <point x="147" y="539"/>
      <point x="32" y="430"/>
      <point x="32" y="268" type="curve" smooth="yes"/>
      <point x="32.0" y="144.057490951"/>
      <point x="98.491051157" y="50.7586837386"/>
      <point x="203.77578" y="13.17237" type="curve"/>
      <point x="153" y="-144" type="line"/>
      <point x="210.0" y="-144" type="line"/>
      <point x="256.40206" y="-0.36615" type="line"/>
      <point x="274.785161539" y="-3.42553947814"/>
      <point x="294.020435555" y="-5.0"/>
    </contour>
  </outline>
</glyph>
<glyph name="Aogonek" format="1">
  <advance width="747"/>
  <unicode hex="0104"/>
  <outline>
    <contour>
      <point x="307" y="700" type="line"/>
      <point x="0" y="0" type="line"/>
      <point x="139" y="0" type="line"/>
      <point x="203" y="148" type="line"/>
      <point x="542" y="148" type="line"/>
      <point x="605" y="0" type="line"/>
      <point x="645" y="0" type="line"/>
      <point x="613" y="-45"/>
      <point x="594" y="-84"/>
      <point x="594" y="-122" type="curve" smooth="yes"/>
      <point x="594" y="-180"/>
      <point x="637" y="-202"/>
      <point x="676" y="-202" type="curve" smooth="yes"/>
      <point x="714" y="-202"/>
      <point x="751" y="-180"/>
      <point x="774" y="-141" type="curve"/>
      <point x="738" y="-98" type="line"/>
      <point x="724" y="-117"/>
      <point x="708" y="-130"/>
      <point x="691" y="-130" type="curve" smooth="yes"/>
      <point x="674" y="-130"/>
      <point x="663" y="-119"/>
      <point x="663" y="-101" type="curve" smooth="yes"/>
      <point x="663" y="-79"/>
      <point x="678" y="-45"/>
      <point x="711" y="0" type="curve"/>
      <point x="749" y="0" type="line"/>
      <point x="446" y="700" type="line"/>
    </contour>
    <contour>
      <point x="498" y="263" type="line"/>
      <point x="247" y="263" type="line"/>
      <point x="372" y="557" type="line"/>
    </contour>
  </outline>
</glyph>
<glyph name="aogonek" format="1">
  <advance width="594"/>
  <unicode hex="0105"/>
  <outline>
    <contour>
      <point x="69" y="474" type="curve"/>
      <point x="116" y="384" type="line"/>
      <point x="171" y="417"/>
      <point x="225" y="434"/>
      <point x="274" y="434" type="curve" smooth="yes"/>
      <point x="355" y="434"/>
      <point x="395" y="397"/>
      <point x="396" y="335" type="curve"/>
      <point x="396" y="321" type="line"/>
      <point x="239" y="321" type="line" smooth="yes"/>
      <point x="110" y="320"/>
      <point x="37" y="259"/>
      <point x="37" y="160" type="curve" smooth="yes"/>
      <point x="37" y="65"/>
      <point x="108" y="-6"/>
      <point x="224" y="-6" type="curve" smooth="yes"/>
      <point x="300" y="-6"/>
      <point x="360" y="17"/>
      <point x="397" y="64" type="curve"/>
      <point x="397" y="0" type="line"/>
      <point x="425" y="0" type="line"/>
      <point x="391" y="-45"/>
      <point x="372" y="-84"/>
      <point x="372" y="-122" type="curve" smooth="yes"/>
      <point x="372" y="-180"/>
      <point x="414" y="-202"/>
      <point x="454" y="-202" type="curve" smooth="yes"/>
      <point x="493" y="-202"/>
      <point x="529" y="-180"/>
      <point x="552" y="-141" type="curve"/>
      <point x="516" y="-98" type="line"/>
      <point x="502" y="-117"/>
      <point x="486" y="-130"/>
      <point x="469" y="-130" type="curve" smooth="yes"/>
      <point x="452" y="-130"/>
      <point x="441" y="-119"/>
      <point x="441" y="-101" type="curve" smooth="yes"/>
      <point x="441" y="-79"/>
      <point x="456" y="-45"/>
      <point x="490" y="0" type="curve"/>
      <point x="525" y="0" type="line"/>
      <point x="525" y="350" type="line" smooth="yes"/>
      <point x="524" y="469"/>
      <point x="444" y="540"/>
      <point x="304" y="540" type="curve" smooth="yes"/>
      <point x="205" y="540"/>
      <point x="146" y="517"/>
    </contour>
    <contour>
      <point x="397" y="184" type="line"/>
      <point x="392" y="136"/>
      <point x="329" y="94"/>
      <point x="256" y="94" type="curve" smooth="yes"/>
      <point x="196" y="94"/>
      <point x="160" y="123"/>
      <point x="160" y="168" type="curve" smooth="yes"/>
      <point x="160" y="215"/>
      <point x="192" y="234"/>
      <point x="261" y="234" type="curve" smooth="yes"/>
      <point x="397" y="234" type="line"/>
    </contour>
  </outline>
</glyph>
<glyph name="dcroat" format="1">
  <advance width="684"/>
  <unicode hex="0111"/>
  <outline>
    <contour>
      <point x="467" y="266" type="curve" smooth="yes"/>
      <point x="467" y="170"/>
      <point x="405" y="103"/>
      <point x="315" y="103" type="curve" smooth="yes"/>
      <point x="225" y="103"/>
      <point x="164" y="170"/>
      <point x="163" y="266" type="curve" smooth="yes"/>
      <point x="164" y="361"/>
      <point x="226" y="429"/>
      <point x="315" y="429" type="curve" smooth="yes"/>
      <point x="405" y="429"/>
      <point x="467" y="362"/>
    </contour>
    <contour>
      <point x="467.0" y="0" type="line"/>
      <point x="598" y="0" type="line"/>
      <point x="598" y="609" type="line"/>
      <point x="665" y="609" type="line"/>
      <point x="665" y="683" type="line"/>
      <point x="598" y="683" type="line"/>
      <point x="598" y="742.0" type="line"/>
      <point x="467.0" y="742.0" type="line"/>
      <point x="467.0" y="683" type="line"/>
      <point x="371.0" y="683" type="line"/>
      <point x="371.0" y="609" type="line"/>
      <point x="467.0" y="609" type="line"/>
      <point x="467.0" y="447.15518" type="line"/>
      <point x="428.200263878" y="506.633315194"/>
      <point x="365.564720418" y="540.0"/>
      <point x="284.0" y="540.0" type="curve" smooth="yes"/>
      <point x="134" y="540"/>
      <point x="32" y="431"/>
      <point x="32" y="269" type="curve" smooth="yes"/>
      <point x="32" y="106"/>
      <point x="134" y="-6"/>
      <point x="286" y="-6" type="curve" smooth="yes"/>
      <point x="366.997074578" y="-6.0"/>
      <point x="428.694762028" y="27.2202565334"/>
      <point x="467.0" y="86.38775" type="curve"/>
    </contour>
  </outline>
</glyph>
<glyph name="Eogonek" format="1">
  <advance width="669"/>
  <unicode hex="0118"/>
  <outline>
    <contour>
      <point x="86" y="700" type="line"/>
      <point x="86" y="0" type="line"/>
      <point x="485" y="0" type="line"/>
      <point x="452" y="-47"/>
      <point x="434" y="-85"/>
      <point x="434" y="-122" type="curve" smooth="yes"/>
      <point x="434" y="-180"/>
      <point x="476" y="-202"/>
      <point x="516" y="-202" type="curve" smooth="yes"/>
      <point x="555" y="-202"/>
      <point x="591" y="-180"/>
      <point x="614" y="-141" type="curve"/>
      <point x="578" y="-98" type="line"/>
      <point x="564" y="-117"/>
      <point x="548" y="-130"/>
      <point x="531" y="-130" type="curve" smooth="yes"/>
      <point x="515" y="-130"/>
      <point x="503" y="-119"/>
      <point x="503" y="-101" type="curve" smooth="yes"/>
      <point x="503" y="-79"/>
      <point x="517" y="-47"/>
      <point x="551" y="0" type="curve"/>
      <point x="618" y="0" type="line"/>
      <point x="618" y="110" type="line"/>
      <point x="220" y="110" type="line"/>
      <point x="220" y="300" type="line"/>
      <point x="568" y="300" type="line"/>
      <point x="568" y="410" type="line"/>
      <point x="220" y="410" type="line"/>
      <point x="220" y="590" type="line"/>
      <point x="607" y="590" type="line"/>
      <point x="607" y="700" type="line"/>
    </contour>
  </outline>
</glyph>
<glyph name="eogonek" format="1">
  <advance width="592"/>
  <unicode hex="0119"/>
  <outline>
    <contour>
      <point x="32" y="268" type="curve" smooth="yes"/>
      <point x="32" y="104"/>
      <point x="142" y="-5"/>
      <point x="303" y="-5" type="curve" smooth="yes"/>
      <point x="346" y="-5"/>
      <point x="382" y="4"/>
      <point x="418" y="25" type="curve"/>
      <point x="379" y="-28"/>
      <point x="357" y="-78"/>
      <point x="357" y="-121" type="curve" smooth="yes"/>
      <point x="357" y="-180"/>
      <point x="399" y="-202"/>
      <point x="439" y="-202" type="curve" smooth="yes"/>
      <point x="479" y="-202"/>
      <point x="514" y="-178"/>
      <point x="536" y="-141" type="curve"/>
      <point x="500" y="-98" type="line"/>
      <point x="488" y="-116"/>
      <point x="472" y="-130"/>
      <point x="454" y="-130" type="curve" smooth="yes"/>
      <point x="437" y="-130"/>
      <point x="426" y="-120"/>
      <point x="426" y="-99" type="curve" smooth="yes"/>
      <point x="426" y="-54"/>
      <point x="475" y="21"/>
      <point x="532" y="87" type="curve"/>
      <point x="463" y="160" type="line"/>
      <point x="424" y="121"/>
      <point x="372" y="99"/>
      <point x="318" y="99" type="curve" smooth="yes"/>
      <point x="235" y="99"/>
      <point x="182" y="148"/>
      <point x="164" y="222" type="curve"/>
      <point x="560" y="222" type="line"/>
      <point x="573" y="420"/>
      <point x="483" y="543"/>
      <point x="304" y="539" type="curve" smooth="yes"/>
      <point x="130" y="535"/>
      <point x="32" y="422"/>
    </contour>
    <contour>
      <point x="442" y="309" type="curve"/>
      <point x="162" y="309" type="line"/>
      <point x="170" y="385"/>
      <point x="228" y="438"/>
      <point x="307" y="438" type="curve" smooth="yes"/>
      <point x="386" y="438"/>
      <point x="439" y="385"/>
    </contour>
  </outline>
</glyph>
<glyph name="gcommaaccent" format="1">
  <advance width="642"/>
  <unicode hex="0123"/>
  <outline>
    <contour>
      <point x="314" y="581" type="curve" smooth="yes"/>
      <point x="353" y="581"/>
      <point x="382" y="611"/>
      <point x="382" y="651" type="curve" smooth="yes"/>
      <point x="382.0" y="674.163194484"/>
      <point x="373.181236379" y="694.857135154"/>
      <point x="354.07715" y="707.58516" type="curve"/>
      <point x="393.0" y="801.0" type="line"/>
      <point x="328" y="801.0" type="line"/>
      <point x="267" y="708.0" type="line" smooth="yes"/>
      <point x="255" y="691"/>
      <point x="247" y="673"/>
      <point x="247" y="651" type="curve" smooth="yes"/>
      <point x="247" y="607"/>
      <point x="279" y="581"/>
    </contour>
    <contour>
      <point x="441" y="282" type="curve" smooth="yes"/>
      <point x="441" y="192"/>
      <point x="382" y="129"/>
      <point x="299" y="129" type="curve" smooth="yes"/>
      <point x="213" y="129"/>
      <point x="156" y="192"/>
      <point x="155" y="282" type="curve" smooth="yes"/>
      <point x="156" y="371"/>
      <point x="214" y="435"/>
      <point x="299" y="435" type="curve" smooth="yes"/>
      <point x="382" y="435"/>
      <point x="441" y="372"/>
    </contour>
    <contour>
      <point x="290" y="-199" type="curve" smooth="yes"/>
      <point x="459" y="-199"/>
      <point x="571" y="-102"/>
      <point x="571" y="51" type="curve" smooth="yes"/>
      <point x="571" y="535" type="line"/>
      <point x="441.0" y="535" type="line"/>
      <point x="441.0" y="452.42209" type="line"/>
      <point x="404.07313744" y="508.509830066"/>
      <point x="344.395382106" y="539.568082479"/>
      <point x="266.0" y="539.0" type="curve" smooth="yes"/>
      <point x="127" y="539"/>
      <point x="32" y="436"/>
      <point x="32" y="285" type="curve" smooth="yes"/>
      <point x="32" y="131"/>
      <point x="128" y="27"/>
      <point x="270" y="27" type="curve" smooth="yes"/>
      <point x="346.580453784" y="27.0"/>
      <point x="404.770724701" y="57.7559954836"/>
      <point x="441.0" y="113.21513" type="curve"/>
      <point x="441.0" y="48.0" type="line" smooth="yes"/>
      <point x="441" y="-37"/>
      <point x="379" y="-90"/>
      <point x="283" y="-90" type="curve" smooth="yes"/>
      <point x="220" y="-90"/>
      <point x="166" y="-70"/>
      <point x="116" y="-34" type="curve"/>
      <point x="64" y="-128" type="line"/>
      <point x="128" y="-171"/>
      <point x="204" y="-199"/>
    </contour>
  </outline>
</glyph>
<glyph name="Hbar" format="1">
  <advance width="855"/>
  <unicode hex="0126"/>
  <outline>
    <contour>
      <point x="253.0" y="401.0" type="line"/>
      <point x="253.0" y="514" type="line"/>
      <point x="602" y="514" type="line"/>
      <point x="602" y="401.0" type="line"/>
    </contour>
    <contour>
      <point x="253.0" y="284" type="line"/>
      <point x="602" y="284" type="line"/>
      <point x="602" y="0" type="line"/>
      <point x="736.0" y="0" type="line"/>
      <point x="736.0" y="514" type="line"/>
      <point x="825.0" y="514" type="line"/>
      <point x="825.0" y="603" type="line"/>
      <point x="736.0" y="603" type="line"/>
      <point x="736.0" y="700.0" type="line"/>
      <point x="602" y="700.0" type="line"/>
      <point x="602" y="603" type="line"/>
      <point x="253.0" y="603" type="line"/>
      <point x="253.0" y="700.0" type="line"/>
      <point x="119.0" y="700.0" type="line"/>
      <point x="119.0" y="603" type="line"/>
      <point x="30.0" y="603" type="line"/>
      <point x="30.0" y="514" type="line"/>
      <point x="119.0" y="514" type="line"/>
      <point x="119.0" y="0" type="line"/>
      <point x="253.0" y="0" type="line"/>
    </contour>
  </outline>
</glyph>
<glyph name="Iogonek" format="1">
  <advance width="306"/>
  <unicode hex="012E"/>
  <outline>
    <contour>
      <point x="220" y="-98" type="line"/>
      <point x="205" y="-117"/>
      <point x="190" y="-130"/>
      <point x="172" y="-130" type="curve" smooth="yes"/>
      <point x="156" y="-130"/>
      <point x="145" y="-119"/>
      <point x="145" y="-101" type="curve" smooth="yes"/>
      <point x="145" y="-79"/>
      <point x="160" y="-45"/>
      <point x="192" y="0" type="curve"/>
      <point x="220" y="0" type="line"/>
      <point x="220" y="700" type="line"/>
      <point x="86" y="700" type="line"/>
      <point x="86" y="0" type="line"/>
      <point x="127" y="0" type="line"/>
      <point x="95" y="-45"/>
      <point x="76" y="-84"/>
      <point x="76" y="-122" type="curve" smooth="yes"/>
      <point x="76" y="-180"/>
      <point x="118" y="-202"/>
      <point x="157" y="-202" type="curve" smooth="yes"/>
      <point x="196" y="-202"/>
      <point x="232" y="-180"/>
      <point x="256" y="-141" type="curve"/>
    </contour>
  </outline>
</glyph>
<glyph name="iogonek" format="1">
  <advance width="273"/>
  <unicode hex="012F"/>
  <outline>
    <contour>
      <point x="64" y="687" type="curve" smooth="yes"/>
      <point x="64" y="642"/>
      <point x="96" y="610"/>
      <point x="138" y="610" type="curve" smooth="yes"/>
      <point x="181" y="610"/>
      <point x="211" y="642"/>
      <point x="211" y="687" type="curve" smooth="yes"/>
      <point x="211" y="733"/>
      <point x="181" y="765"/>
      <point x="138" y="765" type="curve" smooth="yes"/>
      <point x="96" y="765"/>
      <point x="64" y="733"/>
    </contour>
    <contour>
      <point x="73" y="535" type="line"/>
      <point x="73" y="0" type="line"/>
      <point x="110" y="0" type="line"/>
      <point x="78" y="-45"/>
      <point x="59" y="-84"/>
      <point x="59" y="-122" type="curve" smooth="yes"/>
      <point x="59" y="-180"/>
      <point x="101" y="-202"/>
      <point x="140" y="-202" type="curve" smooth="yes"/>
      <point x="179" y="-202"/>
      <point x="215" y="-180"/>
      <point x="239" y="-141" type="curve"/>
      <point x="203" y="-98" type="line"/>
      <point x="188" y="-117"/>
      <point x="173" y="-130"/>
      <point x="156" y="-130" type="curve" smooth="yes"/>
      <point x="139" y="-130"/>
      <point x="128" y="-119"/>
      <point x="128" y="-101" type="curve" smooth="yes"/>
      <point x="128" y="-79"/>
      <point x="143" y="-45"/>
      <point x="175" y="0" type="curve"/>
      <point x="204" y="0" type="line"/>
      <point x="204" y="535" type="line"/>
    </contour>
  </outline>
</glyph>
<glyph name="idotless" format="1">
  <advance width="291"/>
  <unicode hex="0131"/>
  <outline>
    <contour>
      <point x="255" y="10" type="move" name="ogonek"/>
    </contour>
    <contour>
      <point x="146" y="535" type="move" name="abvm"/>
    </contour>
    <contour>
      <point x="81" y="535" type="line"/>
      <point x="81" y="0" type="line"/>
      <point x="211" y="0" type="line"/>
      <point x="211" y="535" type="line"/>
    </contour>
  </outline>
</glyph>
<glyph name="kgreenlandic" format="1">
  <advance width="600"/>
  <unicode hex="0138"/>
  <outline>
    <contour>
      <point x="297" y="0" type="move" name="blwm"/>
    </contour>
    <contour>
      <point x="255" y="10" type="move" name="ogonek"/>
    </contour>
    <contour>
      <point x="146" y="535" type="move" name="abvm"/>
    </contour>
    <contour>
      <point x="438.0" y="0" type="line"/>
      <point x="593" y="0" type="line"/>
      <point x="383.06093" y="328.68288" type="line"/>
      <point x="580" y="535" type="line"/>
      <point x="431.0" y="535" type="line"/>
      <point x="211.0" y="312.1179" type="line"/>
      <point x="211.0" y="535" type="line"/>
      <point x="81" y="535" type="line"/>
      <point x="81" y="0" type="line"/>
      <point x="211.0" y="0" type="line"/>
      <point x="211.0" y="148.42857" type="line"/>
      <point x="292.52322" y="233.83385" type="line"/>
    </contour>
  </outline>
</glyph>
<glyph name="ldot" format="1">
  <advance width="348"/>
  <unicode hex="0140"/>
  <outline>
    <contour>
      <point x="86" y="742" type="line"/>
      <point x="86" y="0" type="line"/>
      <point x="217" y="0" type="line"/>
      <point x="217" y="742" type="line"/>
    </contour>
    <contour>
      <point x="247" y="310" type="curve" smooth="yes"/>
      <point x="247" y="270"/>
      <point x="275" y="240"/>
      <point x="315" y="240" type="curve" smooth="yes"/>
      <point x="353" y="240"/>
      <point x="382" y="270"/>
      <point x="382" y="310" type="curve" smooth="yes"/>
      <point x="382" y="352"/>
      <point x="353" y="381"/>
      <point x="315" y="381" type="curve" smooth="yes"/>
      <point x="275" y="381"/>
      <point x="247" y="352"/>
    </contour>
  </outline>
</glyph>
<glyph name="Lslash" format="1">
  <advance width="558"/>
  <unicode hex="0141"/>
  <outline>
    <contour>
      <point x="539" y="0" type="line"/>
      <point x="539" y="121.0" type="line"/>
      <point x="237.0" y="121.0" type="line"/>
      <point x="237.0" y="395.78061" type="line"/>
      <point x="415.0" y="448.0" type="line"/>
      <point x="392.0" y="534" type="line"/>
      <point x="237.0" y="488.52806" type="line"/>
      <point x="237.0" y="700.0" type="line"/>
      <point x="103.0" y="700.0" type="line"/>
      <point x="103.0" y="449.21684" type="line"/>
      <point x="0" y="419.0" type="line"/>
      <point x="23.0" y="333" type="line"/>
      <point x="103.0" y="356.46939" type="line"/>
      <point x="103.0" y="0" type="line"/>
    </contour>
  </outline>
</glyph>
<glyph name="lslash" format="1">
  <advance width="359"/>
  <unicode hex="0142"/>
  <outline>
    <contour>
      <point x="255.0" y="0" type="line"/>
      <point x="255.0" y="414.54701" type="line"/>
      <point x="369.0" y="448.0" type="line"/>
      <point x="346" y="535" type="line"/>
      <point x="255.0" y="507.96" type="line"/>
      <point x="255.0" y="742.0" type="line"/>
      <point x="124.0" y="742.0" type="line"/>
      <point x="124.0" y="469.03429" type="line"/>
      <point x="-4" y="431.0" type="line"/>
      <point x="18" y="345" type="line"/>
      <point x="124.0" y="376.10541" type="line"/>
      <point x="124.0" y="0" type="line"/>
    </contour>
  </outline>
</glyph>
<glyph name="Eng" format="1">
  <advance width="790"/>
  <unicode hex="014A"/>
  <outline>
    <contour>
      <point x="395" y="0" type="move" name="blwm"/>
    </contour>
    <contour>
      <point x="395" y="700" type="move" name="abvm"/>
    </contour>
    <contour>
      <point x="479" y="-208" type="curve" smooth="yes"/>
      <point x="614.642934359" y="-208.0"/>
      <point x="701.542828253" y="-127.424769844"/>
      <point x="703.98249" y="0" type="curve"/>
      <point x="704.0" y="0" type="line"/>
      <point x="704.0" y="700.0" type="line"/>
      <point x="574" y="700.0" type="line"/>
      <point x="574" y="221.0" type="line"/>
      <point x="213.0" y="700.0" type="line"/>
      <point x="86" y="700.0" type="line"/>
      <point x="86" y="0" type="line"/>
      <point x="217.0" y="0" type="line"/>
      <point x="217.0" y="478.0" type="line"/>
      <point x="571.29223" y="7.57864" type="line"/>
      <point x="565.920992213" y="-50.3964799731"/>
      <point x="530.341552115" y="-80.0"/>
      <point x="477.0" y="-80.0" type="curve" smooth="yes"/>
      <point x="438" y="-80"/>
      <point x="389" y="-64"/>
      <point x="346" y="-31" type="curve"/>
      <point x="287" y="-137" type="line"/>
      <point x="336" y="-182"/>
      <point x="401" y="-208"/>
    </contour>
  </outline>
</glyph>
<glyph name="eng" format="1">
  <advance width="666"/>
  <unicode hex="014B"/>
  <outline>
    <contour>
      <point x="338" y="0" type="move" name="blwm"/>
    </contour>
    <contour>
      <point x="348" y="535" type="move" name="abvm"/>
    </contour>
    <contour>
      <point x="422" y="-200" type="curve" smooth="yes"/>
      <point x="513" y="-200"/>
      <point x="601" y="-140"/>
      <point x="601" y="-17" type="curve" smooth="yes"/>
      <point x="601" y="334" type="line" smooth="yes"/>
      <point x="601" y="461"/>
      <point x="526" y="540"/>
      <point x="403" y="540" type="curve" smooth="yes"/>
      <point x="316.334975994" y="539.380964114"/>
      <point x="249.979839664" y="506.955877716"/>
      <point x="212.0" y="436.76657" type="curve"/>
      <point x="212.0" y="535" type="line"/>
      <point x="81" y="535" type="line"/>
      <point x="81" y="0" type="line"/>
      <point x="212.0" y="0" type="line"/>
      <point x="212.0" y="283.54699" type="line"/>
      <point x="219.593895561" y="361.037842134"/>
      <point x="270.074868003" y="416.080396227"/>
      <point x="351.0" y="417.0" type="curve" smooth="yes"/>
      <point x="425" y="417"/>
      <point x="470" y="371"/>
      <point x="470" y="296" type="curve" smooth="yes"/>
      <point x="470.0" y="-19" type="line" smooth="yes"/>
      <point x="470" y="-66"/>
      <point x="444" y="-87"/>
      <point x="410" y="-87" type="curve"/>
      <point x="388" y="-87"/>
      <point x="364" y="-79"/>
      <point x="344" y="-64" type="curve"/>
      <point x="304" y="-164" type="line"/>
      <point x="337" y="-187"/>
      <point x="379" y="-200"/>
    </contour>
  </outline>
</glyph>
<glyph name="OE" format="1">
  <advance width="1101"/>
  <unicode hex="0152"/>
  <outline>
    <contour>
      <point x="775" y="0" type="move" name="blwm"/>
    </contour>
    <contour>
      <point x="1047" y="10" type="move" name="ogonek"/>
    </contour>
    <contour>
      <point x="552" y="700" type="move" name="abvm"/>
    </contour>
    <contour>
      <point x="404.0" y="118.0" type="line"/>
      <point x="271" y="118"/>
      <point x="168" y="217"/>
      <point x="168" y="349" type="curve" smooth="yes"/>
      <point x="168" y="481"/>
      <point x="271" y="580"/>
      <point x="404" y="580" type="curve"/>
      <point x="526" y="580" type="line"/>
      <point x="526" y="118.74847" type="line"/>
    </contour>
    <contour>
      <point x="403" y="0" type="curve"/>
      <point x="1051" y="0" type="line"/>
      <point x="1051" y="117.0" type="line"/>
      <point x="660" y="117.0" type="line"/>
      <point x="660" y="293" type="line"/>
      <point x="1000.0" y="293" type="line"/>
      <point x="1000.0" y="410.0" type="line"/>
      <point x="660" y="410.0" type="line"/>
      <point x="660" y="583" type="line"/>
      <point x="1039" y="583" type="line"/>
      <point x="1039" y="700.0" type="line"/>
      <point x="403.0" y="700.0" type="line"/>
      <point x="192" y="700"/>
      <point x="31" y="547"/>
      <point x="31" y="350" type="curve" smooth="yes"/>
      <point x="31" y="151"/>
      <point x="193" y="0"/>
    </contour>
  </outline>
</glyph>
<glyph name="oe" format="1">
  <advance width="1034"/>
  <unicode hex="0153"/>
  <outline>
    <contour>
      <point x="520" y="534" type="move" name="abvm"/>
    </contour>
    <contour>
      <point x="735.0" y="444.0" type="curve" smooth="yes"/>
      <point x="816" y="444"/>
      <point x="870" y="387"/>
      <point x="873" y="307" type="curve"/>
      <point x="589.45744" y="307" type="line"/>
      <point x="601.46625656" y="388.115826657"/>
      <point x="656.590592167" y="444.0"/>
    </contour>
    <contour>
      <point x="466" y="266" type="curve" smooth="yes"/>
      <point x="466" y="170"/>
      <point x="404" y="104"/>
      <point x="315" y="104" type="curve" smooth="yes"/>
      <point x="226" y="104"/>
      <point x="164" y="170"/>
      <point x="164" y="266" type="curve" smooth="yes"/>
      <point x="164" y="362"/>
      <point x="226" y="427"/>
      <point x="315" y="427" type="curve" smooth="yes"/>
      <point x="404" y="427"/>
      <point x="466" y="362"/>
    </contour>
    <contour>
      <point x="963" y="87" type="curve"/>
      <point x="894.0" y="160" type="line"/>
      <point x="855" y="121"/>
      <point x="804" y="100"/>
      <point x="748" y="100" type="curve" smooth="yes"/>
      <point x="663.972714777" y="100.0"/>
      <point x="602.633180823" y="152.416528792"/>
      <point x="589.58446" y="238.0" type="curve"/>
      <point x="1003.0" y="238.0" type="line"/>
      <point x="1010" y="418"/>
      <point x="904" y="539"/>
      <point x="734" y="539" type="curve" smooth="yes"/>
      <point x="641.280001483" y="539.0"/>
      <point x="569.769702288" y="498.06900131"/>
      <point x="528.09438" y="429.124" type="curve"/>
      <point x="485.074308057" y="498.089419493"/>
      <point x="410.796946828" y="539.0"/>
      <point x="314.0" y="539.0" type="curve" smooth="yes"/>
      <point x="147" y="539"/>
      <point x="32" y="430"/>
      <point x="32" y="268" type="curve" smooth="yes"/>
      <point x="32" y="105"/>
      <point x="147" y="-5"/>
      <point x="314" y="-5" type="curve" smooth="yes"/>
      <point x="410.238501116" y="-5.0"/>
      <point x="484.216509289" y="35.8109037284"/>
      <point x="527.34668" y="104.57619" type="curve"/>
      <point x="568.693645556" y="35.9908428454"/>
      <point x="640.549569924" y="-5.0"/>
      <point x="737.0" y="-5.0" type="curve" smooth="yes"/>
      <point x="832" y="-5"/>
      <point x="910" y="29"/>
    </contour>
  </outline>
</glyph>
<glyph name="tbar" format="1">
  <advance width="415"/>
  <unicode hex="0167"/>
  <outline>
    <contour>
      <point x="249" y="0" type="move" name="blwm"/>
    </contour>
    <contour>
      <point x="207" y="268" type="move" name="center"/>
    </contour>
    <contour>
      <point x="395" y="33" type="curve"/>
      <point x="364.0" y="131" type="line"/>
      <point x="335" y="117"/>
      <point x="310" y="109"/>
      <point x="288" y="109" type="curve"/>
      <point x="253" y="109"/>
      <point x="233" y="126"/>
      <point x="233" y="177" type="curve"/>
      <point x="233.0" y="246.0" type="line"/>
      <point x="386.0" y="246.0" type="line"/>
      <point x="386.0" y="336" type="line"/>
      <point x="233.0" y="336" type="line"/>
      <point x="233.0" y="423.42458" type="line"/>
      <point x="385.0" y="423.0" type="line"/>
      <point x="385.0" y="513" type="line"/>
      <point x="233.0" y="513" type="line"/>
      <point x="233.0" y="660" type="line"/>
      <point x="103.0" y="660" type="line"/>
      <point x="103.0" y="513" type="line"/>
      <point x="27.0" y="513" type="line"/>
      <point x="27.0" y="424.0" type="line"/>
      <point x="103.0" y="423.78771" type="line"/>
      <point x="103.0" y="336" type="line"/>
      <point x="28.0" y="336" type="line"/>
      <point x="28.0" y="246.0" type="line"/>
      <point x="103.0" y="246.0" type="line"/>
      <point x="103.0" y="154" type="line"/>
      <point x="103" y="44"/>
      <point x="174" y="-6"/>
      <point x="260" y="-6" type="curve"/>
      <point x="307" y="-6"/>
      <point x="354" y="8"/>
    </contour>
  </outline>
</glyph>
<glyph name="Uogonek" format="1">
  <advance width="763"/>
  <unicode hex="0172"/>
  <outline>
    <contour>
      <point x="450" y="-202" type="curve" smooth="yes"/>
      <point x="489" y="-202"/>
      <point x="525" y="-180"/>
      <point x="549" y="-141" type="curve"/>
      <point x="513" y="-98.0" type="line"/>
      <point x="498" y="-117"/>
      <point x="483" y="-130"/>
      <point x="465" y="-130" type="curve" smooth="yes"/>
      <point x="449" y="-130"/>
      <point x="438" y="-119"/>
      <point x="438" y="-101" type="curve" smooth="yes"/>
      <point x="438.0" y="-77.1066147302"/>
      <point x="455.355173333" y="-42.2520673552"/>
      <point x="490.06552" y="7.91574" type="curve"/>
      <point x="616.298449573" y="43.5141079426"/>
      <point x="691.0" y="145.599814438"/>
      <point x="691.0" y="292.0" type="curve" smooth="yes"/>
      <point x="691" y="700.0" type="line"/>
      <point x="557" y="700.0" type="line"/>
      <point x="557" y="292" type="line" smooth="yes"/>
      <point x="557" y="180"/>
      <point x="490" y="114"/>
      <point x="384" y="114" type="curve" smooth="yes"/>
      <point x="277" y="114"/>
      <point x="206" y="181"/>
      <point x="206" y="292" type="curve" smooth="yes"/>
      <point x="206.0" y="700.0" type="line"/>
      <point x="73" y="700.0" type="line"/>
      <point x="73" y="292" type="line" smooth="yes"/>
      <point x="73" y="108"/>
      <point x="192" y="-6"/>
      <point x="383" y="-6" type="curve" smooth="yes"/>
      <point x="394.178896098" y="-6.0"/>
      <point x="405.108549102" y="-5.60536510115"/>
      <point x="415.77959" y="-4.81519" type="curve"/>
      <point x="386.338610502" y="-47.559557501"/>
      <point x="369.0" y="-85.533631381"/>
      <point x="369.0" y="-122.0" type="curve" smooth="yes"/>
      <point x="369" y="-180"/>
      <point x="411" y="-202"/>
    </contour>
  </outline>
</glyph>
<glyph name="uogonek" format="1">
  <advance width="650"/>
  <unicode hex="0173"/>
  <outline>
    <contour>
      <point x="445" y="535" type="line"/>
      <point x="445" y="253" type="line" smooth="yes"/>
      <point x="438" y="176"/>
      <point x="389" y="119"/>
      <point x="310" y="118" type="curve" smooth="yes"/>
      <point x="239" y="118"/>
      <point x="194" y="163"/>
      <point x="194" y="238" type="curve" smooth="yes"/>
      <point x="194" y="535" type="line"/>
      <point x="64" y="535" type="line"/>
      <point x="64" y="200" type="line" smooth="yes"/>
      <point x="64" y="74"/>
      <point x="137" y="-5"/>
      <point x="258" y="-5" type="curve" smooth="yes"/>
      <point x="343" y="-5"/>
      <point x="408" y="27"/>
      <point x="445" y="96" type="curve"/>
      <point x="445" y="0" type="line"/>
      <point x="479" y="0" type="line"/>
      <point x="447" y="-45"/>
      <point x="428" y="-84"/>
      <point x="428" y="-122" type="curve" smooth="yes"/>
      <point x="428" y="-180"/>
      <point x="471" y="-202"/>
      <point x="509" y="-202" type="curve" smooth="yes"/>
      <point x="548" y="-202"/>
      <point x="584" y="-180"/>
      <point x="608" y="-141" type="curve"/>
      <point x="572" y="-98" type="line"/>
      <point x="557" y="-117"/>
      <point x="542" y="-130"/>
      <point x="524" y="-130" type="curve" smooth="yes"/>
      <point x="508" y="-130"/>
      <point x="497" y="-119"/>
      <point x="497" y="-101" type="curve" smooth="yes"/>
      <point x="497" y="-79"/>
      <point x="511" y="-45"/>
      <point x="545" y="0" type="curve"/>
      <point x="575" y="0" type="line"/>
      <point x="575" y="535" type="line"/>
    </contour>
  </outline>
</glyph>
<glyph name="jdotless" format="1">
  <advance width="283"/>
  <unicode hex="0237"/>
  <outline>
    <contour>
      <point x="141" y="535" type="move" name="abvm"/>
    </contour>
    <contour>
      <point x="81" y="535" type="line"/>
      <point x="81" y="-3" type="line"/>
      <point x="81" y="-61"/>
      <point x="57" y="-91"/>
      <point x="13" y="-90" type="curve"/>
      <point x="-12" y="-89"/>
      <point x="-36" y="-82"/>
      <point x="-58" y="-67" type="curve"/>
      <point x="-90" y="-164" type="line"/>
      <point x="-53" y="-186"/>
      <point x="-8" y="-198"/>
      <point x="41" y="-199" type="curve"/>
      <point x="147" y="-200"/>
      <point x="212" y="-135"/>
      <point x="212" y="-22" type="curve"/>
      <point x="212" y="535" type="line"/>
    </contour>
  </outline>
</glyph>
<glyph name="circumflex" format="1">
  <advance width="350"/>
  <unicode hex="02C6"/>
  <outline>
    <contour>
      <point x="175" y="537" type="move" name="_abvm"/>
    </contour>
    <contour>
      <point x="118" y="757" type="line"/>
      <point x="12" y="613" type="line"/>
      <point x="114" y="613" type="line"/>
      <point x="175" y="700" type="line"/>
      <point x="236" y="613" type="line"/>
      <point x="338" y="613" type="line"/>
      <point x="232" y="757" type="line"/>
    </contour>
  </outline>
</glyph>
<glyph name="caron" format="1">
  <advance width="350"/>
  <unicode hex="02C7"/>
  <outline>
    <contour>
      <point x="178" y="537" type="move" name="_abvm"/>
    </contour>
    <contour>
      <point x="237" y="603" type="line"/>
      <point x="348" y="757" type="line"/>
      <point x="237" y="757" type="line"/>
      <point x="175" y="665" type="line"/>
      <point x="112" y="757" type="line"/>
      <point x="1" y="757" type="line"/>
      <point x="113" y="603" type="line"/>
    </contour>
  </outline>
</glyph>
<glyph name="breve" format="1">
  <advance width="350"/>
  <unicode hex="02D8"/>
  <outline>
    <contour>
      <point x="175" y="535" type="move" name="_abvm"/>
    </contour>
    <contour>
      <point x="236" y="753" type="line"/>
      <point x="234" y="716"/>
      <point x="209" y="689"/>
      <point x="175" y="689" type="curve" smooth="yes"/>
      <point x="141" y="689"/>
      <point x="116" y="716"/>
      <point x="114" y="753" type="curve"/>
      <point x="28" y="753" type="line"/>
      <point x="31" y="664"/>
      <point x="91" y="605"/>
      <point x="175" y="605" type="curve" smooth="yes"/>
      <point x="259" y="605"/>
      <point x="319" y="664"/>
      <point x="322" y="753" type="curve"/>
    </contour>
  </outline>
</glyph>
<glyph name="dotaccent" format="1">
  <advance width="350"/>
  <unicode hex="02D9"/>
  <outline>
    <contour>
      <point x="175" y="534" type="move" name="_abvm"/>
    </contour>
    <contour>
      <point x="102" y="687" type="curve" smooth="yes"/>
      <point x="102" y="643"/>
      <point x="133" y="610"/>
      <point x="175" y="610" type="curve" smooth="yes"/>
      <point x="218" y="610"/>
      <point x="249" y="643"/>
      <point x="249" y="687" type="curve" smooth="yes"/>
      <point x="249" y="732"/>
      <point x="218" y="764"/>
      <point x="175" y="764" type="curve" smooth="yes"/>
      <point x="133" y="764"/>
      <point x="102" y="732"/>
    </contour>
  </outline>
</glyph>
<glyph name="ring" format="1">
  <advance width="350"/>
  <unicode hex="02DA"/>
  <outline>
    <contour>
      <point x="175" y="534" type="move" name="_abvm"/>
    </contour>
    <contour>
      <point x="57" y="688" type="curve" smooth="yes"/>
      <point x="57" y="623"/>
      <point x="110" y="571"/>
      <point x="175" y="571" type="curve" smooth="yes"/>
      <point x="241" y="571"/>
      <point x="294" y="623"/>
      <point x="294" y="688" type="curve" smooth="yes"/>
      <point x="294" y="752"/>
      <point x="241" y="806"/>
      <point x="175" y="806" type="curve" smooth="yes"/>
      <point x="110" y="806"/>
      <point x="57" y="752"/>
    </contour>
    <contour>
      <point x="239" y="688" type="curve" smooth="yes"/>
      <point x="239" y="655"/>
      <point x="210" y="628"/>
      <point x="175" y="628" type="curve" smooth="yes"/>
      <point x="141" y="628"/>
      <point x="112" y="655"/>
      <point x="112" y="688" type="curve" smooth="yes"/>
      <point x="112" y="721"/>
      <point x="141" y="748"/>
      <point x="175" y="748" type="curve" smooth="yes"/>
      <point x="210" y="748"/>
      <point x="239" y="721"/>
    </contour>
  </outline>
</glyph>
<glyph name="ogonek" format="1">
  <advance width="350"/>
  <unicode hex="02DB"/>
  <outline>
    <contour>
      <point x="266" y="10" type="move" name="_ogonek"/>
    </contour>
    <contour>
      <point x="146" y="14" type="line"/>
      <point x="109" y="-36"/>
      <point x="86" y="-80"/>
      <point x="86" y="-122" type="curve" smooth="yes"/>
      <point x="86" y="-180"/>
      <point x="128" y="-202"/>
      <point x="167" y="-202" type="curve" smooth="yes"/>
      <point x="206" y="-202"/>
      <point x="242" y="-180"/>
      <point x="266" y="-141" type="curve"/>
      <point x="230" y="-98" type="line"/>
      <point x="216" y="-117"/>
      <point x="199" y="-130"/>
      <point x="182" y="-130" type="curve" smooth="yes"/>
      <point x="166" y="-130"/>
      <point x="154" y="-119"/>
      <point x="154" y="-101" type="curve" smooth="yes"/>
      <point x="154" y="-76"/>
      <point x="173" y="-39"/>
      <point x="212" y="14" type="curve"/>
    </contour>
  </outline>
</glyph>
<glyph name="tilde" format="1">
  <advance width="350"/>
  <unicode hex="02DC"/>
  <outline>
    <contour>
      <point x="175" y="534" type="move" name="_abvm"/>
    </contour>
    <contour>
      <point x="10" y="625" type="curve"/>
      <point x="92" y="625" type="line"/>
      <point x="92" y="656"/>
      <point x="105" y="672"/>
      <point x="128" y="672" type="curve"/>
      <point x="161" y="672"/>
      <point x="186" y="620"/>
      <point x="246" y="620" type="curve"/>
      <point x="309" y="620"/>
      <point x="341" y="666"/>
      <point x="341" y="759" type="curve"/>
      <point x="259" y="759" type="line"/>
      <point x="259" y="728"/>
      <point x="247" y="712"/>
      <point x="223" y="712" type="curve"/>
      <point x="191" y="712"/>
      <point x="161" y="765"/>
      <point x="105" y="765" type="curve"/>
      <point x="42" y="765"/>
      <point x="10" y="718"/>
    </contour>
  </outline>
</glyph>
<glyph name="hungarumlaut" format="1">
  <advance width="350"/>
  <unicode hex="02DD"/>
  <outline>
    <contour>
      <point x="147" y="537" type="move" name="_abvm"/>
    </contour>
    <contour>
      <point x="-7" y="606" type="line"/>
      <point x="92" y="606" type="line"/>
      <point x="184" y="720" type="line"/>
      <point x="77" y="766" type="line"/>
    </contour>
    <contour>
      <point x="166" y="606" type="line"/>
      <point x="265" y="606" type="line"/>
      <point x="357" y="720" type="line"/>
      <point x="250" y="766" type="line"/>
    </contour>
  </outline>
</glyph>
<glyph name="commaaccentcomb" format="1">
  <advance width="220"/>
  <unicode hex="0326"/>
  <outline>
    <contour>
      <point x="106" y="0" type="move" name="_blwm"/>
    </contour>
    <contour>
      <point x="99.0" y="-266" type="line"/>
      <point x="160" y="-173" type="line" smooth="yes"/>
      <point x="172" y="-156"/>
      <point x="180" y="-138"/>
      <point x="180" y="-116" type="curve" smooth="yes"/>
      <point x="180" y="-72"/>
      <point x="148" y="-46"/>
      <point x="113" y="-46" type="curve" smooth="yes"/>
      <point x="74" y="-46"/>
      <point x="45" y="-76"/>
      <point x="45" y="-116" type="curve" smooth="yes"/>
      <point x="45.0" y="-139.163194484"/>
      <point x="53.8187636212" y="-159.857135154"/>
      <point x="72.92285" y="-172.58516" type="curve"/>
      <point x="34" y="-266" type="line"/>
    </contour>
  </outline>
</glyph>
<glyph name="Delta" format="1">
  <advance width="747"/>
  <unicode hex="0394"/>
  <outline>
    <contour>
      <point x="372.0" y="557" type="line"/>
      <point x="560.26571" y="105.0" type="line"/>
      <point x="182.9228" y="105.0" type="line"/>
    </contour>
    <contour>
      <point x="-1" y="0" type="line"/>
      <point x="748.0" y="0" type="line"/>
      <point x="445.0" y="700.0" type="line"/>
      <point x="307" y="700.0" type="line"/>
    </contour>
  </outline>
</glyph>
<glyph name="Omega" format="1">
  <advance width="875"/>
  <unicode hex="03A9"/>
  <outline>
    <contour>
      <point x="20" y="700" type="move" name="topleft"/>
    </contour>
    <contour>
      <point x="78" y="375" type="curve" smooth="yes"/>
      <point x="78" y="279"/>
      <point x="132" y="172"/>
      <point x="209" y="113" type="curve"/>
      <point x="8" y="113" type="line"/>
      <point x="8" y="0" type="line"/>
      <point x="346" y="0" type="line"/>
      <point x="346" y="104" type="line"/>
      <point x="259" y="157"/>
      <point x="197" y="266"/>
      <point x="197" y="363" type="curve" smooth="yes"/>
      <point x="197" y="494"/>
      <point x="298" y="589"/>
      <point x="437" y="589" type="curve" smooth="yes"/>
      <point x="576" y="589"/>
      <point x="678" y="494"/>
      <point x="678" y="363" type="curve" smooth="yes"/>
      <point x="678" y="266"/>
      <point x="616" y="157"/>
      <point x="529" y="105" type="curve"/>
      <point x="529" y="0" type="line"/>
      <point x="866" y="0" type="line"/>
      <point x="866" y="113" type="line"/>
      <point x="666" y="113" type="line"/>
      <point x="743" y="172"/>
      <point x="797" y="280"/>
      <point x="797" y="375" type="curve" smooth="yes"/>
      <point x="797" y="566"/>
      <point x="644" y="707"/>
      <point x="437" y="707" type="curve" smooth="yes"/>
      <point x="230" y="707"/>
      <point x="78" y="566"/>
    </contour>
  </outline>
</glyph>
<glyph name="pi" format="1">
  <advance width="726"/>
  <unicode hex="03C0"/>
  <outline>
    <contour>
      <point x="286" y="0" type="line"/>
      <point x="334.12362" y="436.0" type="line"/>
      <point x="466.0" y="436.0" type="line"/>
      <point x="466.0" y="0" type="line"/>
      <point x="575" y="0" type="line"/>
      <point x="575" y="436.0" type="line"/>
      <point x="716.0" y="436.0" type="line"/>
      <point x="716.0" y="535" type="line"/>
      <point x="163" y="535" type="line"/>
      <point x="62" y="535"/>
      <point x="-12" y="468"/>
      <point x="-11" y="381" type="curve"/>
      <point x="-11" y="339"/>
      <point x="4" y="288"/>
      <point x="26" y="250" type="curve"/>
      <point x="116.0" y="285" type="line"/>
      <point x="101" y="308"/>
      <point x="91" y="337"/>
      <point x="91" y="359" type="curve"/>
      <point x="90" y="403"/>
      <point x="128" y="436"/>
      <point x="180" y="436" type="curve"/>
      <point x="225.12362" y="436.0" type="line"/>
      <point x="177.0" y="0" type="line"/>
    </contour>
  </outline>
</glyph>
<glyph name="uni0964" format="1">
  <advance width="290"/>
  <unicode hex="0964"/>
  <outline>
    <contour>
      <point x="258" y="-35" type="line"/>
      <point x="258" y="680" type="line"/>
      <point x="134" y="680" type="line"/>
      <point x="134" y="-35" type="line"/>
    </contour>
  </outline>
</glyph>
<glyph name="uni0A06" format="1">
  <advance width="1149"/>
  <unicode hex="0A06"/>
  <outline>
    <contour>
      <point x="986" y="689" type="move" name="abvm_bindu"/>
    </contour>
    <contour>
      <point x="986" y="699" type="move" name="abvm_candra"/>
    </contour>
    <contour>
      <point x="986" y="679" type="move" name="abvm"/>
    </contour>
    <component base="uni0A05"/>
    <component base="uni0A3E" xOffset="863"/>
  </outline>
</glyph>
<glyph name="uni0A07" format="1">
  <advance width="922"/>
  <unicode hex="0A07"/>
  <outline>
    <contour>
      <point x="767" y="680" type="move" name="abvm_bindu"/>
    </contour>
    <contour>
      <point x="767" y="690" type="move" name="abvm_candra"/>
    </contour>
    <contour>
      <point x="767" y="670" type="move" name="abvm"/>
    </contour>
    <component base="uni0A3F"/>
    <component base="uni0A72" xOffset="290"/>
  </outline>
</glyph>
<glyph name="uni0A08" format="1">
  <advance width="909"/>
  <unicode hex="0A08"/>
  <outline>
    <contour>
      <point x="949" y="680" type="move" name="abvm_bindu"/>
    </contour>
    <contour>
      <point x="1025" y="690" type="move" name="abvm_candra"/>
    </contour>
    <contour>
      <point x="949" y="670" type="move" name="abvm"/>
    </contour>
    <component base="uni0A72"/>
    <component base="uni0A40" xOffset="633"/>
  </outline>
</glyph>
<glyph name="uni0A09" format="1">
  <advance width="660"/>
  <unicode hex="0A09"/>
  <outline>
    <contour>
      <point x="681" y="680" type="move" name="abvm_bindu"/>
    </contour>
    <contour>
      <point x="776" y="680" type="move" name="abvm_candra"/>
    </contour>
    <component base="uni0A73"/>
    <component base="uni0A41" xOffset="387"/>
  </outline>
</glyph>
<glyph name="uni0A0A" format="1">
  <advance width="660"/>
  <unicode hex="0A0A"/>
  <outline>
    <contour>
      <point x="681" y="680" type="move" name="abvm_bindu"/>
    </contour>
    <contour>
      <point x="776" y="680" type="move" name="abvm_candra"/>
    </contour>
    <component base="uni0A73"/>
    <component base="uni0A42" xOffset="387"/>
  </outline>
</glyph>
<glyph name="uni0A0F" format="1">
  <advance width="633"/>
  <unicode hex="0A0F"/>
  <outline>
    <contour>
      <point x="469" y="670" type="move" name="_abvm"/>
    </contour>
    <contour>
      <point x="626" y="680" type="move" name="abvm_bindu"/>
    </contour>
    <contour>
      <point x="384" y="2" type="move" name="blwm"/>
    </contour>
    <contour>
      <point x="714" y="690" type="move" name="abvm_candra"/>
    </contour>
    <contour>
      <point x="382" y="30" type="move" name="blwm_caret_1"/>
    </contour>
    <contour>
      <point x="103" y="-41" type="move" name="blwm_nukta"/>
    </contour>
    <contour>
      <point x="500" y="670" type="move" name="abvm"/>
    </contour>
    <contour>
      <point x="410.0" y="410.0" type="line"/>
      <point x="279.704851116" y="410.0"/>
      <point x="191.851766788" y="481.891660372"/>
      <point x="180.29786" y="579" type="curve"/>
      <point x="423.0" y="579" type="line"/>
      <point x="423.0" y="410.0" type="line"/>
    </contour>
    <contour>
      <point x="572" y="29" type="curve"/>
      <point x="545" y="133" type="line"/>
      <point x="494" y="113"/>
      <point x="432" y="101"/>
      <point x="373" y="101" type="curve" smooth="yes"/>
      <point x="264.268586574" y="101.0"/>
      <point x="188.35797103" y="142.416721137"/>
      <point x="157.70248" y="190.71329" type="curve"/>
      <point x="195.500520727" y="240.855578636"/>
      <point x="283.267921084" y="301.159040845"/>
      <point x="460.0" y="303.0" type="curve" smooth="yes"/>
      <point x="552" y="303" type="line"/>
      <point x="552" y="579" type="line"/>
      <point x="633" y="579" type="line"/>
      <point x="633" y="689" type="line"/>
      <point x="516.6908" y="689" type="line"/>
      <point x="500.353496471" y="846.903807666"/>
      <point x="397.854939382" y="943.0"/>
      <point x="226.0" y="943.0" type="curve" smooth="yes"/>
      <point x="181" y="943"/>
      <point x="135" y="936"/>
      <point x="96" y="922" type="curve"/>
      <point x="122.0" y="820.0" type="line"/>
      <point x="160" y="829"/>
      <point x="201" y="834"/>
      <point x="239" y="834" type="curve" smooth="yes"/>
      <point x="353.220058192" y="834.0"/>
      <point x="402.298857929" y="781.587493197"/>
      <point x="417.33541" y="689" type="curve"/>
      <point x="-14.0" y="689" type="line"/>
      <point x="-14.0" y="579" type="line"/>
      <point x="51.73398" y="579" type="line"/>
      <point x="63.0908107566" y="490.519474672"/>
      <point x="129.427901999" y="413.33883024"/>
      <point x="226.8886" y="371.21584" type="curve"/>
      <point x="120.392090462" y="337.647277114"/>
      <point x="58.7302875103" y="271.678555853"/>
      <point x="32.0" y="220.0" type="curve"/>
      <point x="67" y="82"/>
      <point x="213" y="-11"/>
      <point x="384" y="-11" type="curve" smooth="yes"/>
      <point x="453" y="-11"/>
      <point x="520" y="3"/>
    </contour>
  </outline>
</glyph>
<glyph name="uni0A10" format="1">
  <advance width="863"/>
  <unicode hex="0A10"/>
  <outline>
    <contour>
      <point x="700" y="679" type="move" name="_abvm"/>
    </contour>
    <contour>
      <point x="864" y="680" type="move" name="abvm_bindu"/>
    </contour>
    <contour>
      <point x="952" y="690" type="move" name="abvm_candra"/>
    </contour>
    <contour>
      <point x="729" y="679" type="move" name="abvm"/>
    </contour>
    <contour>
      <point x="782.0" y="0" type="line"/>
      <point x="782.0" y="579" type="line"/>
      <point x="863.0" y="579" type="line"/>
      <point x="863.0" y="689" type="line"/>
      <point x="749.42734" y="689" type="line"/>
      <point x="740.007307402" y="935.434438371"/>
      <point x="619.926992739" y="1059.0"/>
      <point x="439.0" y="1059.0" type="curve"/>
      <point x="443.0" y="965.0" type="line"/>
      <point x="556.121434315" y="965.0"/>
      <point x="639.416031263" y="913.548705542"/>
      <point x="670.99107" y="789.36509" type="curve"/>
      <point x="616.713187643" y="864.815970543"/>
      <point x="515.769168406" y="906.0"/>
      <point x="406.0" y="906.0" type="curve" smooth="yes"/>
      <point x="352" y="906"/>
      <point x="299" y="896"/>
      <point x="256" y="877" type="curve"/>
      <point x="281" y="782.0" type="line"/>
      <point x="318" y="795"/>
      <point x="369" y="803"/>
      <point x="422" y="803" type="curve" smooth="yes"/>
      <point x="541" y="803"/>
      <point x="653" y="770"/>
      <point x="653" y="664" type="curve"/>
      <point x="653" y="422.0" type="line"/>
      <point x="529.6754" y="422.0" type="line"/>
      <point x="512.924062911" y="551.730786495"/>
      <point x="434.477233968" y="619.0"/>
      <point x="331.0" y="619.0" type="curve" smooth="yes"/>
      <point x="278.215817884" y="619.0"/>
      <point x="236.305117859" y="601.730351973"/>
      <point x="203.22174" y="571.78183" type="curve"/>
      <point x="163.058169146" y="651.700766367"/>
      <point x="86.7590079363" y="689.0"/>
      <point x="3.0" y="689.0" type="curve" smooth="yes"/>
      <point x="-14.0" y="689" type="line"/>
      <point x="-14.0" y="579" type="line"/>
      <point x="12.0" y="579" type="line" smooth="yes"/>
      <point x="79.808509479" y="579.0"/>
      <point x="123.908612613" y="533.738496978"/>
      <point x="131.51233" y="477.12015" type="curve"/>
      <point x="93.9050006212" y="405.79767666"/>
      <point x="64.6371365871" y="317.934791521"/>
      <point x="61.0" y="197.0" type="curve"/>
      <point x="166" y="169" type="line"/>
      <point x="213.690933166" y="266.181524188"/>
      <point x="237.90079546" y="333.40444071"/>
      <point x="240.81534" y="407.14404" type="curve"/>
      <point x="257.475503059" y="474.539858075"/>
      <point x="298.332284082" y="501.0"/>
      <point x="344.0" y="501.0" type="curve" smooth="yes"/>
      <point x="399.452115265" y="501.0"/>
      <point x="422.984468378" y="461.765292354"/>
      <point x="427.6119" y="400.4138" type="curve"/>
      <point x="376.430341725" y="326.853217228"/>
      <point x="358.909274482" y="268.09291309"/>
      <point x="348.0" y="149.0" type="curve" smooth="yes"/>
      <point x="346" y="129"/>
      <point x="344" y="102"/>
      <point x="344" y="85" type="curve"/>
      <point x="450.0" y="71" type="line"/>
      <point x="493.38513657" y="160.983986959"/>
      <point x="520.632841082" y="236.121536425"/>
      <point x="529.66867" y="312" type="curve"/>
      <point x="653" y="312" type="line"/>
      <point x="653" y="0" type="line"/>
    </contour>
  </outline>
</glyph>
<glyph name="uni0A13" format="1">
  <advance width="660"/>
  <unicode hex="0A13"/>
  <outline>
    <contour>
      <point x="645" y="680" type="move" name="abvm_bindu"/>
    </contour>
    <contour>
      <point x="390" y="2" type="move" name="blwm"/>
    </contour>
    <contour>
      <point x="752" y="650" type="move" name="abvm_candra"/>
    </contour>
    <contour>
      <point x="387" y="30" type="move" name="blwm_caret_1"/>
    </contour>
    <contour>
      <point x="92" y="-15" type="move" name="blwm_nukta"/>
    </contour>
    <contour>
      <point x="533" y="670" type="move" name="abvm"/>
    </contour>
    <contour>
      <point x="169.0" y="536.0" type="curve" smooth="yes"/>
      <point x="169.0" y="550.618266859"/>
      <point x="169.309862259" y="565.00612332"/>
      <point x="169.98341" y="579" type="curve"/>
      <point x="485.85765" y="579" type="line"/>
      <point x="472.546948358" y="482.161641197"/>
      <point x="414.744943629" y="414.0"/>
      <point x="271.0" y="414.0" type="curve" smooth="yes"/>
      <point x="175.3726" y="414.0" type="line"/>
      <point x="170.934472694" y="455.108332352"/>
      <point x="169.0" y="496.626536909"/>
    </contour>
    <contour>
      <point x="605" y="169" type="curve" smooth="yes"/>
      <point x="605.0" y="239.398632583"/>
      <point x="561.481690609" y="310.437240303"/>
      <point x="468.8134" y="348.82092" type="curve"/>
      <point x="559.522298513" y="398.617318943"/>
      <point x="605.432643845" y="478.41436204"/>
      <point x="612.90471" y="579" type="curve"/>
      <point x="674" y="579" type="line"/>
      <point x="674" y="689" type="line"/>
      <point x="185.50111" y="689" type="line"/>
      <point x="208.797489813" y="776.17516146"/>
      <point x="260.343721084" y="835.0"/>
      <point x="362.0" y="835.0" type="curve" smooth="yes"/>
      <point x="392" y="835"/>
      <point x="444" y="830"/>
      <point x="491" y="820" type="curve"/>
      <point x="516" y="922.0" type="line"/>
      <point x="463" y="937"/>
      <point x="400" y="944"/>
      <point x="354" y="944" type="curve" smooth="yes"/>
      <point x="173.292599004" y="944.0"/>
      <point x="88.2246682357" y="841.74396265"/>
      <point x="59.14294" y="689" type="curve"/>
      <point x="-14.0" y="689" type="line"/>
      <point x="-14.0" y="579" type="line"/>
      <point x="47.56943" y="579" type="line"/>
      <point x="47.186232871" y="567.82769505"/>
      <point x="47.0" y="556.488089008"/>
      <point x="47.0" y="545.0" type="curve" smooth="yes"/>
      <point x="47" y="265"/>
      <point x="146" y="-11"/>
      <point x="390" y="-11" type="curve" smooth="yes"/>
      <point x="524" y="-11"/>
      <point x="605" y="72"/>
    </contour>
    <contour>
      <point x="373" y="101" type="curve" smooth="yes"/>
      <point x="273.696911355" y="101.0"/>
      <point x="218.635273696" y="196.988148122"/>
      <point x="191.42954" y="316" type="curve"/>
      <point x="308" y="316" type="line" smooth="yes"/>
      <point x="430" y="316"/>
      <point x="479" y="251"/>
      <point x="479" y="192" type="curve" smooth="yes"/>
      <point x="479" y="138"/>
      <point x="437" y="101"/>
    </contour>
  </outline>
</glyph>
<glyph name="uni0A15" format="1">
  <advance width="694"/>
  <unicode hex="0A15"/>
  <outline>
    <contour>
      <point x="548" y="682" type="move" name="abvm_bindu"/>
    </contour>
    <contour>
      <point x="572" y="0" type="move" name="blwm"/>
    </contour>
    <contour>
      <point x="548" y="692" type="move" name="abvm_candra"/>
    </contour>
    <contour>
      <point x="326" y="7" type="move" name="blwm_caret_1"/>
    </contour>
    <contour>
      <point x="109" y="-30" type="move" name="blwm_nukta"/>
    </contour>
    <contour>
      <point x="555" y="672" type="move" name="abvm"/>
    </contour>
    <contour>
      <point x="635" y="0" type="line"/>
      <point x="635" y="17" type="line" smooth="yes"/>
      <point x="635.0" y="104.11363473"/>
      <point x="608.092395414" y="202.999346467"/>
      <point x="558.90354" y="288.98134" type="curve"/>
      <point x="595.47603912" y="374.565208634"/>
      <point x="613.0" y="471.958398938"/>
      <point x="613.0" y="556.0" type="curve" smooth="yes"/>
      <point x="613" y="579" type="line"/>
      <point x="694" y="579" type="line"/>
      <point x="694" y="689" type="line"/>
      <point x="0" y="689" type="line"/>
      <point x="0" y="579" type="line"/>
      <point x="491.0" y="579" type="line"/>
      <point x="491.0" y="561" type="line" smooth="yes"/>
      <point x="491" y="504"/>
      <point x="484" y="450"/>
      <point x="468" y="401" type="curve"/>
      <point x="412" y="460"/>
      <point x="334" y="493"/>
      <point x="249" y="493" type="curve" smooth="yes"/>
      <point x="105" y="493"/>
      <point x="29" y="392"/>
      <point x="29" y="289" type="curve" smooth="yes"/>
      <point x="29" y="171"/>
      <point x="130" y="67"/>
      <point x="276" y="67" type="curve" smooth="yes"/>
      <point x="366.492774936" y="67.0"/>
      <point x="433.590959031" y="105.433970668"/>
      <point x="483.40434" y="170.09995" type="curve"/>
      <point x="499.13478" y="122.185646292"/>
      <point x="507.0" y="70.7353131458"/>
      <point x="507.0" y="20.0" type="curve" smooth="yes"/>
      <point x="507.0" y="0" type="line"/>
    </contour>
    <contour>
      <point x="276.0" y="179.0" type="curve" smooth="yes"/>
      <point x="203" y="179"/>
      <point x="159" y="225"/>
      <point x="159" y="280" type="curve" smooth="yes"/>
      <point x="159" y="336"/>
      <point x="201" y="381"/>
      <point x="275" y="381" type="curve" smooth="yes"/>
      <point x="337.761271435" y="381.0"/>
      <point x="394.0915597" y="348.041211249"/>
      <point x="436.06268" y="290.03526" type="curve"/>
      <point x="399.25538247" y="218.404662952"/>
      <point x="343.2569288" y="179.0"/>
    </contour>
  </outline>
</glyph>
<glyph name="uni0A16" format="1">
  <advance width="682"/>
  <unicode hex="0A16"/>
  <outline>
    <contour>
      <point x="519" y="680" type="move" name="abvm_bindu"/>
    </contour>
    <contour>
      <point x="537" y="0" type="move" name="blwm"/>
    </contour>
    <contour>
      <point x="519" y="690" type="move" name="abvm_candra"/>
    </contour>
    <contour>
      <point x="328" y="30" type="move" name="blwm_caret_1"/>
    </contour>
    <contour>
      <point x="103" y="20" type="move" name="blwm_nukta"/>
    </contour>
    <contour>
      <point x="519" y="670" type="move" name="abvm"/>
    </contour>
    <contour>
      <point x="601" y="0" type="line"/>
      <point x="601" y="579" type="line"/>
      <point x="682" y="579" type="line"/>
      <point x="682" y="689" type="line"/>
      <point x="472.0" y="689" type="line"/>
      <point x="472.0" y="482.0" type="line"/>
      <point x="264.53639" y="482.0" type="line"/>
      <point x="252.823058174" y="583.311879107"/>
      <point x="171.021338866" y="689.0"/>
      <point x="27.0" y="689.0" type="curve" smooth="yes"/>
      <point x="0" y="689" type="line"/>
      <point x="0" y="579" type="line"/>
      <point x="33" y="579" type="line" smooth="yes"/>
      <point x="107" y="579"/>
      <point x="139" y="528"/>
      <point x="139" y="469" type="curve" smooth="yes"/>
      <point x="139" y="407"/>
      <point x="105" y="361"/>
      <point x="44" y="322" type="curve"/>
      <point x="68" y="178"/>
      <point x="184" y="102"/>
      <point x="307" y="102" type="curve" smooth="yes"/>
      <point x="373.288375624" y="102.0"/>
      <point x="428.288375624" y="113.288375624"/>
      <point x="472.0" y="132.66998" type="curve"/>
      <point x="472.0" y="0" type="line"/>
    </contour>
    <contour>
      <point x="305.0" y="213.0" type="curve" smooth="yes"/>
      <point x="225.972977712" y="213.0"/>
      <point x="189.269274485" y="243.96828224"/>
      <point x="171.89881" y="277.02253" type="curve"/>
      <point x="203.185418684" y="299.688988506"/>
      <point x="232.094698963" y="330.929928963"/>
      <point x="249.39405" y="372.007" type="curve"/>
      <point x="472.0" y="372.007" type="line"/>
      <point x="472.0" y="287.81904" type="line"/>
      <point x="427.560087017" y="231.33343672"/>
      <point x="357.946663181" y="213.0"/>
    </contour>
  </outline>
</glyph>
<glyph name="uni0A18" format="1">
  <advance width="869"/>
  <unicode hex="0A18"/>
  <outline>
    <contour>
      <point x="706" y="680" type="move" name="abvm_bindu"/>
    </contour>
    <contour>
      <point x="724" y="0" type="move" name="blwm"/>
    </contour>
    <contour>
      <point x="706" y="690" type="move" name="abvm_candra"/>
    </contour>
    <contour>
      <point x="442" y="30" type="move" name="blwm_caret_1"/>
    </contour>
    <contour>
      <point x="105" y="0" type="move" name="blwm_nukta"/>
    </contour>
    <contour>
      <point x="706" y="670" type="move" name="abvm"/>
    </contour>
    <contour>
      <point x="789.0" y="0" type="line"/>
      <point x="789.0" y="579" type="line"/>
      <point x="870.0" y="579" type="line"/>
      <point x="870.0" y="689" type="line"/>
      <point x="660" y="689" type="line"/>
      <point x="660" y="256.67313" type="line"/>
      <point x="631.035058341" y="223.490435061"/>
      <point x="594.796833393" y="213.0"/>
      <point x="568.0" y="213.0" type="curve" smooth="yes"/>
      <point x="522.806725848" y="213.0"/>
      <point x="495.215566277" y="232.949063192"/>
      <point x="479.83332" y="258.92182" type="curve"/>
      <point x="507.119273587" y="331.091881655"/>
      <point x="519.0" y="399.92208611"/>
      <point x="519.0" y="464.0" type="curve" smooth="yes"/>
      <point x="519" y="522"/>
      <point x="511" y="579"/>
      <point x="499" y="636" type="curve"/>
      <point x="383.0" y="636" type="line"/>
      <point x="383.0" y="283" type="line"/>
      <point x="359" y="227"/>
      <point x="308" y="213"/>
      <point x="273" y="213" type="curve" smooth="yes"/>
      <point x="215.110186483" y="213.0"/>
      <point x="183.264382383" y="240.45179371"/>
      <point x="169.19484" y="274.73623" type="curve"/>
      <point x="221.769296782" y="310.688043263"/>
      <point x="265.0" y="371.201080124"/>
      <point x="265.0" y="457.0" type="curve" smooth="yes"/>
      <point x="265" y="565"/>
      <point x="183" y="689"/>
      <point x="27" y="689" type="curve" smooth="yes"/>
      <point x="0" y="689" type="line"/>
      <point x="0" y="579" type="line"/>
      <point x="32" y="579" type="line" smooth="yes"/>
      <point x="107" y="579"/>
      <point x="139" y="528"/>
      <point x="139" y="469" type="curve" smooth="yes"/>
      <point x="139" y="407"/>
      <point x="105" y="361"/>
      <point x="44" y="322" type="curve"/>
      <point x="64" y="179"/>
      <point x="169" y="102"/>
      <point x="274" y="102" type="curve" smooth="yes"/>
      <point x="339.437025321" y="102.0"/>
      <point x="395.485274174" y="120.055339361"/>
      <point x="428.64203" y="161.70457" type="curve"/>
      <point x="465.951014418" y="123.648070818"/>
      <point x="514.682207749" y="102.0"/>
      <point x="569.0" y="102.0" type="curve" smooth="yes"/>
      <point x="603.910596551" y="102.0"/>
      <point x="634.065405829" y="107.389892241"/>
      <point x="660" y="117.65208" type="curve"/>
      <point x="660" y="0" type="line"/>
    </contour>
  </outline>
</glyph>
<glyph name="uni0A19" format="1">
  <advance width="646"/>
  <unicode hex="0A19"/>
  <outline>
    <contour>
      <point x="490" y="680" type="move" name="abvm_bindu"/>
    </contour>
    <contour>
      <point x="307" y="0" type="move" name="blwm"/>
    </contour>
    <contour>
      <point x="490" y="690" type="move" name="abvm_candra"/>
    </contour>
    <contour>
      <point x="311" y="30" type="move" name="blwm_caret_1"/>
    </contour>
    <contour>
      <point x="83" y="-69" type="move" name="blwm_nukta"/>
    </contour>
    <contour>
      <point x="490" y="670" type="move" name="abvm"/>
    </contour>
    <contour>
      <point x="299" y="-11" type="curve" smooth="yes"/>
      <point x="497" y="-11"/>
      <point x="604" y="110"/>
      <point x="604" y="237" type="curve" smooth="yes"/>
      <point x="604" y="357"/>
      <point x="510" y="471"/>
      <point x="325" y="471" type="curve" smooth="yes"/>
      <point x="227.0" y="471.0" type="line"/>
      <point x="227.0" y="579" type="line"/>
      <point x="646" y="579" type="line"/>
      <point x="646" y="689" type="line"/>
      <point x="0" y="689" type="line"/>
      <point x="0" y="579" type="line"/>
      <point x="99.0" y="579" type="line"/>
      <point x="99.0" y="361.0" type="line"/>
      <point x="332" y="361.0" type="line" smooth="yes"/>
      <point x="438" y="361"/>
      <point x="480" y="303"/>
      <point x="480" y="243" type="curve" smooth="yes"/>
      <point x="480.0" y="220.130202438"/>
      <point x="474.089584767" y="196.907544265"/>
      <point x="462.45216" y="175.59572" type="curve"/>
      <point x="405.542322741" y="239.742700386"/>
      <point x="315.611415401" y="280.0"/>
      <point x="215.0" y="280.0" type="curve" smooth="yes"/>
      <point x="111" y="280"/>
      <point x="45" y="237"/>
      <point x="45" y="159" type="curve" smooth="yes"/>
      <point x="45" y="61"/>
      <point x="147" y="-11"/>
    </contour>
    <contour>
      <point x="286.0" y="85.0" type="curve" smooth="yes"/>
      <point x="210" y="85"/>
      <point x="160" y="114"/>
      <point x="160" y="151" type="curve" smooth="yes"/>
      <point x="160" y="178"/>
      <point x="188" y="194"/>
      <point x="236" y="194" type="curve" smooth="yes"/>
      <point x="299.879905539" y="194.0"/>
      <point x="365.577874046" y="164.910992512"/>
      <point x="407.09293" y="117.10799" type="curve"/>
      <point x="376.192643815" y="97.3991212257"/>
      <point x="335.688589028" y="85.0"/>
    </contour>
  </outline>
</glyph>
<glyph name="uni0A1A" format="1">
  <advance width="710"/>
  <unicode hex="0A1A"/>
  <outline>
    <contour>
      <point x="546" y="680" type="move" name="abvm_bindu"/>
    </contour>
    <contour>
      <point x="455" y="0" type="move" name="blwm"/>
    </contour>
    <contour>
      <point x="546" y="690" type="move" name="abvm_candra"/>
    </contour>
    <contour>
      <point x="435" y="30" type="move" name="blwm_caret_1"/>
    </contour>
    <contour>
      <point x="114" y="0" type="move" name="blwm_nukta"/>
    </contour>
    <contour>
      <point x="556" y="670" type="move" name="abvm"/>
    </contour>
    <contour>
      <point x="455.0" y="-11.0" type="curve" smooth="yes"/>
      <point x="546" y="-11"/>
      <point x="628" y="39"/>
      <point x="628" y="156" type="curve"/>
      <point x="628" y="579" type="line"/>
      <point x="710.0" y="579" type="line"/>
      <point x="710.0" y="689" type="line"/>
      <point x="0" y="689" type="line"/>
      <point x="0" y="579" type="line"/>
      <point x="500.0" y="579" type="line"/>
      <point x="500.0" y="409.0" type="line"/>
      <point x="231.86838" y="409.0" type="line"/>
      <point x="192.299636553" y="443.704864589"/>
      <point x="113.589242325" y="444.630154873"/>
      <point x="39.0" y="438.0" type="curve"/>
      <point x="19" y="334" type="line"/>
      <point x="49.2053907917" y="313.669448506"/>
      <point x="85.4842214472" y="302.786470133"/>
      <point x="121.76067" y="299.20766" type="curve"/>
      <point x="134.856368466" y="118.830310352"/>
      <point x="314.402730786" y="-11.0"/>
    </contour>
    <contour>
      <point x="438" y="101" type="curve" smooth="yes"/>
      <point x="341.665309156" y="101.0"/>
      <point x="254.993646905" y="193.765074485"/>
      <point x="252.07585" y="298" type="curve"/>
      <point x="500.0" y="298" type="line"/>
      <point x="500.0" y="175.0" type="line"/>
      <point x="500" y="131"/>
      <point x="493" y="101"/>
    </contour>
  </outline>
</glyph>
